<svg width="406" height="72" viewBox="0 0 406 72" fill="none" xmlns="http://www.w3.org/2000/svg">
<path d="M63.0588 44.4798C61.9124 43.9885 60.675 44.4798 60.0199 45.4625L54.67 43.2424V43.1514C54.67 42.7329 54.5062 42.3326 54.1786 42.0778C55.6526 37.7105 55.416 33.1067 53.8511 29.0851L60.0199 26.5375C60.675 27.5202 61.9124 27.9387 63.0588 27.5202C64.2962 27.0289 64.9513 25.5367 64.369 24.2265C63.8777 22.9891 62.3855 22.334 61.0753 22.9163C59.9289 23.4076 59.3466 24.554 59.6014 25.7187L53.4326 28.2662C52.3589 25.7914 50.7212 23.4986 48.6649 21.6789C48.7559 21.5151 48.7559 21.4242 48.7559 21.2604C48.7559 20.5143 48.1736 19.9502 47.4457 19.9502C47.191 19.9502 46.9544 20.0412 46.6996 20.205C45.717 19.5499 44.7162 18.9676 43.6607 18.4762L46.2083 12.3802C47.3547 12.635 48.5921 12.0527 49.0107 10.9063C49.502 9.66885 48.9197 8.19489 47.7005 7.61259C46.4631 7.12127 44.9891 7.70358 44.4068 8.92278C43.9155 10.0692 44.4068 11.3066 45.3895 11.9617L42.8419 18.0577C38.8021 16.4928 34.453 16.329 30.4133 17.5664C30.0857 17.0751 29.5034 16.6565 28.7755 16.6565C28.6846 16.6565 28.5208 16.6565 28.448 16.6565L26.4645 11.8889C27.4472 11.2338 27.8657 9.9964 27.4472 8.84999C26.9558 7.61259 25.4637 6.95749 24.1535 7.5398C22.9161 8.03112 22.261 9.52328 22.8433 10.8335C23.3346 11.9799 24.481 12.5622 25.6457 12.3074L27.6291 17.0751C27.1378 17.4026 26.8103 17.9849 26.8103 18.64C26.8103 18.8038 26.8103 18.8948 26.9012 19.0585C23.1163 21.042 20.1501 24.2447 18.4214 28.1935L12.3254 25.6459C12.5802 24.4995 11.9979 23.2621 10.8514 22.8435C9.61404 22.3522 8.14008 22.9345 7.55777 24.1537C7.06645 25.3911 7.64876 26.8651 8.86796 27.4474C10.0144 27.9387 11.2518 27.4474 11.9069 26.4647L18.0029 29.0123C17.184 31.1596 16.7655 33.2886 16.6927 35.4359C16.2742 35.5997 16.0376 35.9272 16.0376 36.4185C16.0376 36.8371 16.2924 37.2374 16.6927 37.4012C16.8565 39.2937 17.275 41.0952 17.9301 42.9149L11.8341 45.4625C11.179 44.4798 9.94159 44.0613 8.79518 44.4798C7.55778 44.9711 6.90268 46.4633 7.48499 47.7735C7.97631 49.0109 9.46847 49.666 10.7787 49.0837C11.9251 48.5924 12.5074 47.4459 12.2526 46.2813L18.3486 43.7337C19.0037 45.2987 19.9136 46.6999 20.9872 48.0101C20.8962 48.1738 20.8234 48.4286 20.8234 48.6651C20.8234 49.4112 21.4057 49.9753 22.1336 49.9753C22.2974 49.9753 22.5522 49.8844 22.7159 49.8116C24.2809 51.2855 26.0824 52.5229 28.2296 53.4328L25.682 59.5288C24.5356 59.274 23.2982 59.8563 22.8797 61.0028C22.3884 62.2402 22.9707 63.7141 24.1899 64.2964C25.4273 64.7877 26.9012 64.2054 27.4836 62.9862C27.9749 61.8398 27.4836 60.6024 26.5009 59.9473L29.0485 53.8513C31.2685 54.7612 33.6524 55.1615 35.9634 55.1615C38.3472 55.1615 40.731 54.6702 42.8783 53.8513L45.4259 60.0201C44.4432 60.6752 44.0247 61.9126 44.4432 63.059C44.9345 64.2964 46.4267 64.9515 47.7369 64.3692C48.9743 63.8779 49.6294 62.3857 49.0471 61.0756C48.5557 59.9291 47.4093 59.3468 46.2447 59.6016L43.6971 53.4328C47.6459 51.7041 51.1033 48.5742 53.1596 44.4616C53.2506 44.4616 53.2506 44.4616 53.3234 44.4616C53.7419 44.4616 54.0695 44.2979 54.306 43.9703L59.6559 46.1903C59.4012 47.3368 59.9835 48.5742 61.1299 48.9927C62.3673 49.484 63.8413 48.9017 64.4236 47.6825C64.9513 46.4451 64.2962 45.0439 63.0588 44.4798ZM29.0667 20.6053C29.1577 20.6053 29.1577 20.6053 29.0667 20.6053L32.6879 29.1579L28.9939 31.2142C28.7392 30.9594 28.5026 30.7956 28.175 30.6319L29.0667 20.6053ZM35.1627 36.8189L34.5076 38.4566L33.525 37.474L35.1627 36.8189ZM32.7789 36.8189L29.5762 33.78L34.8352 36L32.7789 36.8189ZM35.9816 37.1464L37.8741 41.6775L35.1627 39.1299L35.9816 37.1464ZM37.3828 42.4236C37.219 42.7511 37.128 43.0786 37.128 43.4062C37.128 43.4972 37.128 43.661 37.128 43.7337L32.4332 45.79L34.817 39.9487L37.3828 42.4236ZM39.1115 41.4227C39.0205 41.4227 38.8567 41.4227 38.7839 41.4227L36.8914 36.8189L41.0949 38.5476L39.621 41.5137C39.348 41.4227 39.2752 41.4227 39.1115 41.4227ZM37.128 36L43.6243 33.2886L41.3133 37.7287L37.128 36ZM43.8791 34.8536L43.3878 38.6386L42.1504 38.1473L43.8791 34.8536ZM44.9527 33.689C45.0437 33.689 45.0437 33.689 45.1165 33.598L51.9404 42.0778L44.3704 38.9479L44.9527 33.689ZM43.315 32.4698L36.8186 35.1811L40.0213 27.4474C40.1123 27.4474 40.2761 27.4474 40.4399 27.4474C40.6946 27.4474 40.9312 27.3564 41.0949 27.2836L43.6425 31.4871C43.4788 31.7965 43.315 32.124 43.315 32.4698ZM39.1843 27.1198L35.9816 34.8536L33.7615 29.5946L38.7839 26.8833C38.9477 26.9561 39.0205 27.0289 39.1843 27.1198ZM35.1627 35.1811L29.4852 32.7973C29.4852 32.7063 29.4852 32.5426 29.4852 32.4698C29.4852 32.306 29.4852 32.1422 29.3942 31.9785L33.0155 29.995L35.1627 35.1811ZM27.5927 34.4351H27.6837L28.8301 38.4748L25.6275 39.785L27.429 34.4351C27.429 34.4351 27.5017 34.4351 27.5927 34.4351ZM28.5026 34.1985C28.5936 34.1985 28.5936 34.1075 28.6664 34.1075L31.96 37.2374L29.649 38.1473L28.5026 34.1985ZM32.6151 37.8925L34.1801 39.3665L31.7053 45.2987L29.9038 39.0389L32.6151 37.8925ZM37.4555 44.5526C37.7831 45.0439 38.3654 45.3715 39.0205 45.3715C39.1115 45.3715 39.2752 45.3715 39.348 45.3715L41.4953 50.4667L32.6879 46.6817L37.4555 44.5526ZM40.1851 44.9712C40.6036 44.7164 40.8402 44.2251 41.004 43.7337H42.8055L42.0594 49.5022L40.1851 44.9712ZM41.004 42.9149C40.913 42.4963 40.6764 42.1688 40.3489 41.8412L41.8228 38.8751L43.2968 39.4574L42.8783 42.8239L41.004 42.9149ZM44.2066 39.876L51.1943 42.7511L43.7881 42.8421L44.2066 39.876ZM45.7716 33.1249C45.9354 32.9611 45.9354 32.7063 45.9354 32.4698V32.3788L49.5566 30.9048L52.2679 41.3499L45.7716 33.1249ZM45.6078 31.5599C45.5168 31.4689 45.444 31.3961 45.3531 31.3052L47.5003 22.9891L49.3018 29.9768L45.6078 31.5599ZM46.6814 22.1702C46.7542 22.2612 46.7542 22.2612 46.6814 22.1702L44.4614 31.0504C44.3704 31.0504 44.3704 31.0504 44.2976 31.0504L41.75 26.8469C42.1686 26.4283 42.4051 25.937 42.4051 25.3729C42.4051 25.1182 42.3142 24.9544 42.3142 24.7178L46.6814 22.1702ZM38.3654 26.0462L33.434 28.7576L29.9038 20.2777C29.9947 20.1868 30.0675 20.114 30.1585 20.023L38.3108 24.7906C38.2198 24.9544 38.2198 25.2091 38.2198 25.4457C38.2926 25.6277 38.3654 25.7914 38.3654 26.0462ZM28.1568 20.5325C28.1568 20.5325 28.2478 20.5325 28.1568 20.5325L27.247 30.5773C26.6647 30.6683 26.2643 30.9048 25.9368 31.3961L22.1518 29.8312L28.1568 20.5325ZM25.6093 32.124C25.6093 32.215 25.6093 32.3788 25.6093 32.4516C25.6093 32.5426 25.6093 32.6153 25.6093 32.7063L18.3668 35.5087L21.6605 30.4135L25.6093 32.124ZM18.294 36.5823L25.864 33.6162C26.0278 33.8709 26.1916 34.0347 26.4463 34.1985L24.4628 40.2945L23.644 40.6221L18.1303 36.7461C18.294 36.6551 18.294 36.5823 18.294 36.5823ZM25.2817 40.9314L29.0667 39.3665L30.8682 45.5353L25.0997 41.4955L25.2817 40.9314ZM30.5589 46.3723L23.4074 47.9373C23.3164 47.7735 23.2436 47.6825 23.0799 47.6097L24.8086 42.3508L30.5589 46.3723ZM30.7954 47.2822L30.0493 49.2657L24.7904 48.6106L30.7954 47.2822ZM31.6143 47.6825C31.869 47.6825 32.1056 47.5915 32.2694 47.4278L39.257 50.4667L30.941 49.3202L31.6143 47.6825ZM42.8965 50.2301L43.7153 43.7337L51.9404 43.57L42.8965 50.2301ZM53.3416 41.6775L50.3754 30.4863L53.014 29.4127C54.5062 33.1976 54.7427 37.5649 53.3416 41.6775ZM52.6865 28.5938L50.1389 29.6674L48.2464 22.516C50.2117 24.1537 51.7038 26.2828 52.6865 28.5938ZM46.2629 20.86C46.2629 20.951 46.1719 21.1148 46.1719 21.1876C46.1719 21.2604 46.1719 21.3514 46.1719 21.4424L41.8046 23.9899C41.7136 23.899 41.5499 23.7352 41.4771 23.6624L43.2786 19.2223C44.4614 19.7136 45.3713 20.2777 46.2629 20.86ZM35.9816 17.6574C38.2016 17.6574 40.4217 18.0759 42.5689 18.8948L40.7674 23.3349C40.6764 23.3349 40.5126 23.3349 40.3489 23.3349C39.7666 23.3349 39.2025 23.5896 38.7839 23.9899L30.6316 19.2223C30.7226 19.0585 30.7226 18.8948 30.7226 18.64C30.7226 18.549 30.7226 18.4762 30.7226 18.3852C32.4513 17.9849 34.2529 17.6574 35.9816 17.6574ZM27.338 19.8774C27.338 19.9684 27.429 19.9684 27.429 20.0412L21.3329 29.4309L19.2767 28.612C20.9326 24.8088 23.7168 21.8427 27.338 19.8774ZM20.8416 30.1587L17.8027 34.9264C17.8937 33.0339 18.294 31.2324 19.0401 29.4127L20.8416 30.1587ZM17.8027 37.474L22.8251 41.0042L18.9491 42.5691C18.294 40.9314 17.8755 39.2027 17.8027 37.474ZM23.644 41.5865L24.0625 41.8412L22.261 47.355C22.0972 47.355 21.9334 47.355 21.8425 47.4459C20.8598 46.2085 20.041 44.8983 19.3677 43.4062L23.644 41.5865ZM23.4802 49.2475L29.74 50.0663L28.6664 52.7049C26.6829 51.886 24.9542 50.7214 23.4802 49.2475ZM29.3942 53.0324L30.5407 50.1573L41.1495 51.4675C41.3133 51.9588 41.7318 52.2864 42.2232 52.2864L42.4779 52.9415C38.4564 54.5974 33.8525 54.7612 29.3942 53.0324ZM43.3878 52.7049L43.133 52.0498C43.2968 51.886 43.4606 51.5585 43.4606 51.2309C43.4606 51.1399 43.4606 51.0672 43.4606 50.9762L52.177 44.5526C50.2117 48.2648 47.1 51.0672 43.3878 52.7049Z" fill="white"/>
<path d="M28.9936 7.52161C29.1573 7.77636 29.2483 7.94013 29.3211 8.1767C29.4121 8.43145 29.4849 8.59523 29.4849 8.8318L34.5073 5.1378C35.4171 4.4827 36.5635 4.4827 37.4734 5.1378L42.4958 8.8318C42.5868 8.57704 42.5868 8.41326 42.6596 8.1767C42.7505 7.92194 42.9143 7.68538 42.9871 7.52161C43.4056 6.86651 43.8969 6.3752 44.552 6.04765L39.4569 2.26265C37.1458 0.533931 34.6892 0.624916 32.4692 2.26265L27.374 6.04765C28.0837 6.3752 28.575 6.86651 28.9936 7.52161Z" fill="white"/>
<path d="M43.0604 64.4784C42.8967 64.2236 42.8057 64.0599 42.7329 63.8233C42.6419 63.5685 42.5691 63.4048 42.5691 63.1682L37.5467 66.8622C36.6369 67.5173 35.4905 67.5173 34.5806 66.8622L29.5582 63.1682C29.4672 63.423 29.4672 63.5867 29.3944 63.8233C29.3035 64.0781 29.1397 64.3146 29.0669 64.4784C28.6484 65.1335 28.157 65.6248 27.502 65.9523L32.5971 69.7373C34.9082 71.4661 37.3648 71.3751 39.5848 69.7373L44.68 65.9523C43.9703 65.6248 43.388 65.1335 43.0604 64.4784Z" fill="white"/>
<path d="M10.8878 20.769C11.1426 20.86 11.3792 20.9328 11.6339 21.0237C11.8887 21.1147 12.0525 21.1875 12.2162 21.3513L13.1261 15.1825C13.2899 14.1088 14.1087 13.29 15.1824 13.1262L21.3512 12.2164C21.2602 12.0526 21.0964 11.7978 21.0236 11.634C20.9326 11.3793 20.8598 11.1427 20.7688 10.888C20.6051 10.1419 20.6051 9.41401 20.8598 8.74072L14.6 9.65058C11.7977 10.0691 10.069 11.8706 9.66864 14.582L8.75879 20.8418C9.39569 20.6962 10.1418 20.6052 10.8878 20.769Z" fill="white"/>
<path d="M61.0759 51.14C60.8211 51.0491 60.5845 50.9763 60.3298 50.8853C60.075 50.7943 59.9112 50.7215 59.7475 50.5577L58.8376 56.7265C58.6738 57.8002 57.855 58.619 56.7813 58.7828L50.6125 59.6927C50.7035 59.8564 50.8673 60.1112 50.9401 60.275C51.0311 60.5297 51.1039 60.7663 51.1948 61.021C51.3586 61.7671 51.3586 62.495 51.1039 63.1683L57.3637 62.2585C60.166 61.8399 61.8947 60.0384 62.2951 57.327L63.2049 51.0673C62.568 51.3038 61.8219 51.3038 61.0759 51.14Z" fill="white"/>
<path d="M8.17669 42.6602C8.43145 42.5693 8.59522 42.4965 8.83178 42.4965L5.13778 37.4741C4.48269 36.5642 4.48269 35.4178 5.13778 34.508L8.83178 29.4856C8.57703 29.3946 8.41326 29.3946 8.17669 29.3218C7.92194 29.2308 7.68537 29.0671 7.5216 28.9943C6.86651 28.5757 6.37518 28.0844 6.04764 27.4293L2.26265 32.5245C0.533931 34.8355 0.624916 37.2921 2.26265 39.5122L6.04764 44.6073C6.37518 43.9523 6.95749 43.4609 7.5216 43.0424C7.75816 42.824 7.92194 42.7512 8.17669 42.6602Z" fill="white"/>
<path d="M69.7193 32.4698L65.9343 27.3746C65.6067 28.0297 65.0244 28.5211 64.4603 28.9396C64.2056 29.1034 64.0418 29.1943 63.8052 29.2671C63.5505 29.3581 63.3867 29.4309 63.1501 29.4309L66.8441 34.4533C67.4992 35.3631 67.4992 36.5096 66.8441 37.4194L63.1501 42.4418C63.4049 42.5328 63.5687 42.5328 63.8052 42.6056C64.06 42.6966 64.2966 42.8603 64.4603 42.9331C65.1154 43.3516 65.6067 43.843 65.9343 44.4981L69.7193 39.4029C71.448 37.1464 71.3752 34.6899 69.7193 32.4698Z" fill="white"/>
<path d="M13.1809 56.7445L12.271 50.5757C12.1073 50.6667 11.8525 50.8305 11.6887 50.9032C11.434 50.9942 11.1974 51.067 10.9427 51.158C10.1966 51.3218 9.4687 51.3218 8.79541 51.067L9.70526 57.3268C10.1238 60.1291 11.9253 61.8579 14.6367 62.2582L20.8965 63.1681C20.7327 62.422 20.6417 61.6941 20.8055 61.0208C20.8965 60.766 20.9692 60.5295 21.0602 60.2747C21.1512 60.02 21.224 59.8562 21.3878 59.6924L15.219 58.7826C14.1817 58.7098 13.2719 57.7999 13.1809 56.7445Z" fill="white"/>
<path d="M58.856 15.1827L59.7659 21.3515C59.9297 21.2605 60.1844 21.0968 60.3482 21.024C60.603 20.933 60.8395 20.8602 61.0943 20.7692C61.8404 20.6054 62.5682 20.6054 63.2415 20.8602L62.3317 14.6004C61.9132 11.7981 60.1116 10.0693 57.4003 9.66901L51.1405 8.75916C51.3043 9.50523 51.3953 10.2331 51.2315 10.9064C51.1405 11.1612 51.0677 11.3977 50.9767 11.6525C50.8857 11.9073 50.8129 12.071 50.6492 12.2348L56.818 13.1447C57.8734 13.2902 58.6923 14.1091 58.856 15.1827Z" fill="white"/>
<path d="M92.319 24.0445H90.6994L89.8988 21.7699H86.3867L85.6225 24.0445H84.0029L87.3512 15.1097H89.0253L92.319 24.0445ZM89.4984 20.5689L88.261 17.0022C88.2246 16.893 88.1883 16.6929 88.1519 16.4381H88.1337C88.0973 16.6747 88.0609 16.8567 88.0063 17.0022L86.7871 20.5689H89.4984Z" fill="white"/>
<path d="M99.9072 15.7649L95.0122 22.789H99.8526V24.0446H92.9377V23.3713L97.8509 16.3837H93.3199V15.1281H99.9072V15.7649Z" fill="white"/>
<path d="M100.708 18.9495H107.496C107.423 18.1124 107.113 17.4574 106.567 16.966C106.022 16.4747 105.312 16.2381 104.475 16.2381C103.492 16.2381 102.655 16.4929 101.945 16.9842V15.6194C102.691 15.1827 103.583 14.9644 104.639 14.9644C106.022 14.9644 107.113 15.3647 107.896 16.1835C108.678 16.9842 109.079 18.1124 109.079 19.5318C109.079 20.8784 108.678 21.9884 107.896 22.8801C107.113 23.7535 106.058 24.2085 104.748 24.2085C103.456 24.2085 102.455 23.7717 101.745 22.8801C101.072 21.9702 100.708 20.6782 100.708 18.9495ZM107.496 20.1869H102.309C102.328 21.024 102.564 21.6973 103.001 22.1886C103.438 22.6799 104.038 22.9347 104.802 22.9347C105.567 22.9347 106.185 22.6799 106.677 22.1886C107.15 21.6973 107.423 21.024 107.496 20.1869Z" fill="white"/>
<path d="M117.613 24.0445H115.885L114.465 21.6607C114.338 21.4423 114.211 21.2603 114.083 21.0966C113.956 20.9328 113.828 20.8054 113.701 20.7144C113.574 20.6234 113.428 20.5507 113.282 20.4961C113.137 20.4415 112.973 20.4233 112.773 20.4233H112.172V24.0445H110.698V15.1097H113.628C114.047 15.1097 114.429 15.1643 114.793 15.2553C115.139 15.3463 115.448 15.5101 115.721 15.7102C115.976 15.9104 116.194 16.1652 116.34 16.4563C116.485 16.7657 116.558 17.1114 116.558 17.5118C116.558 17.8211 116.503 18.1123 116.412 18.3852C116.321 18.64 116.194 18.8765 116.012 19.0949C115.848 19.2951 115.63 19.477 115.393 19.6226C115.157 19.7682 114.884 19.8774 114.574 19.9502V19.9684C114.738 20.0593 114.884 20.1685 114.993 20.2777C115.12 20.3869 115.23 20.4961 115.339 20.6234C115.448 20.7326 115.557 20.8782 115.666 21.0238C115.775 21.1694 115.885 21.3513 116.012 21.5333L117.613 24.0445ZM112.191 16.3289V19.2223H113.428C113.665 19.2223 113.865 19.1859 114.065 19.1131C114.265 19.0403 114.429 18.9493 114.574 18.8037C114.72 18.6764 114.829 18.5126 114.902 18.3124C114.975 18.1304 115.029 17.9121 115.029 17.6755C115.029 17.257 114.902 16.9112 114.629 16.6747C114.356 16.4381 113.974 16.3107 113.464 16.3107H112.191V16.3289Z" fill="white"/>
<path d="M118.65 24.0445V15.1097H121.488C122.344 15.1097 123.035 15.2917 123.545 15.6738C124.054 16.056 124.309 16.5473 124.309 17.1478C124.309 17.6573 124.163 18.0941 123.872 18.4762C123.581 18.8583 123.181 19.1131 122.689 19.2769V19.2951C123.308 19.3679 123.799 19.5862 124.163 19.9684C124.527 20.3505 124.709 20.86 124.709 21.4605C124.709 22.2248 124.4 22.8435 123.799 23.3166C123.199 23.7897 122.435 24.0263 121.525 24.0263H118.65V24.0445ZM120.124 16.3107V18.8583H121.088C121.598 18.8583 121.998 18.731 122.307 18.4944C122.598 18.2578 122.744 17.9121 122.744 17.4572C122.744 16.6929 122.234 16.3107 121.215 16.3107H120.124ZM120.124 20.0411V22.8617H121.379C121.925 22.8617 122.362 22.7343 122.653 22.4795C122.962 22.2248 123.108 21.879 123.108 21.4241C123.108 20.4961 122.471 20.0411 121.179 20.0411H120.124Z" fill="white"/>
<path d="M133.682 24.0445H132.062L131.261 21.7699H127.749L126.985 24.0445H125.365L128.714 15.1097H130.388L133.682 24.0445ZM130.879 20.5689L129.642 17.0022C129.605 16.893 129.569 16.6929 129.533 16.4381H129.514C129.478 16.6747 129.442 16.8567 129.387 17.0022L128.168 20.5689H130.879Z" fill="white"/>
<path d="M140.177 15.1279L137.247 20.8054V24.0445H135.773V20.8236L132.917 15.1097H134.609L136.356 18.9311C136.374 18.9857 136.447 19.1495 136.538 19.4406H136.556C136.592 19.3133 136.665 19.1313 136.756 18.9311L138.594 15.1097H140.177V15.1279Z" fill="white"/>
<path d="M147.237 23.6807C146.564 24.0265 145.727 24.2085 144.726 24.2085C143.434 24.2085 142.397 23.8081 141.615 22.9892C140.832 22.1704 140.45 21.0968 140.45 19.7684C140.45 18.349 140.887 17.1844 141.76 16.3109C142.634 15.4375 143.744 14.9825 145.09 14.9825C145.945 14.9825 146.673 15.1099 147.237 15.3465V16.8204C146.637 16.4565 145.964 16.2927 145.254 16.2927C144.29 16.2927 143.507 16.6021 142.907 17.2208C142.306 17.8395 142.015 18.6584 142.015 19.6956C142.015 20.6782 142.288 21.4607 142.852 22.043C143.416 22.6253 144.144 22.9165 145.054 22.9165C145.891 22.9165 146.619 22.7163 147.237 22.316V23.6807Z" fill="white"/>
<path d="M156.264 24.0445H154.645L153.844 21.7699H150.332L149.568 24.0445H147.948L151.296 15.1097H152.97L156.264 24.0445ZM153.444 20.5689L152.206 17.0022C152.17 16.893 152.133 16.6929 152.097 16.4381H152.079C152.042 16.6747 152.006 16.8567 151.951 17.0022L150.732 20.5689H153.444Z" fill="white"/>
<path d="M165.053 24.0445H163.433L159.175 17.4754C159.066 17.3116 158.975 17.1296 158.902 16.9658H158.866C158.902 17.1478 158.92 17.5663 158.92 18.185V24.0445H157.483V15.1097H159.212L163.324 21.5151C163.506 21.7881 163.615 21.97 163.652 22.061H163.67C163.634 21.8245 163.615 21.4241 163.615 20.86V15.1097H165.035V24.0445H165.053Z" fill="white"/>
<path d="M177.681 24.0445H175.952L174.533 21.6607C174.406 21.4423 174.278 21.2603 174.151 21.0966C174.023 20.9328 173.896 20.8054 173.769 20.7144C173.641 20.6234 173.496 20.5507 173.35 20.4961C173.205 20.4415 173.041 20.4233 172.841 20.4233H172.24V24.0445H170.766V15.1097H173.696C174.114 15.1097 174.497 15.1643 174.86 15.2553C175.206 15.3463 175.516 15.5101 175.789 15.7102C176.043 15.9104 176.262 16.1652 176.407 16.4563C176.553 16.7657 176.626 17.1114 176.626 17.5118C176.626 17.8211 176.571 18.1123 176.48 18.3852C176.389 18.64 176.262 18.8765 176.08 19.0949C175.916 19.2951 175.698 19.477 175.461 19.6226C175.224 19.7682 174.951 19.8774 174.642 19.9502V19.9684C174.806 20.0593 174.951 20.1685 175.061 20.2777C175.188 20.3869 175.297 20.4961 175.406 20.6234C175.516 20.7326 175.625 20.8782 175.734 21.0238C175.843 21.1694 175.952 21.3513 176.08 21.5333L177.681 24.0445ZM172.258 16.3289V19.2223H173.496C173.732 19.2223 173.932 19.1859 174.133 19.1131C174.333 19.0403 174.497 18.9493 174.642 18.8037C174.788 18.6764 174.897 18.5126 174.97 18.3124C175.042 18.1304 175.097 17.9121 175.097 17.6755C175.097 17.257 174.97 16.9112 174.697 16.6747C174.424 16.4381 174.042 16.3107 173.532 16.3107H172.258V16.3289Z" fill="white"/>
<path d="M183.723 24.0445H178.719V15.1097H183.523V16.3653H180.193V18.8947H183.268V20.1503H180.193V22.7889H183.723V24.0445Z" fill="white"/>
<path d="M184.905 23.6989V22.1704C185.051 22.2978 185.196 22.4069 185.397 22.4979C185.579 22.5889 185.779 22.6799 185.997 22.7527C186.215 22.8255 186.416 22.8801 186.634 22.9165C186.852 22.9528 187.034 22.9711 187.216 22.9711C187.835 22.9711 188.308 22.8619 188.599 22.6617C188.909 22.4615 189.054 22.1522 189.054 21.7518C189.054 21.5335 189 21.3515 188.909 21.2059C188.799 21.0422 188.672 20.9148 188.49 20.7874C188.308 20.66 188.09 20.5326 187.853 20.4235C187.598 20.3143 187.344 20.1869 187.053 20.0595C186.743 19.8957 186.47 19.732 186.197 19.5682C185.943 19.4044 185.706 19.2225 185.524 19.0223C185.324 18.8221 185.178 18.5856 185.069 18.349C184.96 18.0942 184.905 17.8031 184.905 17.4573C184.905 17.0388 184.996 16.6749 185.196 16.3655C185.378 16.0562 185.633 15.8014 185.942 15.6012C186.252 15.4011 186.598 15.2555 186.998 15.1463C187.398 15.0553 187.799 15.0007 188.199 15.0007C189.127 15.0007 189.818 15.1099 190.237 15.3101V16.7658C189.727 16.4019 189.072 16.2199 188.29 16.2199C188.072 16.2199 187.853 16.2381 187.635 16.2745C187.416 16.3109 187.216 16.3837 187.053 16.4747C186.889 16.5657 186.743 16.6931 186.634 16.8386C186.525 16.9842 186.47 17.1662 186.47 17.3846C186.47 17.5847 186.507 17.7485 186.598 17.8941C186.689 18.0396 186.798 18.167 186.962 18.2944C187.125 18.4218 187.325 18.531 187.544 18.6401C187.78 18.7493 188.035 18.8767 188.345 19.0041C188.654 19.1679 188.945 19.3316 189.218 19.5136C189.491 19.6956 189.746 19.8957 189.946 20.1141C190.164 20.3325 190.328 20.569 190.437 20.842C190.565 21.0968 190.619 21.4061 190.619 21.7336C190.619 22.1886 190.528 22.5707 190.346 22.8801C190.164 23.1894 189.909 23.4442 189.6 23.6443C189.291 23.8445 188.927 23.9719 188.526 24.0629C188.126 24.1539 187.708 24.1902 187.253 24.1902C187.107 24.1902 186.925 24.1721 186.707 24.1539C186.488 24.1357 186.27 24.0993 186.033 24.0629C185.797 24.0265 185.597 23.9719 185.378 23.8991C185.196 23.8445 185.033 23.7717 184.905 23.6989Z" fill="white"/>
<path d="M193.732 20.8054V24.0445H192.258V15.1097H194.969C195.988 15.1097 196.789 15.3463 197.353 15.8194C197.917 16.2925 198.208 16.9658 198.208 17.8393C198.208 18.7128 197.917 19.4224 197.316 19.9684C196.734 20.5143 195.933 20.7872 194.933 20.7872H193.732V20.8054ZM193.732 16.3471V19.6044H194.696C195.333 19.6044 195.806 19.4588 196.152 19.1677C196.479 18.8765 196.643 18.458 196.643 17.9303C196.643 16.8749 196.024 16.3471 194.805 16.3471H193.732Z" fill="white"/>
<path d="M206.578 20.4416C206.578 22.9528 205.396 24.2084 203.012 24.2084C200.737 24.2084 199.609 23.0074 199.609 20.5872V15.1281H201.083V20.2778C201.083 22.0247 201.756 22.8982 203.121 22.8982C204.431 22.8982 205.086 22.0611 205.086 20.3688V15.1281H206.56V20.4416H206.578Z" fill="white"/>
<path d="M208.671 24.0445V15.1097H211.51C212.365 15.1097 213.057 15.2917 213.566 15.6738C214.076 16.056 214.331 16.5473 214.331 17.1478C214.331 17.6573 214.185 18.0941 213.894 18.4762C213.603 18.8583 213.202 19.1131 212.711 19.2769V19.2951C213.33 19.3679 213.821 19.5862 214.185 19.9684C214.549 20.3505 214.731 20.86 214.731 21.4605C214.731 22.2248 214.422 22.8435 213.821 23.3166C213.221 23.7897 212.456 24.0263 211.547 24.0263H208.671V24.0445ZM210.145 16.3107V18.8583H211.11C211.619 18.8583 212.02 18.731 212.329 18.4944C212.62 18.2578 212.766 17.9121 212.766 17.4572C212.766 16.6929 212.256 16.3107 211.237 16.3107H210.145ZM210.145 20.0411V22.8617H211.401C211.947 22.8617 212.384 22.7343 212.675 22.4795C212.984 22.2248 213.13 21.879 213.13 21.4241C213.13 20.4961 212.493 20.0411 211.201 20.0411H210.145Z" fill="white"/>
<path d="M221.318 24.0445H216.368V15.1097H217.842V22.7889H221.3V24.0445H221.318Z" fill="white"/>
<path d="M223.338 14.291C223.138 14.291 222.956 14.2182 222.792 14.0908C222.647 13.9452 222.574 13.7814 222.574 13.5813C222.574 13.3811 222.647 13.2173 222.792 13.0717C222.938 12.9262 223.12 12.8716 223.338 12.8716C223.556 12.8716 223.738 12.9444 223.884 13.0717C224.029 13.1991 224.102 13.3811 224.102 13.5813C224.102 13.7814 224.029 13.9452 223.884 14.0908C223.738 14.2364 223.556 14.291 223.338 14.291ZM224.12 24.0446H222.592V15.1098H224.12V24.0446Z" fill="white"/>
<path d="M233.073 24.0446H231.144L228.033 19.9685C227.923 19.8229 227.851 19.7137 227.814 19.6591H227.796V24.0628H226.322V15.1281H227.796V19.3316H227.814C227.869 19.2406 227.942 19.1314 228.033 19.0222L231.035 15.1281H232.818L229.306 19.4044L233.073 24.0446Z" fill="white"/>
<path d="M241.444 24.0445H239.824L239.024 21.7699H235.511L234.747 24.0445H233.128L236.476 15.1097H238.15L241.444 24.0445ZM238.623 20.5689L237.386 17.0022C237.349 16.893 237.313 16.6929 237.277 16.4381H237.258C237.222 16.6747 237.186 16.8567 237.131 17.0022L235.912 20.5689H238.623Z" fill="white"/>
<path d="M242.262 23.6989V22.1704C242.408 22.2978 242.554 22.4069 242.754 22.4979C242.936 22.5889 243.136 22.6799 243.354 22.7527C243.573 22.8255 243.773 22.8801 243.991 22.9165C244.21 22.9528 244.392 22.9711 244.573 22.9711C245.192 22.9711 245.665 22.8619 245.956 22.6617C246.266 22.4615 246.411 22.1522 246.411 21.7518C246.411 21.5335 246.357 21.3515 246.266 21.2059C246.157 21.0422 246.029 20.9148 245.847 20.7874C245.665 20.66 245.447 20.5326 245.21 20.4235C244.956 20.3143 244.701 20.1869 244.41 20.0595C244.1 19.8957 243.827 19.732 243.554 19.5682C243.3 19.4044 243.063 19.2225 242.881 19.0223C242.681 18.8221 242.535 18.5856 242.426 18.349C242.317 18.0942 242.262 17.8031 242.262 17.4573C242.262 17.0388 242.353 16.6749 242.554 16.3655C242.736 16.0562 242.99 15.8014 243.3 15.6012C243.609 15.4011 243.955 15.2555 244.355 15.1463C244.755 15.0553 245.156 15.0007 245.556 15.0007C246.484 15.0007 247.176 15.1099 247.594 15.3101V16.7658C247.085 16.4019 246.43 16.2199 245.647 16.2199C245.429 16.2199 245.21 16.2381 244.992 16.2745C244.774 16.3109 244.573 16.3837 244.41 16.4747C244.246 16.5657 244.1 16.6931 243.991 16.8386C243.882 16.9842 243.827 17.1662 243.827 17.3846C243.827 17.5847 243.864 17.7485 243.955 17.8941C244.046 18.0396 244.155 18.167 244.319 18.2944C244.483 18.4218 244.683 18.531 244.901 18.6401C245.138 18.7493 245.392 18.8767 245.702 19.0041C246.011 19.1679 246.302 19.3316 246.575 19.5136C246.848 19.6956 247.103 19.8957 247.303 20.1141C247.521 20.3325 247.685 20.569 247.794 20.842C247.922 21.0968 247.976 21.4061 247.976 21.7336C247.976 22.1886 247.885 22.5707 247.703 22.8801C247.521 23.1894 247.267 23.4442 246.957 23.6443C246.648 23.8445 246.284 23.9719 245.884 24.0629C245.483 24.1539 245.065 24.1902 244.61 24.1902C244.464 24.1902 244.282 24.1721 244.064 24.1539C243.846 24.1357 243.627 24.0993 243.391 24.0629C243.154 24.0265 242.954 23.9719 242.736 23.8991C242.554 23.8445 242.39 23.7717 242.262 23.6989Z" fill="white"/>
<path d="M251.125 24.0445H249.596V15.1097H251.125V24.0445Z" fill="white"/>
<path d="M91.8824 40.4219H90.1537L88.7343 38.0381C88.6069 37.8197 88.4796 37.6378 88.3522 37.474C88.2248 37.3102 88.0974 37.1829 87.97 37.0919C87.8427 37.0009 87.6971 36.9281 87.5515 36.8735C87.4059 36.8189 87.2422 36.8007 87.042 36.8007H86.4415V40.4219H84.9675V31.4872H87.8973C88.3158 31.4872 88.6979 31.5418 89.0619 31.6328C89.4076 31.7237 89.717 31.8875 89.9899 32.0877C90.2447 32.2879 90.463 32.5426 90.6086 32.8338C90.7542 33.1431 90.827 33.4889 90.827 33.8892C90.827 34.1985 90.7724 34.4897 90.6814 34.7627C90.5904 35.0174 90.463 35.254 90.2811 35.4723C90.1173 35.6725 89.8989 35.8545 89.6624 36.0001C89.4258 36.1456 89.1529 36.2548 88.8435 36.3276V36.3458C89.0073 36.4368 89.1528 36.546 89.262 36.6551C89.3894 36.7643 89.4986 36.8735 89.6078 37.0009C89.717 37.1101 89.8261 37.2556 89.9353 37.4012C90.0445 37.5468 90.1537 37.7288 90.2811 37.9107L91.8824 40.4219ZM86.4597 32.7064V35.5997H87.6971C87.9336 35.5997 88.1338 35.5633 88.334 35.4905C88.5342 35.4177 88.6979 35.3268 88.8435 35.1812C88.9891 35.0538 89.0983 34.89 89.171 34.6899C89.2438 34.5079 89.2984 34.2895 89.2984 34.053C89.2984 33.6344 89.171 33.2887 88.8981 33.0521C88.6251 32.8156 88.243 32.6882 87.7335 32.6882H86.4597V32.7064Z" fill="white"/>
<path d="M92.3376 35.3267H99.1251C99.0524 34.4896 98.743 33.8345 98.1971 33.3432C97.6512 32.8519 96.9415 32.6153 96.1044 32.6153C95.1218 32.6153 94.2847 32.8701 93.575 33.3614V31.9966C94.3211 31.5599 95.2128 31.3416 96.2682 31.3416C97.6512 31.3416 98.743 31.7419 99.5255 32.5607C100.308 33.3614 100.708 34.4896 100.708 35.909C100.708 37.2556 100.308 38.3656 99.5255 39.2573C98.743 40.1307 97.6876 40.5856 96.3774 40.5856C95.0854 40.5856 94.0846 40.1489 93.3749 39.2573C92.6652 38.3656 92.3376 37.0554 92.3376 35.3267ZM99.1251 36.5641H93.939C93.9572 37.4012 94.1937 38.0745 94.6305 38.5658C95.0672 39.0571 95.6677 39.3119 96.432 39.3119C97.1963 39.3119 97.815 39.0571 98.3063 38.5658C98.7976 38.0745 99.0524 37.4012 99.1251 36.5641Z" fill="white"/>
<path d="M106.022 40.5675C105.385 40.5675 104.803 40.4583 104.275 40.2399C103.747 40.0216 103.31 39.7122 102.928 39.3119C102.564 38.9115 102.273 38.4384 102.073 37.8925C101.873 37.3466 101.764 36.7279 101.764 36.0546C101.764 35.3449 101.873 34.6898 102.073 34.1075C102.273 33.5252 102.564 33.0339 102.946 32.6153C103.329 32.1968 103.784 31.8875 104.329 31.6691C104.875 31.4507 105.476 31.3416 106.149 31.3416C106.768 31.3416 107.332 31.4507 107.86 31.6691C108.387 31.8875 108.806 32.1968 109.188 32.5971C109.57 32.9975 109.843 33.4706 110.043 34.0165C110.243 34.5624 110.353 35.1811 110.353 35.8362C110.353 36.7097 110.207 37.4922 109.916 38.1473C109.625 38.8024 109.206 39.3482 108.679 39.7486L111.263 41.6229H109.006L107.405 40.3855C107.186 40.4401 106.968 40.4947 106.75 40.5311C106.513 40.5675 106.277 40.5675 106.022 40.5675ZM106.095 32.6517C105.694 32.6517 105.312 32.7245 104.985 32.8883C104.639 33.0521 104.348 33.2704 104.111 33.5616C103.875 33.8527 103.674 34.1985 103.547 34.617C103.42 35.0174 103.347 35.4723 103.347 35.9818C103.347 36.4731 103.42 36.9281 103.547 37.3284C103.674 37.7287 103.856 38.0745 104.093 38.3656C104.329 38.6568 104.621 38.8751 104.948 39.0389C105.276 39.2027 105.64 39.2755 106.058 39.2755C106.477 39.2755 106.877 39.2027 107.205 39.0571C107.55 38.9115 107.841 38.6932 108.078 38.4202C108.315 38.1473 108.497 37.8015 108.624 37.383C108.751 36.9644 108.824 36.5095 108.824 36C108.824 35.4723 108.77 34.9992 108.642 34.5806C108.515 34.1621 108.333 33.8164 108.114 33.5252C107.878 33.234 107.605 33.0157 107.259 32.8701C106.895 32.7245 106.513 32.6517 106.095 32.6517Z" fill="white"/>
<path d="M111.39 35.3267H118.177C118.104 34.4896 117.795 33.8345 117.249 33.3432C116.703 32.8519 115.993 32.6153 115.156 32.6153C114.174 32.6153 113.337 32.8701 112.627 33.3614V31.9966C113.373 31.5599 114.265 31.3416 115.32 31.3416C116.703 31.3416 117.795 31.7419 118.577 32.5607C119.36 33.3614 119.76 34.4896 119.76 35.909C119.76 37.2556 119.36 38.3656 118.577 39.2573C117.795 40.1307 116.74 40.5856 115.429 40.5856C114.137 40.5856 113.137 40.1489 112.427 39.2573C111.717 38.3656 111.39 37.0554 111.39 35.3267ZM118.177 36.5641H112.991C113.009 37.4012 113.246 38.0745 113.682 38.5658C114.119 39.0571 114.72 39.3119 115.484 39.3119C116.248 39.3119 116.867 39.0571 117.358 38.5658C117.85 38.0745 118.104 37.4012 118.177 36.5641Z" fill="white"/>
<path d="M130.988 40.4219H129.514V34.6535C129.514 34.1803 129.551 33.598 129.605 32.9247H129.587C129.496 33.3069 129.423 33.598 129.351 33.7618L126.694 40.4401H125.675L123 33.8164C122.927 33.6162 122.854 33.3251 122.763 32.9247H122.745C122.781 33.2887 122.8 33.871 122.8 34.6717V40.4401H121.435V31.5054H123.527L125.875 37.4558C126.057 37.9107 126.166 38.2565 126.221 38.4748H126.257C126.403 38.0017 126.53 37.656 126.639 37.4376L129.023 31.5236H131.043V40.4219H130.988Z" fill="white"/>
<path d="M132.771 40.0761V38.5476C132.917 38.675 133.062 38.7841 133.262 38.8751C133.444 38.9661 133.644 39.0571 133.863 39.1299C134.081 39.2027 134.281 39.2573 134.5 39.2936C134.718 39.33 134.9 39.3482 135.082 39.3482C135.701 39.3482 136.174 39.2391 136.465 39.0389C136.756 38.8387 136.92 38.5294 136.92 38.129C136.92 37.9107 136.865 37.7287 136.774 37.5831C136.665 37.4193 136.538 37.292 136.356 37.1646C136.174 37.0372 135.955 36.9098 135.719 36.8007C135.464 36.6733 135.209 36.5641 134.918 36.4367C134.609 36.2729 134.336 36.1092 134.063 35.9454C133.808 35.7816 133.572 35.5997 133.39 35.3995C133.19 35.1993 133.044 34.9628 132.935 34.7262C132.826 34.4714 132.771 34.1803 132.771 33.8345C132.771 33.416 132.862 33.0521 133.062 32.7427C133.244 32.4334 133.499 32.1786 133.808 31.9784C134.118 31.7783 134.463 31.6327 134.864 31.5235C135.264 31.4325 135.664 31.3779 136.065 31.3779C136.993 31.3779 137.684 31.4871 138.103 31.6873V33.143C137.593 32.7791 136.938 32.5971 136.156 32.5971C135.937 32.5971 135.719 32.6153 135.501 32.6517C135.282 32.6881 135.082 32.7609 134.918 32.8519C134.754 32.9429 134.609 33.0703 134.5 33.2158C134.391 33.3614 134.336 33.5434 134.336 33.7618C134.336 33.9619 134.372 34.1257 134.463 34.2713C134.554 34.4168 134.663 34.5442 134.827 34.6716C134.991 34.799 135.191 34.9082 135.41 35.0173C135.646 35.1265 135.901 35.2539 136.21 35.3813C136.52 35.5451 136.811 35.7088 137.084 35.8908C137.357 36.0728 137.611 36.2729 137.812 36.4913C138.03 36.7097 138.194 36.9462 138.303 37.2192C138.43 37.4739 138.485 37.7833 138.485 38.1108C138.485 38.5658 138.394 38.9479 138.212 39.2573C138.03 39.5666 137.775 39.8214 137.466 40.0215C137.156 40.2217 136.793 40.3491 136.392 40.4401C135.992 40.5311 135.573 40.5674 135.118 40.5674C134.973 40.5674 134.791 40.5493 134.573 40.5311C134.354 40.5129 134.136 40.4765 133.899 40.4401C133.663 40.4037 133.462 40.3491 133.244 40.2763C133.062 40.2217 132.898 40.1489 132.771 40.0761Z" fill="white"/>
<path d="M147.456 40.4219H145.836L145.036 38.1473H141.524L140.759 40.4219H139.14L142.488 31.4872H144.162L147.456 40.4219ZM144.635 36.9463L143.398 33.3797C143.362 33.2705 143.325 33.0703 143.289 32.8156H143.271C143.234 33.0521 143.198 33.2341 143.143 33.3797L141.924 36.9463H144.635Z" fill="white"/>
<path d="M153.624 40.4219H148.675V31.4872H150.149V39.1663H153.606V40.4219H153.624Z" fill="white"/>
<path d="M159.157 30.6683C158.957 30.6683 158.775 30.5955 158.611 30.4681C158.466 30.3225 158.393 30.1587 158.393 29.9586C158.393 29.7584 158.466 29.5946 158.611 29.4491C158.757 29.3035 158.939 29.2489 159.157 29.2489C159.376 29.2489 159.558 29.3217 159.703 29.4491C159.849 29.5764 159.922 29.7584 159.922 29.9586C159.922 30.1587 159.849 30.3225 159.703 30.4681C159.539 30.6137 159.358 30.6683 159.157 30.6683ZM159.94 40.4219H158.411V31.4871H159.94V40.4219Z" fill="white"/>
<path d="M169.712 40.4219H168.092L163.834 33.8528C163.725 33.689 163.634 33.5071 163.561 33.3433H163.525C163.561 33.5253 163.579 33.9438 163.579 34.5625V40.4219H162.142V31.4872H163.87L167.983 37.8925C168.165 38.1655 168.274 38.3475 168.31 38.4385H168.329C168.292 38.2019 168.274 37.8016 168.274 37.2375V31.4872H169.693V40.4219H169.712Z" fill="white"/>
<path d="M178.664 40.4219H176.735L173.624 36.3458C173.514 36.2002 173.442 36.091 173.405 36.0364H173.387V40.4401H171.913V31.5054H173.387V35.7089H173.405C173.46 35.6179 173.533 35.5087 173.624 35.3995L176.626 31.5054H178.409L174.897 35.7817L178.664 40.4219Z" fill="white"/>
<path d="M180.429 30.6683C180.228 30.6683 180.046 30.5955 179.883 30.4681C179.737 30.3225 179.664 30.1587 179.664 29.9586C179.664 29.7584 179.737 29.5946 179.883 29.4491C180.028 29.3035 180.21 29.2489 180.429 29.2489C180.647 29.2489 180.829 29.3217 180.975 29.4491C181.12 29.5764 181.193 29.7584 181.193 29.9586C181.193 30.1587 181.12 30.3225 180.975 30.4681C180.829 30.6137 180.647 30.6683 180.429 30.6683ZM181.229 40.4219H179.701V31.4871H181.229V40.4219Z" fill="white"/>
<path d="M183.013 40.0761V38.5476C183.158 38.675 183.304 38.7841 183.504 38.8751C183.686 38.9661 183.886 39.0571 184.105 39.1299C184.323 39.2027 184.523 39.2573 184.741 39.2936C184.96 39.33 185.142 39.3482 185.324 39.3482C185.942 39.3482 186.416 39.2391 186.707 39.0389C186.998 38.8387 187.162 38.5294 187.162 38.129C187.162 37.9107 187.107 37.7287 187.016 37.5831C186.907 37.4193 186.779 37.292 186.598 37.1646C186.416 37.0372 186.197 36.9098 185.961 36.8007C185.706 36.6733 185.451 36.5641 185.16 36.4367C184.851 36.2729 184.578 36.1092 184.305 35.9454C184.05 35.7816 183.813 35.5997 183.631 35.3995C183.431 35.1993 183.286 34.9628 183.176 34.7262C183.067 34.4714 183.013 34.1803 183.013 33.8345C183.013 33.416 183.104 33.0521 183.304 32.7427C183.486 32.4334 183.741 32.1786 184.05 31.9784C184.359 31.7783 184.705 31.6327 185.105 31.5235C185.506 31.4325 185.906 31.3779 186.306 31.3779C187.234 31.3779 187.926 31.4871 188.344 31.6873V33.143C187.835 32.7791 187.18 32.5971 186.397 32.5971C186.179 32.5971 185.961 32.6153 185.742 32.6517C185.524 32.6881 185.324 32.7609 185.16 32.8519C184.996 32.9429 184.851 33.0703 184.741 33.2158C184.632 33.3614 184.578 33.5434 184.578 33.7618C184.578 33.9619 184.614 34.1257 184.705 34.2713C184.796 34.4168 184.905 34.5442 185.069 34.6716C185.233 34.799 185.433 34.9082 185.651 35.0173C185.888 35.1265 186.143 35.2539 186.452 35.3813C186.761 35.5451 187.052 35.7088 187.325 35.8908C187.598 36.0728 187.853 36.2729 188.053 36.4913C188.272 36.7097 188.435 36.9462 188.545 37.2192C188.672 37.4739 188.727 37.7833 188.727 38.1108C188.727 38.5658 188.636 38.9479 188.454 39.2573C188.272 39.5666 188.017 39.8214 187.708 40.0215C187.398 40.2217 187.034 40.3491 186.634 40.4401C186.234 40.5311 185.815 40.5674 185.36 40.5674C185.215 40.5674 185.033 40.5493 184.814 40.5311C184.596 40.5129 184.377 40.4765 184.141 40.4401C183.904 40.4037 183.704 40.3491 183.486 40.2763C183.304 40.2217 183.14 40.1489 183.013 40.0761ZM187.234 41.9686C187.234 42.7693 186.634 43.1696 185.433 43.1696C185.233 43.1696 185.069 43.1696 184.923 43.1514V42.4599C185.105 42.4781 185.251 42.4963 185.36 42.4963C185.906 42.4963 186.197 42.3326 186.197 41.9868C186.197 41.6775 185.942 41.5319 185.451 41.5319C185.415 41.5319 185.324 41.5319 185.215 41.5501V40.4219H186.07V41.0042C186.434 41.0042 186.725 41.0952 186.925 41.2589C187.125 41.4227 187.234 41.6593 187.234 41.9686Z" fill="white"/>
<path d="M197.698 40.4219H196.078L195.278 38.1473H191.748L190.983 40.4219H189.364L192.712 31.4872H194.386L197.698 40.4219ZM194.877 36.9463L193.64 33.3797C193.604 33.2705 193.567 33.0703 193.531 32.8156H193.513C193.476 33.0521 193.44 33.2341 193.385 33.3797L192.166 36.9463H194.877Z" fill="white"/>
<path d="M203.739 32.761H200.409V35.4359H203.485V36.6915H200.409V40.4219H198.935V31.4872H203.758V32.761H203.739Z" fill="white"/>
<path d="M215.822 31.5054L212.62 40.4401H210.964L207.816 31.5054H209.435L211.637 38.2747C211.71 38.493 211.764 38.7478 211.801 39.0208H211.819C211.855 38.7842 211.91 38.5294 212.001 38.2565L214.257 31.4872H215.822V31.5054Z" fill="white"/>
<path d="M216.423 35.3267H223.21C223.137 34.4896 222.828 33.8345 222.282 33.3432C221.736 32.8519 221.026 32.6153 220.189 32.6153C219.207 32.6153 218.37 32.8701 217.66 33.3614V31.9966C218.406 31.5599 219.298 31.3416 220.353 31.3416C221.736 31.3416 222.828 31.7419 223.61 32.5607C224.393 33.3614 224.793 34.4896 224.793 35.909C224.793 37.2556 224.393 38.3656 223.61 39.2573C222.828 40.1307 221.773 40.5856 220.462 40.5856C219.17 40.5856 218.17 40.1489 217.46 39.2573C216.75 38.3656 216.423 37.0554 216.423 35.3267ZM223.21 36.5641H218.024C218.042 37.4012 218.279 38.0745 218.715 38.5658C219.152 39.0571 219.753 39.3119 220.517 39.3119C221.281 39.3119 221.9 39.0571 222.391 38.5658C222.883 38.0745 223.137 37.4012 223.21 36.5641Z" fill="white"/>
<path d="M92.5553 56.7993H90.9358L86.6777 50.2301C86.5685 50.0663 86.4775 49.8844 86.4047 49.7206H86.3683C86.4047 49.9026 86.4229 50.3211 86.4229 50.9398V56.7993H84.9854V47.8645H86.7141L90.8266 54.2699C91.0086 54.5428 91.1178 54.7248 91.1542 54.8158H91.1724C91.136 54.5792 91.1178 54.1789 91.1178 53.6148V47.8645H92.5371V56.7993H92.5553Z" fill="white"/>
<path d="M94.1746 51.704H100.962C100.889 50.867 100.58 50.2119 100.034 49.7205C99.4881 49.2292 98.7784 48.9927 97.9414 48.9927C96.9587 48.9927 96.1216 49.2474 95.412 49.7387V48.374C96.158 47.9372 97.0497 47.7189 98.1051 47.7189C99.4881 47.7189 100.58 48.1192 101.362 48.9381C102.145 49.7387 102.545 50.867 102.545 52.2863C102.545 53.6329 102.145 54.7429 101.362 55.6346C100.58 56.5081 99.5245 56.963 98.2143 56.963C96.9223 56.963 95.9215 56.5262 95.2118 55.6346C94.5021 54.7429 94.1746 53.4328 94.1746 51.704ZM100.962 52.9414H95.7759C95.7941 53.7785 96.0307 54.4518 96.4674 54.9431C96.9041 55.4344 97.5046 55.6892 98.2689 55.6892C99.0332 55.6892 99.6519 55.4344 100.143 54.9431C100.635 54.4518 100.889 53.7785 100.962 52.9414Z" fill="white"/>
<path d="M107.86 56.9448C107.223 56.9448 106.641 56.8356 106.113 56.6172C105.585 56.3989 105.149 56.0895 104.766 55.6892C104.402 55.2888 104.111 54.8157 103.911 54.2698C103.711 53.7239 103.602 53.1052 103.602 52.4319C103.602 51.7222 103.711 51.0671 103.911 50.4848C104.111 49.9025 104.402 49.4112 104.785 48.9927C105.167 48.5741 105.622 48.2648 106.168 48.0464C106.714 47.828 107.314 47.7189 107.987 47.7189C108.606 47.7189 109.17 47.828 109.698 48.0464C110.207 48.2648 110.644 48.5741 111.026 48.9745C111.408 49.3748 111.681 49.8479 111.881 50.3938C112.082 50.9397 112.191 51.5584 112.191 52.2135C112.191 53.087 112.045 53.8695 111.754 54.5246C111.463 55.1797 111.044 55.7256 110.517 56.1259L113.101 58.0002H110.844L109.243 56.7628C109.025 56.8174 108.806 56.872 108.588 56.9084C108.351 56.9448 108.115 56.9448 107.86 56.9448ZM107.933 49.0291C107.532 49.0291 107.15 49.1018 106.823 49.2656C106.477 49.4294 106.186 49.6478 105.949 49.9389C105.713 50.2301 105.513 50.5758 105.385 50.9943C105.258 51.3947 105.185 51.8496 105.185 52.3591C105.185 52.8504 105.258 53.3054 105.385 53.7057C105.513 54.106 105.694 54.4518 105.931 54.7429C106.168 55.0341 106.459 55.2524 106.786 55.4162C107.114 55.58 107.478 55.6528 107.896 55.6528C108.315 55.6528 108.715 55.58 109.043 55.4344C109.388 55.2889 109.68 55.0705 109.916 54.7975C110.153 54.5246 110.335 54.1788 110.462 53.7603C110.589 53.3418 110.662 52.8868 110.662 52.3773C110.662 51.8496 110.608 51.3765 110.48 50.9579C110.353 50.5394 110.171 50.1937 109.953 49.9025C109.734 49.6114 109.443 49.393 109.097 49.2474C108.752 49.1019 108.351 49.0291 107.933 49.0291Z" fill="white"/>
<path d="M118.76 56.7993H113.81V47.8645H115.284V55.5437H118.741V56.7993H118.76Z" fill="white"/>
<path d="M120.798 47.0457C120.598 47.0457 120.416 46.9729 120.252 46.8455C120.106 46.7 120.033 46.5362 120.033 46.336C120.033 46.1359 120.106 45.9721 120.252 45.8265C120.397 45.6809 120.579 45.6263 120.798 45.6263C121.016 45.6263 121.198 45.6991 121.344 45.8265C121.489 45.9539 121.562 46.1359 121.562 46.336C121.562 46.5362 121.489 46.7 121.344 46.8455C121.18 46.9911 120.998 47.0457 120.798 47.0457ZM121.58 56.7993H120.052V47.8646H121.58V56.7993Z" fill="white"/>
<path d="M129.987 47.8827L127.057 53.5602V56.7993H125.583V53.5784L122.726 47.8645H124.418L126.165 51.6859C126.184 51.7405 126.256 51.9043 126.347 52.1954H126.365C126.402 52.068 126.475 51.8861 126.566 51.6859L128.404 47.8645H129.987V47.8827Z" fill="white"/>
<path d="M137.357 47.8827L134.427 53.5602V56.7993H132.953V53.5784L130.096 47.8645H131.789L133.535 51.6859C133.554 51.7405 133.626 51.9043 133.717 52.1954H133.736C133.772 52.068 133.845 51.8861 133.936 51.6859L135.774 47.8645H137.357V47.8827Z" fill="white"/>
<path d="M144.854 56.7993H143.235L142.434 54.5246H138.922L138.158 56.7993H136.538L139.887 47.8645H141.561L144.854 56.7993ZM142.034 53.3236L140.796 49.757C140.76 49.6478 140.724 49.4477 140.687 49.1929H140.669C140.633 49.4295 140.596 49.6114 140.542 49.757L139.322 53.3236H142.034Z" fill="white"/>
<path d="M150.895 49.1383H148.329V56.7992H146.855V49.1383H144.29V47.8827H150.895V49.1383Z" fill="white"/>
<path d="M163.287 56.7993H161.667L157.409 50.2301C157.3 50.0663 157.209 49.8844 157.136 49.7206H157.1C157.136 49.9026 157.155 50.3211 157.155 50.9398V56.7993H155.717V47.8645H157.446L161.558 54.2699C161.74 54.5428 161.849 54.7248 161.886 54.8158H161.904C161.868 54.5792 161.849 54.1789 161.849 53.6148V47.8645H163.269V56.7993H163.287Z" fill="white"/>
<path d="M172.822 56.7993H171.203L170.402 54.5246H166.89L166.126 56.7993H164.506L167.855 47.8645H169.529L172.822 56.7993ZM170.002 53.3236L168.764 49.757C168.728 49.6478 168.692 49.4477 168.655 49.1929H168.637C168.601 49.4295 168.564 49.6114 168.51 49.757L167.29 53.3236H170.002Z" fill="white"/>
<path d="M180.411 48.5196L175.516 55.5436H180.338V56.7992H173.441V56.1259L178.354 49.1383H173.823V47.8827H180.411V48.5196Z" fill="white"/>
<path d="M182.54 47.0457C182.34 47.0457 182.158 46.9729 181.994 46.8455C181.849 46.7 181.776 46.5362 181.776 46.336C181.776 46.1359 181.849 45.9721 181.994 45.8265C182.14 45.6809 182.322 45.6263 182.54 45.6263C182.759 45.6263 182.941 45.6991 183.086 45.8265C183.232 45.9539 183.304 46.1359 183.304 46.336C183.304 46.5362 183.232 46.7 183.086 46.8455C182.941 46.9911 182.759 47.0457 182.54 47.0457ZM183.323 56.7993H181.794V47.8646H183.323V56.7993Z" fill="white"/>
<path d="M192.421 56.7993H190.693L189.273 54.4154C189.146 54.1971 189.019 54.0151 188.891 53.8513C188.764 53.6876 188.636 53.5602 188.509 53.4692C188.382 53.3782 188.236 53.3054 188.091 53.2508C187.945 53.1963 187.781 53.1781 187.581 53.1781H186.981V56.7993H185.507V47.8645H188.436C188.855 47.8645 189.237 47.9191 189.601 48.0101C189.947 48.1011 190.256 48.2648 190.529 48.465C190.784 48.6652 191.002 48.9199 191.148 49.2111C191.293 49.5204 191.366 49.8662 191.366 50.2665C191.366 50.5759 191.311 50.867 191.22 51.14C191.129 51.3947 191.002 51.6313 190.82 51.8497C190.656 52.0498 190.438 52.2318 190.201 52.3774C189.965 52.523 189.692 52.6321 189.383 52.7049V52.7231C189.546 52.8141 189.692 52.9233 189.801 53.0325C189.928 53.1417 190.038 53.2508 190.147 53.3782C190.256 53.4874 190.365 53.633 190.474 53.7785C190.584 53.9241 190.693 54.1061 190.82 54.2881L192.421 56.7993ZM186.999 49.0837V51.9771H188.236C188.473 51.9771 188.673 51.9406 188.873 51.8679C189.073 51.7951 189.237 51.7041 189.383 51.5585C189.528 51.4311 189.637 51.2674 189.71 51.0672C189.783 50.8852 189.838 50.6669 189.838 50.4303C189.838 50.0118 189.71 49.666 189.437 49.4295C189.164 49.1929 188.782 49.0655 188.273 49.0655H186.999V49.0837Z" fill="white"/>
<path d="M198.409 56.7993H193.459V47.8645H194.933V55.5437H198.39V56.7993H198.409Z" fill="white"/>
<path d="M200.427 47.0457C200.227 47.0457 200.045 46.9729 199.881 46.8455C199.736 46.7 199.663 46.5362 199.663 46.336C199.663 46.1359 199.736 45.9721 199.881 45.8265C200.027 45.6809 200.209 45.6263 200.427 45.6263C200.646 45.6263 200.828 45.6991 200.973 45.8265C201.119 45.9539 201.192 46.1359 201.192 46.336C201.192 46.5362 201.119 46.7 200.973 46.8455C200.828 46.9911 200.646 47.0457 200.427 47.0457ZM201.21 56.7993H199.681V47.8646H201.21V56.7993Z" fill="white"/>
<path d="M209.635 47.8827L206.706 53.5602V56.7993H205.232V53.5784L202.375 47.8645H204.067L205.814 51.6859C205.832 51.7405 205.905 51.9043 205.996 52.1954H206.014C206.051 52.068 206.123 51.8861 206.214 51.6859L208.052 47.8645H209.635V47.8827Z" fill="white"/>
<path d="M211.509 47.0457C211.309 47.0457 211.127 46.9729 210.963 46.8455C210.818 46.7 210.745 46.5362 210.745 46.336C210.745 46.1359 210.818 45.9721 210.963 45.8265C211.109 45.6809 211.291 45.6263 211.509 45.6263C211.728 45.6263 211.91 45.6991 212.055 45.8265C212.201 45.9539 212.274 46.1359 212.274 46.336C212.274 46.5362 212.201 46.7 212.055 46.8455C211.892 46.9911 211.71 47.0457 211.509 47.0457ZM212.292 56.7993H210.763V47.8646H212.292V56.7993Z" fill="white"/>
<line x1="276.25" y1="4" x2="276.25" y2="67" stroke="white" stroke-width="0.5"/>
<path d="M308.258 15.8975L304.989 25H303.301L300.089 15.8975H301.739L303.986 22.8037C304.058 23.0238 304.113 23.2798 304.151 23.5718H304.177C304.206 23.3306 304.268 23.0703 304.361 22.791L306.659 15.8975H308.258ZM316.231 25H314.574L313.755 22.6831H310.175L309.388 25H307.738L311.146 15.8975H312.848L316.231 25ZM313.355 21.4517L312.092 17.8208C312.054 17.7023 312.014 17.5119 311.972 17.2495H311.946C311.908 17.4907 311.866 17.6812 311.819 17.8208L310.569 21.4517H313.355ZM324.8 25H323.283V21.0518H318.999V25H317.488V15.8975H318.999V19.7251H323.283V15.8975H324.8V25ZM328.596 25H327.041V15.8975H328.596V25ZM327.796 15.0596C327.585 15.0596 327.401 14.9897 327.244 14.8501C327.092 14.7062 327.016 14.5306 327.016 14.3232C327.016 14.1201 327.092 13.9487 327.244 13.8091C327.396 13.6694 327.581 13.5996 327.796 13.5996C328.012 13.5996 328.196 13.6694 328.349 13.8091C328.501 13.9445 328.577 14.1159 328.577 14.3232C328.577 14.5264 328.501 14.6999 328.349 14.8438C328.196 14.9876 328.012 15.0596 327.796 15.0596ZM330.843 25V15.8975H333.471C336.827 15.8975 338.505 17.3765 338.505 20.3345C338.505 21.7394 338.039 22.8693 337.108 23.7241C336.177 24.5747 334.929 25 333.363 25H330.843ZM332.348 17.1797V23.7241H333.554C334.616 23.7241 335.441 23.4321 336.029 22.8481C336.622 22.2642 336.918 21.439 336.918 20.3726C336.918 18.244 335.816 17.1797 333.611 17.1797H332.348ZM348.864 25H343.754V15.8975H348.661V17.1797H345.265V19.7568H348.395V21.0327H345.265V23.7241H348.864V25ZM355.523 25H350.483V15.8975H351.994V23.7241H355.523V25ZM361.953 25H356.843V15.8975H361.75V17.1797H358.354V19.7568H361.483V21.0327H358.354V23.7241H361.953V25ZM370.459 25H368.491L365.324 20.8359C365.205 20.6794 365.133 20.5736 365.108 20.5186H365.083V25H363.572V15.8975H365.083V20.1758H365.108C365.159 20.0827 365.231 19.979 365.324 19.8647L368.377 15.8975H370.186L366.612 20.2646L370.459 25ZM377.359 17.1797H374.744V25H373.233V17.1797H370.624V15.8975H377.359V17.1797ZM385.725 25H383.96L382.507 22.5625C382.376 22.3382 382.247 22.1478 382.12 21.9912C381.997 21.8304 381.87 21.6992 381.739 21.5977C381.612 21.4961 381.472 21.422 381.32 21.3755C381.167 21.3289 380.996 21.3057 380.806 21.3057H380.196V25H378.692V15.8975H381.688C382.115 15.8975 382.509 15.9482 382.869 16.0498C383.228 16.1514 383.542 16.3058 383.808 16.5132C384.075 16.7163 384.282 16.9723 384.43 17.2812C384.583 17.5859 384.659 17.9435 384.659 18.354C384.659 18.6756 384.61 18.9718 384.513 19.2427C384.42 19.5093 384.284 19.7484 384.106 19.96C383.933 20.1673 383.721 20.3451 383.472 20.4932C383.226 20.6413 382.949 20.7555 382.64 20.8359V20.8613C382.805 20.9544 382.949 21.0581 383.072 21.1724C383.194 21.2824 383.311 21.3966 383.421 21.5151C383.531 21.6336 383.639 21.769 383.745 21.9214C383.855 22.0695 383.975 22.243 384.106 22.4419L385.725 25ZM380.196 17.1226V20.0806H381.453C381.686 20.0806 381.9 20.0446 382.094 19.9727C382.293 19.9007 382.465 19.797 382.608 19.6616C382.752 19.5262 382.864 19.3612 382.945 19.1665C383.025 18.9718 383.065 18.7539 383.065 18.5127C383.065 18.0768 382.928 17.7362 382.653 17.4907C382.378 17.2453 381.982 17.1226 381.466 17.1226H380.196ZM390.416 25.1523C389.104 25.1523 388.053 24.7271 387.261 23.8765C386.474 23.0259 386.081 21.9193 386.081 20.5566C386.081 19.0924 386.483 17.9245 387.287 17.0527C388.091 16.181 389.182 15.7451 390.562 15.7451C391.84 15.7451 392.868 16.1683 393.647 17.0146C394.43 17.861 394.821 18.9676 394.821 20.3345C394.821 21.8198 394.421 22.9941 393.622 23.8574C392.822 24.7207 391.753 25.1523 390.416 25.1523ZM390.486 17.0718C389.652 17.0718 388.973 17.3828 388.448 18.0049C387.928 18.627 387.667 19.4458 387.667 20.4614C387.667 21.4728 387.921 22.2874 388.429 22.9053C388.937 23.5231 389.601 23.832 390.422 23.832C391.294 23.832 391.982 23.5379 392.485 22.9497C392.989 22.3615 393.241 21.5384 393.241 20.4805C393.241 19.3929 392.995 18.5529 392.504 17.9604C392.018 17.368 391.345 17.0718 390.486 17.0718ZM404.209 25H402.559L398.211 18.3096C398.101 18.1403 398.01 17.9647 397.938 17.7827H397.9C397.934 17.9774 397.951 18.3942 397.951 19.0332V25H396.491V15.8975H398.249L402.451 22.4292C402.629 22.7 402.743 22.8862 402.794 22.9878H402.819C402.777 22.7466 402.756 22.3382 402.756 21.7627V15.8975H404.209V25ZM307.928 41H306.119L304.253 37.6611C304.198 37.5596 304.137 37.4157 304.069 37.2295H304.043C304.005 37.3226 303.942 37.4665 303.853 37.6611L301.93 41H300.108L303.091 36.4233L300.349 31.8975H302.196L303.84 34.9697C303.946 35.1729 304.041 35.376 304.126 35.5791H304.145C304.268 35.3125 304.374 35.1009 304.462 34.9443L306.17 31.8975H307.871L305.065 36.4106L307.928 41ZM310.721 41H309.166V31.8975H310.721V41ZM309.921 31.0596C309.71 31.0596 309.526 30.9897 309.369 30.8501C309.217 30.7062 309.141 30.5306 309.141 30.3232C309.141 30.1201 309.217 29.9487 309.369 29.8091C309.521 29.6694 309.706 29.5996 309.921 29.5996C310.137 29.5996 310.321 29.6694 310.474 29.8091C310.626 29.9445 310.702 30.1159 310.702 30.3232C310.702 30.5264 310.626 30.6999 310.474 30.8438C310.321 30.9876 310.137 31.0596 309.921 31.0596ZM312.968 41V31.8975H315.596C318.952 31.8975 320.63 33.3765 320.63 36.3345C320.63 37.7394 320.164 38.8693 319.233 39.7241C318.302 40.5747 317.054 41 315.488 41H312.968ZM314.473 33.1797V39.7241H315.679C316.741 39.7241 317.566 39.4321 318.154 38.8481C318.747 38.2642 319.043 37.439 319.043 36.3726C319.043 34.244 317.941 33.1797 315.736 33.1797H314.473ZM332.075 41H330.577V35.1094C330.577 34.627 330.606 34.0366 330.666 33.3384H330.64C330.547 33.7362 330.465 34.0218 330.393 34.1953L327.676 41H326.635L323.912 34.2461C323.835 34.0472 323.755 33.7446 323.67 33.3384H323.645C323.679 33.7023 323.696 34.2969 323.696 35.1221V41H322.299V31.8975H324.426L326.819 37.9595C327.001 38.425 327.119 38.772 327.174 39.0005H327.206C327.363 38.5223 327.49 38.1668 327.587 37.9341L330.024 31.8975H332.075V41ZM333.719 35.8013H340.638C340.57 34.9465 340.255 34.2715 339.692 33.7764C339.133 33.2812 338.42 33.0337 337.553 33.0337C336.558 33.0337 335.701 33.2897 334.982 33.8018V32.4116C335.735 31.9673 336.649 31.7451 337.724 31.7451C339.133 31.7451 340.24 32.1577 341.044 32.9829C341.852 33.8081 342.256 34.9465 342.256 36.3979C342.256 37.7733 341.854 38.9095 341.05 39.8066C340.246 40.7038 339.178 41.1523 337.845 41.1523C336.524 41.1523 335.507 40.6995 334.792 39.7939C334.076 38.8883 333.719 37.5575 333.719 35.8013ZM340.638 37.0645H335.344C335.361 37.9193 335.593 38.6027 336.042 39.1147C336.495 39.6226 337.108 39.8765 337.883 39.8765C338.666 39.8765 339.3 39.6226 339.787 39.1147C340.278 38.6069 340.562 37.9235 340.638 37.0645ZM349.759 33.1797H347.144V41H345.633V33.1797H343.024V31.8975H349.759V33.1797ZM356.132 41H351.092V31.8975H352.603V39.7241H356.132V41ZM356.85 35.8013H363.769C363.701 34.9465 363.386 34.2715 362.823 33.7764C362.264 33.2812 361.551 33.0337 360.684 33.0337C359.689 33.0337 358.832 33.2897 358.113 33.8018V32.4116C358.866 31.9673 359.78 31.7451 360.855 31.7451C362.264 31.7451 363.371 32.1577 364.175 32.9829C364.983 33.8081 365.387 34.9465 365.387 36.3979C365.387 37.7733 364.985 38.9095 364.181 39.8066C363.377 40.7038 362.309 41.1523 360.976 41.1523C359.655 41.1523 358.638 40.6995 357.922 39.7939C357.207 38.8883 356.85 37.5575 356.85 35.8013ZM363.769 37.0645H358.475C358.492 37.9193 358.724 38.6027 359.173 39.1147C359.626 39.6226 360.239 39.8765 361.014 39.8765C361.797 39.8765 362.431 39.6226 362.918 39.1147C363.409 38.6069 363.692 37.9235 363.769 37.0645ZM374.083 41H372.319L370.865 38.5625C370.734 38.3382 370.605 38.1478 370.478 37.9912C370.355 37.8304 370.228 37.6992 370.097 37.5977C369.97 37.4961 369.831 37.422 369.678 37.3755C369.526 37.3289 369.354 37.3057 369.164 37.3057H368.555V41H367.05V31.8975H370.046C370.474 31.8975 370.867 31.9482 371.227 32.0498C371.587 32.1514 371.9 32.3058 372.167 32.5132C372.433 32.7163 372.64 32.9723 372.789 33.2812C372.941 33.5859 373.017 33.9435 373.017 34.354C373.017 34.6756 372.968 34.9718 372.871 35.2427C372.778 35.5093 372.643 35.7484 372.465 35.96C372.291 36.1673 372.08 36.3451 371.83 36.4932C371.585 36.6413 371.307 36.7555 370.999 36.8359V36.8613C371.164 36.9544 371.307 37.0581 371.43 37.1724C371.553 37.2824 371.669 37.3966 371.779 37.5151C371.889 37.6336 371.997 37.769 372.103 37.9214C372.213 38.0695 372.334 38.243 372.465 38.4419L374.083 41ZM368.555 33.1226V36.0806H369.812C370.044 36.0806 370.258 36.0446 370.453 35.9727C370.652 35.9007 370.823 35.797 370.967 35.6616C371.111 35.5262 371.223 35.3612 371.303 35.1665C371.384 34.9718 371.424 34.7539 371.424 34.5127C371.424 34.0768 371.286 33.7362 371.011 33.4907C370.736 33.2453 370.34 33.1226 369.824 33.1226H368.555ZM302.628 53.6992V57H301.124V47.8975H303.885C304.93 47.8975 305.74 48.1408 306.316 48.6274C306.891 49.1141 307.179 49.7996 307.179 50.6841C307.179 51.5685 306.879 52.2922 306.278 52.855C305.677 53.4178 304.864 53.6992 303.84 53.6992H302.628ZM302.628 49.1416V52.4678H303.605C304.253 52.4678 304.746 52.3175 305.084 52.0171C305.423 51.7166 305.592 51.2935 305.592 50.7476C305.592 49.6769 304.97 49.1416 303.726 49.1416H302.628ZM312.479 57.1523C311.168 57.1523 310.116 56.7271 309.325 55.8765C308.538 55.0259 308.144 53.9193 308.144 52.5566C308.144 51.0924 308.546 49.9245 309.35 49.0527C310.154 48.181 311.246 47.7451 312.625 47.7451C313.903 47.7451 314.932 48.1683 315.71 49.0146C316.493 49.861 316.885 50.9676 316.885 52.3345C316.885 53.8198 316.485 54.9941 315.685 55.8574C314.885 56.7207 313.817 57.1523 312.479 57.1523ZM312.549 49.0718C311.716 49.0718 311.036 49.3828 310.512 50.0049C309.991 50.627 309.731 51.4458 309.731 52.4614C309.731 53.4728 309.985 54.2874 310.493 54.9053C311 55.5231 311.665 55.832 312.486 55.832C313.358 55.832 314.045 55.5379 314.549 54.9497C315.052 54.3615 315.304 53.5384 315.304 52.4805C315.304 51.3929 315.059 50.5529 314.568 49.9604C314.081 49.368 313.408 49.0718 312.549 49.0718ZM325.587 57H323.823L322.369 54.5625C322.238 54.3382 322.109 54.1478 321.982 53.9912C321.859 53.8304 321.732 53.6992 321.601 53.5977C321.474 53.4961 321.334 53.422 321.182 53.3755C321.03 53.3289 320.858 53.3057 320.668 53.3057H320.059V57H318.554V47.8975H321.55C321.978 47.8975 322.371 47.9482 322.731 48.0498C323.091 48.1514 323.404 48.3058 323.67 48.5132C323.937 48.7163 324.144 48.9723 324.292 49.2812C324.445 49.5859 324.521 49.9435 324.521 50.354C324.521 50.6756 324.472 50.9718 324.375 51.2427C324.282 51.5093 324.146 51.7484 323.969 51.96C323.795 52.1673 323.584 52.3451 323.334 52.4932C323.089 52.6413 322.811 52.7555 322.502 52.8359V52.8613C322.667 52.9544 322.811 53.0581 322.934 53.1724C323.057 53.2824 323.173 53.3966 323.283 53.5151C323.393 53.6336 323.501 53.769 323.607 53.9214C323.717 54.0695 323.838 54.243 323.969 54.4419L325.587 57ZM320.059 49.1226V52.0806H321.315C321.548 52.0806 321.762 52.0446 321.957 51.9727C322.155 51.9007 322.327 51.797 322.471 51.6616C322.615 51.5262 322.727 51.3612 322.807 51.1665C322.888 50.9718 322.928 50.7539 322.928 50.5127C322.928 50.0768 322.79 49.7362 322.515 49.4907C322.24 49.2453 321.844 49.1226 321.328 49.1226H320.059ZM332.189 49.1797H329.574V57H328.063V49.1797H325.454V47.8975H332.189V49.1797ZM340.047 57H338.391L337.572 54.6831H333.992L333.205 57H331.554L334.963 47.8975H336.664L340.047 57ZM337.172 53.4517L335.909 49.8208C335.871 49.7023 335.83 49.5119 335.788 49.2495H335.763C335.725 49.4907 335.682 49.6812 335.636 49.8208L334.385 53.4517H337.172ZM346.344 57H341.304V47.8975H342.815V55.7241H346.344V57ZM349.213 57H347.658V47.8975H349.213V57Z" fill="white"/>
</svg>
