<svg width="465" height="377" viewBox="0 0 465 377" fill="none" xmlns="http://www.w3.org/2000/svg">
<g clip-path="url(#clip0_3086_17401)">
<path d="M366 293.1C365.9 292.9 365.7 292.8 365.5 292.8C365.3 292.8 365.1 292.8 364.9 292.9L362.4 294.4L360.9 291.9C360.8 291.7 360.6 291.6 360.4 291.6C360.2 291.6 360 291.6 359.8 291.7C359.6 291.8 359.5 292 359.5 292.2C359.5 292.4 359.5 292.6 359.6 292.8L361.1 295.3L358.6 296.8C358.4 296.9 358.3 297.1 358.3 297.3C358.3 297.5 358.3 297.7 358.4 297.9C358.5 298.1 358.7 298.2 358.9 298.2C359.1 298.2 359.3 298.2 359.5 298.1L362 296.6L363.5 299.1C363.7 299.4 364 299.5 364.3 299.4C364.4 299.4 364.5 299.4 364.5 299.3C364.9 299.1 365 298.6 364.8 298.3L363.3 295.8L365.8 294.3C366.1 293.9 366.2 293.5 366 293.1Z" fill="#DEDEDE"/>
<path d="M372.3 309.4C370.5 309.4 369.1 308 369.1 306.2C369.1 304.4 370.5 303 372.3 303C374.1 303 375.5 304.4 375.5 306.2C375.5 307.9 374.1 309.4 372.3 309.4ZM372.3 304.7C371.5 304.7 370.8 305.4 370.8 306.2C370.8 307 371.5 307.7 372.3 307.7C373.1 307.7 373.8 307 373.8 306.2C373.8 305.4 373.1 304.7 372.3 304.7Z" fill="#DEDEDE"/>
<path d="M46 356.8C44.2 356.8 42.8 355.4 42.8 353.6C42.8 351.8 44.2 350.4 46 350.4C47.8 350.4 49.2 351.8 49.2 353.6C49.2 355.4 47.8 356.8 46 356.8ZM46 352.1C45.2 352.1 44.5 352.8 44.5 353.6C44.5 354.4 45.2 355.1 46 355.1C46.8 355.1 47.5 354.4 47.5 353.6C47.5 352.7 46.8 352.1 46 352.1Z" fill="#DEDEDE"/>
<path d="M403.7 9.4C401.9 9.4 400.5 8 400.5 6.2C400.5 4.4 401.9 3 403.7 3C405.5 3 406.9 4.4 406.9 6.2C407 8 405.5 9.4 403.7 9.4ZM403.7 4.7C402.9 4.7 402.2 5.4 402.2 6.2C402.2 7 402.9 7.7 403.7 7.7C404.5 7.7 405.2 7 405.2 6.2C405.2 5.4 404.6 4.7 403.7 4.7Z" fill="#DEDEDE"/>
<path d="M459 91.2C458.8 91.3 458.7 91.4 458.6 91.6C458.5 91.8 458.5 92 458.6 92.2L459.9 94.8L457.3 96.1C457.1 96.2 457 96.3 456.9 96.5C456.8 96.7 456.8 96.9 456.9 97.1C457 97.3 457.1 97.4 457.3 97.5C457.5 97.6 457.7 97.6 457.9 97.5L460.5 96.2L461.8 98.8C461.9 99 462 99.1 462.2 99.2C462.4 99.3 462.6 99.3 462.8 99.2C463 99.1 463.1 99 463.2 98.8C463.3 98.6 463.3 98.4 463.2 98.2L461.9 95.6L464.5 94.3C464.8 94.2 464.9 93.9 464.9 93.5C464.9 93.4 464.9 93.3 464.8 93.3C464.6 92.9 464.2 92.8 463.8 93L461.2 94.3L459.9 91.7C459.8 91.2 459.4 91.1 459 91.2Z" fill="#DEDEDE"/>
<path d="M412.4 152.7C410.6 152.7 409.2 151.3 409.2 149.5C409.2 147.7 410.6 146.3 412.4 146.3C414.2 146.3 415.6 147.7 415.6 149.5C415.6 151.3 414.1 152.7 412.4 152.7ZM412.4 148C411.6 148 410.9 148.7 410.9 149.5C410.9 150.3 411.6 151 412.4 151C413.2 151 413.9 150.3 413.9 149.5C413.9 148.7 413.2 148 412.4 148Z" fill="#DEDEDE"/>
<path d="M0.4 197.8C0.3 197.9 0.2 198.1 0.2 198.3C0.2 198.5 0.3 198.7 0.4 198.8L2.4 200.9L0.3 202.9C0.1 203 0 203.2 0 203.4C0 203.6 0.1 203.8 0.2 203.9C0.3 204 0.5 204.1 0.7 204.1C0.9 204.1 1.1 204 1.2 203.9L3.3 201.9L5.3 204C5.4 204.1 5.6 204.2 5.8 204.2C6 204.2 6.2 204.1 6.3 204C6.4 203.9 6.5 203.7 6.5 203.5C6.5 203.3 6.4 203.1 6.3 203L4.3 200.9L6.4 198.9C6.6 198.7 6.7 198.3 6.6 198.1C6.6 198 6.5 198 6.5 197.9C6.2 197.6 5.8 197.6 5.5 197.9L3.4 199.9L1.4 197.8C1.2 197.5 0.7 197.5 0.4 197.8Z" fill="#DEDEDE"/>
<path d="M32.2 233.3C30.4 233.3 29 231.9 29 230.1C29 228.3 30.4 226.9 32.2 226.9C34 226.9 35.4 228.3 35.4 230.1C35.5 231.8 34 233.3 32.2 233.3ZM32.2 228.5C31.4 228.5 30.7 229.2 30.7 230C30.7 230.8 31.4 231.5 32.2 231.5C33 231.5 33.7 230.8 33.7 230C33.7 229.2 33.1 228.5 32.2 228.5Z" fill="#DEDEDE"/>
<path d="M87.8 334.8C87.5 334.8 87.2 334.5 87.1 334.2C87.1 333.8 87.4 333.5 87.7 333.5C89.9 333.4 92.1 333.2 94.2 332.9C94.6 332.8 94.9 333.1 94.9 333.5C95 333.9 94.7 334.2 94.3 334.2C92.3 334.5 90.1 334.7 87.8 334.8C87.9 334.8 87.9 334.8 87.8 334.8ZM78.6 334.8C76.3 334.7 74.1 334.4 71.9 334.1C71.5 334 71.3 333.7 71.3 333.4C71.4 333 71.7 332.8 72 332.8C74.2 333.1 76.3 333.4 78.5 333.5C78.9 333.5 79.1 333.8 79.1 334.2C79.2 334.5 78.9 334.8 78.6 334.8ZM103.5 332.3C103.2 332.3 102.9 332.1 102.9 331.8C102.8 331.4 103 331.1 103.4 331C105.5 330.4 107.6 329.8 109.7 329.1C110 329 110.4 329.2 110.5 329.5C110.6 329.8 110.4 330.2 110.1 330.3C108 331 105.9 331.7 103.7 332.3C103.6 332.3 103.5 332.3 103.5 332.3ZM63 332.2C62.9 332.2 62.9 332.2 62.8 332.2C60.7 331.6 58.5 330.9 56.5 330.2C56.2 330.1 56 329.7 56.1 329.4C56.2 329.1 56.6 328.9 56.9 329C58.9 329.7 61 330.4 63.1 331C63.5 331.1 63.7 331.5 63.6 331.8C63.5 332 63.3 332.2 63 332.2ZM118.3 326.8C118.1 326.8 117.8 326.7 117.7 326.4C117.5 326.1 117.7 325.7 118 325.5C119.9 324.5 121.9 323.5 123.7 322.3C124 322.1 124.4 322.2 124.6 322.5C124.8 322.8 124.7 323.2 124.4 323.4C122.5 324.5 120.5 325.6 118.6 326.6C118.5 326.8 118.4 326.8 118.3 326.8ZM48.2 326.5C48.1 326.5 48 326.5 47.9 326.4C45.9 325.4 44 324.3 42.1 323.1C41.8 322.9 41.7 322.5 41.9 322.2C42.1 321.9 42.5 321.8 42.8 322C44.7 323.1 46.6 324.2 48.5 325.2C48.8 325.4 49 325.8 48.8 326.1C48.7 326.4 48.4 326.5 48.2 326.5ZM131.7 318.4C131.5 318.4 131.3 318.3 131.2 318.1C131 317.8 131 317.4 131.3 317.2C133 315.9 134.7 314.4 136.3 312.9C136.6 312.7 137 312.7 137.2 312.9C137.4 313.2 137.4 313.6 137.2 313.8C135.6 315.3 133.9 316.8 132.1 318.1C132 318.3 131.9 318.4 131.7 318.4ZM34.9 317.9C34.8 317.9 34.6 317.9 34.5 317.8C32.8 316.4 31.1 315 29.5 313.4C29.2 313.2 29.2 312.7 29.5 312.5C29.7 312.2 30.2 312.2 30.4 312.5C32 314 33.7 315.4 35.4 316.8C35.7 317 35.7 317.4 35.5 317.7C35.3 317.9 35.1 317.9 34.9 317.9ZM143.1 307.4C142.9 307.4 142.8 307.3 142.7 307.2C142.4 307 142.4 306.5 142.6 306.3C144 304.6 145.4 302.9 146.6 301.1C146.8 300.8 147.2 300.7 147.5 300.9C147.8 301.1 147.9 301.5 147.7 301.8C146.4 303.6 145 305.4 143.6 307.1C143.5 307.3 143.3 307.4 143.1 307.4ZM23.5 306.9C23.3 306.9 23.1 306.8 23 306.7C21.6 305 20.2 303.2 18.9 301.4C18.7 301.1 18.8 300.7 19.1 300.5C19.4 300.3 19.8 300.4 20 300.7C21.3 302.5 22.6 304.2 24 305.9C24.2 306.2 24.2 306.6 23.9 306.8C23.8 306.9 23.7 306.9 23.5 306.9ZM152.1 294.4C152 294.4 151.9 294.4 151.8 294.3C151.5 294.1 151.4 293.7 151.5 293.4C152.5 291.5 153.5 289.5 154.4 287.5C154.5 287.2 154.9 287 155.3 287.2C155.6 287.3 155.8 287.7 155.6 288.1C154.7 290.1 153.7 292.1 152.6 294.1C152.6 294.2 152.4 294.4 152.1 294.4ZM14.6 293.8C14.4 293.8 14.1 293.7 14 293.5C13 291.6 12 289.5 11.1 287.5C11 287.2 11.1 286.8 11.4 286.6C11.7 286.5 12.1 286.6 12.3 286.9C13.2 288.9 14.1 290.9 15.2 292.8C15.4 293.1 15.3 293.5 14.9 293.7C14.8 293.8 14.7 293.8 14.6 293.8ZM158.3 279.8C158.2 279.8 158.2 279.8 158.1 279.8C157.8 279.7 157.6 279.3 157.7 279C158.3 276.9 158.9 274.8 159.4 272.7C159.5 272.3 159.8 272.1 160.2 272.2C160.6 272.3 160.8 272.6 160.7 273C160.2 275.2 159.7 277.3 159 279.4C158.9 279.6 158.6 279.8 158.3 279.8ZM8.60001 279.2C8.30001 279.2 8.10001 279 8.00001 278.7C7.40001 276.6 6.80001 274.4 6.40001 272.2C6.30001 271.8 6.60001 271.5 6.90001 271.4C7.30001 271.3 7.60001 271.6 7.70001 271.9C8.10001 274 8.70001 276.2 9.30001 278.2C9.40001 278.5 9.20001 278.9 8.90001 279C8.70001 279.2 8.60001 279.2 8.60001 279.2ZM161.5 264.3C161.4 264.3 161.4 264.3 161.5 264.3C161.1 264.3 160.8 263.9 160.8 263.6C161 261.4 161.1 259.2 161.2 257.1C161.2 256.7 161.5 256.4 161.9 256.5C162.3 256.5 162.6 256.8 162.5 257.2C162.5 259.4 162.4 261.7 162.1 263.9C162.1 264 161.8 264.3 161.5 264.3ZM5.60001 263.6C5.30001 263.6 5.00001 263.3 4.90001 263C4.70001 260.8 4.60001 258.6 4.60001 256.3C4.60001 255.9 4.90001 255.6 5.30001 255.6C5.70001 255.6 6.00001 255.9 6.00001 256.3C6.00001 258.5 6.10001 260.7 6.30001 262.8C6.30001 263.3 6.00001 263.6 5.60001 263.6ZM161.4 248.4C161.1 248.4 160.8 248.1 160.7 247.8C160.5 245.6 160.1 243.5 159.7 241.3V241.2C159.6 240.8 159.9 240.5 160.2 240.4C160.6 240.3 160.9 240.6 161 240.9V241C161.4 243.2 161.7 245.4 162 247.6C162.1 248.1 161.8 248.4 161.4 248.4ZM5.80001 247.8C5.70001 247.8 5.70001 247.8 5.80001 247.8C5.40001 247.8 5.10001 247.4 5.10001 247.1C5.40001 244.9 5.70001 242.7 6.10001 240.5C6.20001 240.1 6.50001 239.9 6.90001 240C7.30001 240.1 7.50001 240.4 7.40001 240.8C7.00001 242.9 6.60001 245.1 6.40001 247.3C6.40001 247.5 6.10001 247.8 5.80001 247.8ZM158.1 232.8C157.8 232.8 157.6 232.6 157.5 232.3C156.8 230.2 156.1 228.2 155.3 226.1C155.2 225.8 155.3 225.4 155.7 225.2C156 225.1 156.4 225.2 156.6 225.6C157.4 227.6 158.2 229.7 158.9 231.9C159 232.2 158.8 232.6 158.5 232.7C158.2 232.8 158.2 232.8 158.1 232.8ZM9.10001 232.3C9.00001 232.3 9.00001 232.3 8.90001 232.3C8.60001 232.2 8.40001 231.8 8.50001 231.5C9.20001 229.4 10 227.3 10.8 225.3C10.9 225 11.3 224.8 11.7 225C12 225.1 12.2 225.5 12 225.9C11.1 227.9 10.4 230 9.70001 232C9.70001 232.1 9.40001 232.3 9.10001 232.3ZM151.8 218.3C151.6 218.3 151.3 218.2 151.2 218C150.1 216.1 149 214.2 147.8 212.4C147.6 212.1 147.7 211.7 148 211.5C148.3 211.3 148.7 211.4 148.9 211.7C150.1 213.5 151.3 215.4 152.4 217.4C152.6 217.7 152.5 218.1 152.1 218.3C152 218.3 151.9 218.3 151.8 218.3ZM15.6 217.8C15.5 217.8 15.4 217.8 15.3 217.7C15 217.5 14.9 217.1 15.1 216.8C16.2 214.9 17.4 213 18.6 211.2C18.8 210.9 19.2 210.8 19.5 211C19.8 211.2 19.9 211.6 19.7 211.9C18.5 213.7 17.3 215.6 16.2 217.4C16 217.7 15.8 217.8 15.6 217.8ZM142.7 205.4C142.5 205.4 142.3 205.3 142.2 205.2C140.8 203.6 139.3 202 137.7 200.4C137.4 200.1 137.4 199.7 137.7 199.5C138 199.2 138.4 199.2 138.6 199.5C140.2 201 141.7 202.7 143.2 204.3C143.4 204.6 143.4 205 143.1 205.2C143 205.3 142.8 205.4 142.7 205.4ZM24.8 204.9C24.6 204.9 24.5 204.8 24.4 204.7C24.1 204.5 24.1 204 24.3 203.8C25.8 202.1 27.3 200.5 28.9 199C29.2 198.7 29.6 198.8 29.8 199C30.1 199.3 30 199.7 29.8 199.9C28.2 201.4 26.7 203 25.3 204.6C25.2 204.9 25 204.9 24.8 204.9ZM131.2 194.5C131.1 194.5 130.9 194.5 130.8 194.4C129.1 193.1 127.3 191.8 125.4 190.6C125.1 190.4 125 190 125.2 189.7C125.4 189.4 125.8 189.3 126.1 189.5C128 190.7 129.8 192 131.6 193.3C131.9 193.5 131.9 193.9 131.7 194.2C131.6 194.4 131.4 194.5 131.2 194.5ZM36.4 194.2C36.2 194.2 36 194.1 35.9 193.9C35.7 193.6 35.7 193.2 36 193C37.8 191.7 39.6 190.4 41.5 189.2C41.8 189 42.2 189.1 42.4 189.4C42.6 189.7 42.5 190.1 42.2 190.3C40.4 191.5 38.5 192.7 36.8 194C36.7 194.1 36.5 194.2 36.4 194.2ZM117.7 186.2C117.6 186.2 117.5 186.2 117.4 186.1C115.4 185.1 113.4 184.3 111.4 183.5C111.1 183.4 110.9 183 111 182.7C111.1 182.4 111.5 182.2 111.8 182.3C113.9 183.1 115.9 184 117.9 185C118.2 185.2 118.4 185.6 118.2 185.9C118.2 186.1 117.9 186.2 117.7 186.2ZM49.9 186C49.7 186 49.4 185.9 49.3 185.6C49.1 185.3 49.3 184.9 49.6 184.7C51.6 183.8 53.7 182.9 55.7 182.1C56 182 56.4 182.1 56.5 182.5C56.6 182.8 56.5 183.2 56.1 183.3C54.1 184.1 52 184.9 50.1 185.9C50.1 185.9 50 186 49.9 186ZM102.8 180.8C102.7 180.8 102.7 180.8 102.6 180.8C100.5 180.3 98.3 179.8 96.2 179.5C95.8 179.4 95.6 179.1 95.7 178.7C95.8 178.3 96.1 178.1 96.5 178.2C98.7 178.6 100.9 179 103 179.6C103.4 179.7 103.6 180 103.5 180.4C103.4 180.6 103.1 180.8 102.8 180.8ZM64.8 180.7C64.5 180.7 64.2 180.5 64.2 180.2C64.1 179.8 64.3 179.5 64.7 179.4C66 179.1 67.3 178.8 68.7 178.5C69.5 178.3 70.4 178.2 71.3 178.1C71.7 178 72 178.3 72.1 178.6C72.2 179 71.9 179.3 71.6 179.4C70.8 179.5 69.9 179.7 69.1 179.8C67.8 180.1 66.5 180.3 65.2 180.7C64.9 180.6 64.9 180.7 64.8 180.7ZM87.1 178.5C85.9 178.4 84.8 178.4 83.6 178.4C82.6 178.4 81.5 178.4 80.5 178.5C80.1 178.5 79.8 178.2 79.8 177.9C79.8 177.5 80.1 177.2 80.4 177.2C81.4 177.2 82.5 177.1 83.5 177.1C84.7 177.1 85.9 177.1 87 177.2C87.4 177.2 87.6 177.5 87.6 177.9C87.8 178.2 87.5 178.5 87.1 178.5Z" fill="#DEDEDE"/>
<path d="M324.2 275.1C323.8 275.1 323.4 275.1 323.1 275.2C322.7 275.2 322.4 274.9 322.4 274.6C322.4 274.2 322.7 273.9 323 273.9C325.1 273.8 327.3 273.6 329.5 273.4C329.9 273.4 330.2 273.6 330.2 274C330.2 274.4 330 274.7 329.6 274.7C327.8 274.8 326 275 324.2 275.1ZM313.9 275.4C311.7 275.4 309.5 275.3 307.3 275.2C306.9 275.2 306.7 274.9 306.7 274.5C306.7 274.1 307 273.9 307.4 273.9C309.5 274 311.7 274.1 313.9 274.1C314.3 274.1 314.6 274.4 314.6 274.8C314.5 275.1 314.3 275.4 313.9 275.4ZM338.6 273.4C338.3 273.4 338 273.2 337.9 272.9C337.8 272.5 338.1 272.2 338.4 272.1C340.5 271.7 342.7 271.3 344.8 270.9C345.2 270.8 345.5 271 345.6 271.4C345.7 271.8 345.5 272.1 345.1 272.2C343 272.6 340.8 273 338.6 273.4ZM298.3 274.3H298.2C296 274 293.9 273.7 291.7 273.3C291.3 273.2 291.1 272.9 291.2 272.5C291.3 272.1 291.6 271.9 292 272C294.1 272.4 296.3 272.7 298.4 273C298.8 273 299 273.4 299 273.7C298.9 274.1 298.6 274.3 298.3 274.3ZM353.8 269.9C353.5 269.9 353.2 269.7 353.1 269.4C353 269.1 353.2 268.7 353.5 268.6C355.6 268 357.6 267.3 359.7 266.6C360 266.5 360.4 266.7 360.5 267C360.6 267.3 360.4 267.7 360.1 267.8C358 268.5 355.9 269.2 353.9 269.8C353.9 269.9 353.9 269.9 353.8 269.9ZM282.9 271.5C282.8 271.5 282.8 271.5 282.7 271.5C280.6 271 278.5 270.4 276.4 269.8C276.1 269.7 275.9 269.3 276 269C276.1 268.7 276.5 268.5 276.8 268.6C278.9 269.2 281 269.8 283.1 270.3C283.5 270.4 283.7 270.7 283.6 271.1C283.4 271.3 283.2 271.5 282.9 271.5ZM368.6 264.7C368.3 264.7 368.1 264.6 368 264.3C367.9 264 368 263.6 368.4 263.4C370.4 262.6 372.4 261.7 374.3 260.7C374.6 260.5 375 260.7 375.2 261C375.4 261.3 375.2 261.7 374.9 261.9C372.9 262.8 370.9 263.7 368.9 264.6C368.7 264.7 368.6 264.7 368.6 264.7ZM267.9 266.9C267.8 266.9 267.7 266.9 267.6 266.9C265.6 266.1 263.5 265.3 261.5 264.5C261.2 264.4 261 264 261.2 263.6C261.3 263.3 261.7 263.1 262.1 263.3C264.1 264.1 266.1 265 268.1 265.7C268.4 265.8 268.6 266.2 268.5 266.5C268.4 266.7 268.2 266.9 267.9 266.9ZM382.6 257.8C382.4 257.8 382.1 257.7 382 257.5C381.8 257.2 381.9 256.8 382.3 256.6C384.2 255.5 386 254.4 387.9 253.3C388.2 253.1 388.6 253.2 388.8 253.5C389 253.8 388.9 254.2 388.6 254.4C386.8 255.6 384.9 256.7 383 257.7C382.8 257.8 382.7 257.8 382.6 257.8ZM253.6 260.6C253.5 260.6 253.4 260.6 253.3 260.5C251.4 259.5 249.4 258.5 247.5 257.4C247.2 257.2 247.1 256.8 247.3 256.5C247.5 256.2 247.9 256.1 248.2 256.3C250.1 257.4 252 258.4 253.9 259.4C254.2 259.6 254.4 260 254.2 260.3C254 260.5 253.8 260.6 253.6 260.6ZM395.8 249.4C395.6 249.4 395.4 249.3 395.2 249.1C395 248.8 395.1 248.4 395.3 248.2C397 246.9 398.8 245.6 400.5 244.3C400.8 244.1 401.2 244.1 401.4 244.4C401.6 244.7 401.6 245.1 401.3 245.3C399.6 246.7 397.9 248 396.1 249.3C396 249.3 395.9 249.4 395.8 249.4ZM240.1 252.8C240 252.8 239.8 252.8 239.7 252.7C237.9 251.5 236.1 250.2 234.3 249C234 248.8 233.9 248.4 234.2 248.1C234.4 247.8 234.8 247.7 235.1 248C236.8 249.3 238.6 250.5 240.4 251.7C240.7 251.9 240.8 252.3 240.6 252.6C240.5 252.6 240.3 252.7 240.1 252.8ZM407.9 239.5C407.7 239.5 407.5 239.4 407.4 239.3C407.2 239 407.2 238.6 407.4 238.4C409 236.9 410.6 235.4 412.1 233.9C412.4 233.6 412.8 233.6 413 233.9C413.3 234.2 413.3 234.6 413 234.8C411.5 236.3 409.9 237.9 408.3 239.3C408.2 239.4 408 239.5 407.9 239.5ZM227.5 243.4C227.3 243.4 227.2 243.4 227 243.2C225.3 241.8 223.7 240.4 222.1 238.9C221.8 238.7 221.8 238.2 222.1 238C222.3 237.7 222.8 237.7 223 238C224.6 239.5 226.2 240.9 227.9 242.3C228.2 242.5 228.2 242.9 228 243.2C227.9 243.3 227.7 243.4 227.5 243.4ZM418.8 228.3C418.6 228.3 418.5 228.3 418.3 228.1C418 227.9 418 227.4 418.2 227.2C419.6 225.6 421 223.9 422.3 222.2C422.5 221.9 422.9 221.9 423.2 222.1C423.5 222.3 423.5 222.7 423.3 223C422 224.7 420.5 226.4 419.1 228C419.1 228.2 419 228.3 418.8 228.3ZM216.1 232.7C215.9 232.7 215.7 232.6 215.6 232.5C214.1 230.9 212.6 229.3 211.2 227.7C211 227.4 211 227 211.3 226.8C211.6 226.6 212 226.6 212.2 226.9C213.6 228.5 215.1 230.1 216.6 231.7C216.9 232 216.8 232.4 216.6 232.6C216.4 232.7 216.3 232.7 216.1 232.7ZM428.4 216C428.3 216 428.1 216 428 215.9C427.7 215.7 427.6 215.3 427.8 215C429 213.2 430.2 211.4 431.4 209.6C431.6 209.3 432 209.2 432.3 209.4C432.6 209.6 432.7 210 432.5 210.3C431.4 212.1 430.1 214 428.9 215.8C428.8 215.8 428.6 215.9 428.4 216ZM206 220.8C205.8 220.8 205.6 220.7 205.4 220.5C204.1 218.8 202.8 217 201.6 215.2C201.4 214.9 201.5 214.5 201.8 214.3C202.1 214.1 202.5 214.2 202.7 214.5C203.9 216.3 205.2 218 206.5 219.8C206.7 220.1 206.7 220.5 206.4 220.7C206.2 220.7 206.1 220.8 206 220.8ZM436.5 202.6C436.4 202.6 436.3 202.6 436.1 202.5C435.8 202.3 435.7 201.9 435.8 201.6C436.8 199.7 437.8 197.7 438.7 195.8C438.9 195.5 439.2 195.3 439.6 195.5C439.9 195.7 440.1 196 439.9 196.4C439 198.4 438 200.3 437 202.3C436.9 202.4 436.7 202.6 436.5 202.6ZM197.3 207.8C197.1 207.8 196.8 207.7 196.7 207.5C195.6 205.6 194.5 203.7 193.5 201.8C193.3 201.5 193.5 201.1 193.8 200.9C194.1 200.7 194.5 200.9 194.7 201.2C195.7 203.1 196.8 205 197.8 206.9C198 207.2 197.9 207.6 197.6 207.8C197.5 207.8 197.4 207.8 197.3 207.8ZM443 188.4C442.9 188.4 442.8 188.4 442.7 188.4C442.4 188.3 442.2 187.9 442.3 187.5C443.1 185.5 443.8 183.4 444.5 181.4C444.6 181.1 445 180.9 445.3 181C445.6 181.1 445.8 181.5 445.7 181.8C445 183.9 444.2 185.9 443.4 188C443.5 188.2 443.3 188.3 443 188.4ZM190.2 193.9C189.9 193.9 189.7 193.8 189.6 193.5C188.7 191.5 187.9 189.5 187.1 187.4C187 187.1 187.1 186.7 187.5 186.5C187.8 186.4 188.2 186.5 188.4 186.9C189.2 188.9 190 190.9 190.9 192.9C191 193.2 190.9 193.6 190.6 193.8C190.3 193.9 190.2 193.9 190.2 193.9ZM447.9 173.5C447.8 173.5 447.8 173.5 447.7 173.5C447.3 173.4 447.1 173 447.2 172.7C447.8 170.6 448.3 168.5 448.7 166.4C448.8 166 449.1 165.8 449.5 165.9C449.9 166 450.1 166.3 450 166.7C449.5 168.8 449 171 448.5 173.1C448.4 173.3 448.2 173.5 447.9 173.5ZM184.7 179.3C184.4 179.3 184.1 179.1 184 178.8C183.4 176.7 182.7 174.6 182.2 172.5C182.1 172.1 182.3 171.8 182.7 171.7C183.1 171.6 183.4 171.8 183.5 172.2C184 174.3 184.6 176.4 185.3 178.4C185.4 178.7 185.2 179.1 184.9 179.2C184.8 179.3 184.7 179.3 184.7 179.3ZM451.1 158.1H451C450.6 158 450.4 157.7 450.4 157.4C450.7 155.3 451 153.1 451.2 151C451.2 150.6 451.6 150.4 451.9 150.4C452.3 150.4 452.5 150.8 452.5 151.1C452.3 153.3 452 155.5 451.7 157.6C451.6 157.9 451.4 158.1 451.1 158.1ZM180.9 164.1C180.6 164.1 180.3 163.9 180.2 163.6C179.8 161.5 179.4 159.3 179.1 157.1C179 156.7 179.3 156.4 179.7 156.4C180.1 156.4 180.4 156.6 180.4 157C180.7 159.1 181.1 161.3 181.5 163.4C181.5 163.7 181.3 164 180.9 164.1ZM452.4 142.6C452 142.6 451.7 142.3 451.7 141.9C451.8 139.7 451.8 137.6 451.7 135.4C451.7 135 452 134.7 452.3 134.7C452.7 134.7 453 135 453 135.3C453 137.5 453 139.7 453 141.9C453 142.3 452.8 142.5 452.4 142.6ZM178.8 148.6C178.4 148.6 178.1 148.4 178.1 148C178.1 147.5 178 147 178 146.5C177.9 144.8 177.8 143.2 177.8 141.5C177.8 141.1 178.1 140.8 178.4 140.8C178.8 140.8 179.1 141.1 179.1 141.4C179.1 143 179.2 144.7 179.3 146.4C179.3 146.9 179.4 147.4 179.4 147.9C179.5 148.2 179.2 148.6 178.8 148.6ZM452 126.9C451.6 126.9 451.3 126.7 451.3 126.3C451.1 124.2 450.9 122 450.6 119.8V119.6C450.6 119.2 450.8 118.9 451.2 118.9C451.6 118.9 451.9 119.1 451.9 119.5V119.7C452.2 121.9 452.4 124.1 452.6 126.2C452.6 126.6 452.4 126.9 452 126.9ZM178.5 132.9C178.5 133 178.5 133 178.5 132.9C178.1 132.9 177.8 132.6 177.8 132.2C177.9 130 178 127.8 178.2 125.7C178.2 125.3 178.5 125.1 178.9 125.1C179.3 125.1 179.5 125.4 179.5 125.8C179.3 127.9 179.2 130.1 179.1 132.3C179.1 132.7 178.9 132.9 178.5 132.9ZM449.8 111.2C449.5 111.2 449.2 111 449.1 110.7C448.7 108.6 448.2 106.5 447.7 104.4C447.6 104 447.8 103.7 448.2 103.6C448.6 103.5 448.9 103.7 449 104.1C449.5 106.2 450 108.4 450.4 110.5C450.4 110.8 450.2 111.1 449.8 111.2ZM180 117.4H179.9C179.5 117.3 179.3 117 179.4 116.7C179.7 114.5 180.1 112.4 180.6 110.2C180.7 109.8 181 109.6 181.4 109.7C181.8 109.8 182 110.1 181.9 110.5C181.5 112.6 181.1 114.8 180.8 116.9C180.6 117.1 180.3 117.4 180 117.4ZM445.8 96.1C445.5 96.1 445.2 95.9 445.1 95.6C444.4 93.6 443.7 91.5 443 89.5C442.9 89.2 443 88.8 443.4 88.7C443.7 88.6 444.1 88.7 444.2 89.1C445 91.1 445.7 93.2 446.4 95.3C446.5 95.6 446.3 96 446 96.1C445.9 96.1 445.9 96.1 445.8 96.1ZM183.3 102.1C183.2 102.1 183.2 102.1 183.1 102.1C182.7 102 182.5 101.6 182.6 101.3C183.2 99.2 183.8 97.1 184.5 95C184.6 94.7 185 94.5 185.3 94.6C185.6 94.7 185.8 95.1 185.7 95.4C185 97.5 184.4 99.5 183.8 101.6C183.8 101.9 183.6 102 183.3 102.1ZM440.2 81.5C439.9 81.5 439.7 81.4 439.6 81.1C438.7 79.1 437.8 77.2 436.8 75.3C436.6 75 436.8 74.6 437.1 74.4C437.4 74.2 437.8 74.4 438 74.7C439 76.6 440 78.6 440.9 80.6C441.1 80.9 440.9 81.3 440.6 81.5C440.3 81.5 440.2 81.5 440.2 81.5ZM188.3 87.2C188.2 87.2 188.1 87.2 188 87.2C187.7 87.1 187.5 86.7 187.6 86.3C188.4 84.3 189.3 82.3 190.2 80.3C190.4 80 190.7 79.8 191.1 80C191.4 80.2 191.6 80.5 191.4 80.9C190.5 82.9 189.6 84.9 188.8 86.9C188.8 87.1 188.6 87.2 188.3 87.2ZM432.9 67.7C432.7 67.7 432.4 67.6 432.3 67.4C431.2 65.6 430 63.7 428.8 61.9C428.6 61.6 428.7 61.2 429 61C429.3 60.8 429.7 60.9 429.9 61.2C431.1 63 432.3 64.9 433.4 66.7C433.6 67 433.5 67.4 433.2 67.6C433.1 67.6 433 67.7 432.9 67.7ZM195 73.1C194.9 73.1 194.8 73.1 194.6 73C194.3 72.8 194.2 72.4 194.3 72.1C195.3 70.2 196.4 68.3 197.6 66.4C197.8 66.1 198.2 66 198.5 66.2C198.8 66.4 198.9 66.8 198.7 67.1C197.6 68.9 196.5 70.8 195.5 72.7C195.4 72.9 195.2 73 195 73.1ZM424.1 54.8C423.9 54.8 423.7 54.7 423.5 54.5C422.2 52.8 420.8 51.1 419.4 49.5C419.2 49.2 419.2 48.8 419.5 48.6C419.8 48.4 420.2 48.4 420.4 48.7C421.8 50.4 423.2 52.1 424.5 53.8C424.7 54.1 424.7 54.5 424.4 54.7C424.3 54.7 424.2 54.8 424.1 54.8ZM203.2 59.8C203.1 59.8 202.9 59.8 202.8 59.7C202.5 59.5 202.4 59.1 202.6 58.8C203.8 57 205.2 55.2 206.5 53.5C206.7 53.2 207.1 53.2 207.4 53.4C207.7 53.6 207.7 54 207.5 54.3C206.2 56 204.9 57.8 203.7 59.5C203.6 59.6 203.4 59.7 203.2 59.8ZM413.8 43C413.6 43 413.4 42.9 413.3 42.8C411.8 41.3 410.2 39.7 408.7 38.3C408.4 38.1 408.4 37.6 408.7 37.4C408.9 37.1 409.4 37.1 409.6 37.4C411.2 38.9 412.8 40.4 414.3 42C414.6 42.3 414.5 42.7 414.3 42.9C414.1 42.9 414 43 413.8 43ZM212.9 47.5C212.7 47.5 212.6 47.5 212.4 47.3C212.1 47.1 212.1 46.6 212.3 46.4C213.7 44.8 215.2 43.2 216.8 41.6C217.1 41.3 217.5 41.3 217.7 41.6C218 41.9 218 42.3 217.7 42.5C216.2 44 214.7 45.6 213.3 47.3C213.2 47.4 213.1 47.5 212.9 47.5ZM402.3 32.4C402.1 32.4 402 32.4 401.8 32.3C400.1 30.9 398.4 29.6 396.7 28.3C396.4 28.1 396.3 27.7 396.6 27.4C396.8 27.1 397.2 27 397.5 27.3C399.2 28.6 401 30 402.7 31.3C403 31.5 403 31.9 402.8 32.2C402.7 32.3 402.5 32.4 402.3 32.4ZM223.9 36.4C223.7 36.4 223.5 36.3 223.4 36.2C223.2 35.9 223.2 35.5 223.4 35.3C225 33.8 226.7 32.4 228.4 31C228.7 30.8 229.1 30.8 229.3 31.1C229.5 31.4 229.5 31.8 229.2 32C227.5 33.4 225.9 34.8 224.3 36.2C224.2 36.3 224.1 36.4 223.9 36.4ZM389.7 23.2C389.6 23.2 389.4 23.2 389.3 23.1C387.5 21.9 385.6 20.8 383.8 19.7C383.5 19.5 383.4 19.1 383.6 18.8C383.8 18.5 384.2 18.4 384.5 18.6C386.4 19.7 388.3 20.8 390.1 22C390.4 22.2 390.5 22.6 390.3 22.9C390.1 23.1 389.9 23.2 389.7 23.2ZM236.1 26.6C235.9 26.6 235.7 26.5 235.5 26.3C235.3 26 235.4 25.6 235.7 25.4C237.5 24.1 239.3 22.9 241.1 21.7C241.4 21.5 241.8 21.6 242 21.9C242.2 22.2 242.1 22.6 241.8 22.8C240 24 238.2 25.2 236.4 26.4C236.4 26.6 236.2 26.6 236.1 26.6ZM376.1 15.4C376 15.4 375.9 15.4 375.8 15.3C373.9 14.3 371.9 13.4 369.9 12.6C369.6 12.5 369.4 12.1 369.6 11.7C369.7 11.4 370.1 11.2 370.5 11.4C372.5 12.3 374.5 13.2 376.4 14.2C376.7 14.4 376.9 14.8 376.7 15.1C376.5 15.3 376.3 15.4 376.1 15.4ZM249.3 18.3C249.1 18.3 248.8 18.2 248.7 18C248.5 17.7 248.6 17.3 249 17.1C250.9 16.1 252.9 15 254.8 14.1C255.1 13.9 255.5 14.1 255.7 14.4C255.9 14.7 255.7 15.1 255.4 15.3C253.5 16.2 251.5 17.3 249.6 18.3C249.5 18.3 249.4 18.3 249.3 18.3ZM361.7 9.3C361.6 9.3 361.5 9.3 361.4 9.3C359.4 8.6 357.3 7.9 355.2 7.3C354.9 7.2 354.7 6.8 354.8 6.5C354.9 6.2 355.3 6 355.6 6.1C357.7 6.7 359.8 7.4 361.8 8.2C362.1 8.3 362.3 8.7 362.2 9C362.1 9.1 361.9 9.3 361.7 9.3ZM263.5 11.5C263.2 11.5 263 11.4 262.8 11.1C262.7 10.8 262.8 10.4 263.2 10.2C265.2 9.4 267.3 8.6 269.3 7.9C269.6 7.8 270 8 270.1 8.3C270.2 8.6 270 9 269.7 9.1C267.7 9.8 265.6 10.6 263.6 11.4C263.6 11.5 263.5 11.5 263.5 11.5ZM346.6 4.9C346.5 4.9 346.5 4.9 346.4 4.9C344.3 4.4 342.2 4 340 3.6C339.6 3.5 339.4 3.2 339.5 2.8C339.6 2.4 339.9 2.2 340.3 2.3C342.4 2.7 344.6 3.1 346.7 3.6C347.1 3.7 347.3 4 347.2 4.4C347.2 4.7 346.9 4.9 346.6 4.9ZM278.2 6.5C277.9 6.5 277.6 6.3 277.5 6C277.4 5.7 277.6 5.3 278 5.2C280.1 4.6 282.2 4.1 284.3 3.6C284.7 3.5 285 3.7 285.1 4.1C285.2 4.5 285 4.8 284.6 4.9C282.5 5.4 280.4 5.9 278.3 6.5C278.3 6.4 278.3 6.5 278.2 6.5ZM331.2 2.2H331.1C329 2 326.8 1.8 324.6 1.6C324.2 1.6 324 1.3 324 0.9C324 0.5 324.3 0.3 324.7 0.3C326.9 0.4 329.1 0.6 331.2 0.9C331.6 0.9 331.8 1.3 331.8 1.6C331.8 1.9 331.5 2.2 331.2 2.2ZM293.5 3.1C293.2 3.1 292.9 2.9 292.8 2.5C292.7 2.1 293 1.8 293.3 1.7C294.6 1.5 296 1.3 297.3 1.1C298.1 1 298.9 0.9 299.7 0.8C300.1 0.8 300.4 1 300.4 1.4C300.4 1.8 300.2 2.1 299.8 2.1C299 2.2 298.2 2.3 297.4 2.4C296.3 2.7 294.9 2.9 293.5 3.1C293.6 3.1 293.5 3.1 293.5 3.1ZM315.6 1.3C313.4 1.3 311.2 1.4 309.1 1.5C308.7 1.5 308.4 1.2 308.4 0.9C308.4 0.5 308.7 0.2 309 0.2C311.2 0.1 313.4 0 315.5 0C315.9 0 316.2 0.3 316.2 0.7C316.2 1 315.9 1.3 315.6 1.3Z" fill="#DEDEDE"/>
<path d="M337.2 81.7V307.9H336.6L319.5 291.3L302.4 307.9H300.6L283.4 291.3L266.3 307.9H264.6L247.5 291.3L230.4 307.9H228.6L211.5 291.3L194.4 307.9H192.6L175.5 291.3L158.4 307.9H156.6L139.5 291.3L122.4 307.9H121.3V18.9H274.3L337.2 81.7Z" fill="#F2F2F2"/>
<path d="M337.2 81.7H274.3V18.9L337.2 81.7Z" fill="#DEDEDE"/>
<path d="M179.4 199.4V190.9H156.6C153.7 190.9 151.6 190.2 150.1 188.9C148.7 187.6 147.9 185.8 147.9 183.6C147.9 183 148 182.4 148.2 181.8C148.4 181.2 148.7 180.6 149.2 179.9C149.6 179.2 150.1 178.6 150.5 178C151 177.4 151.5 176.7 152.2 175.8L176.3 143.6C177.9 141.5 179.2 139.9 180.2 139C181.2 138 182.4 137.6 183.9 137.6C188.5 137.6 190.8 140.2 190.8 145.5V180.7H192.8C195.1 180.7 197 181 198.4 181.7C199.8 182.3 200.5 183.7 200.5 185.9C200.5 187.7 199.9 188.9 198.8 189.7C197.6 190.5 195.9 190.9 193.6 190.9H190.8V199.4C190.8 201.7 190.3 203.5 189.3 204.6C188.3 205.7 186.9 206.3 185.2 206.3C183.5 206.3 182.1 205.7 181.1 204.5C179.9 203.4 179.4 201.7 179.4 199.4ZM159.8 180.8H179.4V154.4L159.8 180.8Z" fill="#0F52BA"/>
<path d="M253.1 172.5C253.1 177.5 252.8 181.7 252.2 185.3C251.6 188.9 250.5 192.1 248.8 195C246.7 198.6 244.1 201.3 240.8 203.3C237.5 205.2 233.9 206.2 229.9 206.2C225.3 206.2 221.2 204.9 217.5 202.3C213.8 199.7 211.1 196.1 209.2 191.5C208.3 189 207.6 186.2 207.1 183.2C206.7 180.2 206.4 176.9 206.4 173.3C206.4 168.7 206.6 164.6 207.1 160.9C207.6 157.2 208.3 154.1 209.4 151.4C211.2 147 213.8 143.7 217.2 141.4C220.6 139.1 224.7 138 229.4 138C232.5 138 235.4 138.5 237.9 139.5C240.4 140.5 242.7 142 244.6 144C246.5 146 248.2 148.4 249.5 151.3C251.9 156.3 253.1 163.3 253.1 172.5ZM240.6 171.6C240.6 166.1 240.3 161.5 239.6 158C238.9 154.5 237.8 151.8 236.2 150C234.6 148.2 232.4 147.3 229.7 147.3C225.7 147.3 222.9 149.3 221.4 153.3C219.8 157.3 219.1 163.5 219.1 171.9C219.1 177.6 219.4 182.3 220.1 185.9C220.8 189.5 221.9 192.3 223.5 194.2C225.1 196.1 227.2 197 229.9 197C232.7 197 234.9 196 236.4 194.1C238 192.2 239.1 189.4 239.7 185.8C240.3 182.2 240.6 177.4 240.6 171.6Z" fill="#0F52BA"/>
<path d="M290.1 199.4V190.9H267.3C264.4 190.9 262.3 190.2 260.8 188.9C259.4 187.6 258.6 185.8 258.6 183.6C258.6 183 258.7 182.4 258.9 181.8C259.1 181.2 259.4 180.6 259.9 179.9C260.3 179.2 260.8 178.6 261.2 178C261.7 177.4 262.2 176.7 262.9 175.8L287 143.6C288.6 141.5 289.9 139.9 290.9 139C291.9 138 293.1 137.6 294.6 137.6C299.2 137.6 301.5 140.2 301.5 145.5V180.7H303.5C305.8 180.7 307.7 181 309.1 181.7C310.5 182.3 311.2 183.7 311.2 185.9C311.2 187.7 310.6 188.9 309.5 189.7C308.3 190.5 306.6 190.9 304.3 190.9H301.5V199.4C301.5 201.7 301 203.5 300 204.6C299 205.7 297.6 206.3 295.9 206.3C294.2 206.3 292.8 205.7 291.8 204.5C290.6 203.4 290.1 201.7 290.1 199.4ZM270.5 180.8H290.1V154.4L270.5 180.8Z" fill="#0F52BA"/>
<path d="M227.6 374.3C224.6 377.3 219.8 377.3 216.8 374.3L170.6 328.1L164.7 322.2C169 319.4 172.6 315.7 175.5 311.4L227.6 363.5C230.5 366.5 230.5 371.3 227.6 374.3Z" fill="#9C9C9C"/>
<path d="M177.8 313.8L189.8 325.8C187 330.1 183.3 333.7 179 336.6L172.8 330.4L166.9 324.5C171.3 321.7 175 318 177.8 313.8Z" fill="#5E5E5E"/>
<path d="M189.8 288.7C189.7 286.7 189.5 284.8 189.2 283C187.4 272.3 181.9 262.9 174 256.1C165.9 249.1 155.4 244.8 143.9 244.8C118.5 244.8 98 265.4 98 290.7C98 292.5 98.1 294.2 98.3 295.9C98.9 301.2 100.4 306.3 102.7 310.9C106 317.6 110.8 323.3 116.7 327.7C117.7 328.4 118.7 329.1 119.7 329.7C126.7 334.1 135.1 336.6 144 336.6C153.9 336.6 163.1 333.4 170.6 328.1C174.8 325.1 178.4 321.5 181.4 317.3C184.4 313.1 186.7 308.4 188.1 303.4C189.3 299.4 189.9 295.1 189.9 290.7C189.8 290 189.8 289.3 189.8 288.7ZM143.9 328.4C135.6 328.4 128 325.7 121.8 321.2C115.8 316.8 111.1 310.7 108.5 303.6C107 299.5 106.2 295.2 106.2 290.6C106.2 288.9 106.3 287.2 106.5 285.5C108.4 271.5 117.9 259.9 130.8 255.2C134.9 253.7 139.3 252.9 143.9 252.9C145.6 252.9 147.2 253 148.8 253.2C156.5 254.2 163.4 257.5 168.9 262.4C176.7 269.3 181.6 279.4 181.6 290.7C181.6 291.3 181.6 291.8 181.6 292.4C181.5 295.2 181.1 297.9 180.4 300.5C179.3 304.5 177.7 308.2 175.5 311.5C172.7 315.8 169 319.4 164.7 322.3C163.7 323 162.6 323.6 161.4 324.2C159 325.5 156.5 326.5 153.8 327.2C150.7 328 147.3 328.4 143.9 328.4Z" fill="#B8B8B8"/>
<path d="M115.3 294.8C113.4 294.8 111.8 293.2 111.8 291.3C111.8 282.6 115.2 274.3 121.4 268.1C127.6 261.9 135.8 258.5 144.6 258.5C146.5 258.5 148.1 260.1 148.1 262C148.1 263.9 146.5 265.5 144.6 265.5C137.7 265.5 131.3 268.2 126.4 273C121.5 277.9 118.9 284.3 118.9 291.2C118.8 293.2 117.3 294.8 115.3 294.8Z" fill="white"/>
</g>
<defs>
<clipPath id="clip0_3086_17401">
<rect width="464.9" height="376.5" fill="white"/>
</clipPath>
</defs>
</svg>
