<svg width="103" height="19" viewBox="0 0 103 19" fill="none" xmlns="http://www.w3.org/2000/svg">
<path d="M0.291193 14V0.909091H5.20028C6.20597 0.909091 7.04972 1.09659 7.73153 1.47159C8.41761 1.84659 8.93537 2.36222 9.2848 3.01847C9.63849 3.67045 9.81534 4.41193 9.81534 5.2429C9.81534 6.08239 9.63849 6.82812 9.2848 7.48011C8.93111 8.1321 8.40909 8.6456 7.71875 9.0206C7.02841 9.39134 6.17827 9.5767 5.16832 9.5767H1.91477V7.62713H4.84872C5.43679 7.62713 5.91832 7.52486 6.29332 7.32031C6.66832 7.11577 6.94531 6.83452 7.12429 6.47656C7.30753 6.11861 7.39915 5.70739 7.39915 5.2429C7.39915 4.77841 7.30753 4.36932 7.12429 4.01562C6.94531 3.66193 6.66619 3.38707 6.28693 3.19105C5.91193 2.99077 5.42827 2.89062 4.83594 2.89062H2.66264V14H0.291193ZM15.915 14.1918C14.9561 14.1918 14.1252 13.9808 13.4221 13.5589C12.7189 13.1371 12.1735 12.5469 11.7857 11.7884C11.4022 11.0298 11.2104 10.1435 11.2104 9.12926C11.2104 8.11506 11.4022 7.22656 11.7857 6.46378C12.1735 5.70099 12.7189 5.10866 13.4221 4.68679C14.1252 4.26491 14.9561 4.05398 15.915 4.05398C16.8738 4.05398 17.7047 4.26491 18.4078 4.68679C19.111 5.10866 19.6543 5.70099 20.0378 6.46378C20.4256 7.22656 20.6195 8.11506 20.6195 9.12926C20.6195 10.1435 20.4256 11.0298 20.0378 11.7884C19.6543 12.5469 19.111 13.1371 18.4078 13.5589C17.7047 13.9808 16.8738 14.1918 15.915 14.1918ZM15.9277 12.3381C16.4476 12.3381 16.8823 12.1953 17.2317 11.9098C17.5811 11.62 17.8411 11.2322 18.0115 10.7464C18.1863 10.2607 18.2736 9.71946 18.2736 9.12287C18.2736 8.52202 18.1863 7.97869 18.0115 7.4929C17.8411 7.00284 17.5811 6.61293 17.2317 6.32315C16.8823 6.03338 16.4476 5.88849 15.9277 5.88849C15.3951 5.88849 14.9519 6.03338 14.5982 6.32315C14.2488 6.61293 13.9867 7.00284 13.812 7.4929C13.6415 7.97869 13.5563 8.52202 13.5563 9.12287C13.5563 9.71946 13.6415 10.2607 13.812 10.7464C13.9867 11.2322 14.2488 11.62 14.5982 11.9098C14.9519 12.1953 15.3951 12.3381 15.9277 12.3381ZM22.5835 14V4.18182H24.8271V5.81818H24.9293C25.1083 5.25142 25.4151 4.81463 25.8498 4.50781C26.2887 4.19673 26.7894 4.04119 27.3519 4.04119C27.4798 4.04119 27.6225 4.04758 27.7802 4.06037C27.9421 4.06889 28.0763 4.08381 28.1829 4.10511V6.23366C28.0849 6.19957 27.9293 6.16974 27.7163 6.14418C27.5075 6.11435 27.305 6.09943 27.109 6.09943C26.6871 6.09943 26.3079 6.19105 25.9712 6.37429C25.6388 6.55327 25.3768 6.80256 25.185 7.12216C24.9933 7.44176 24.8974 7.81037 24.8974 8.22798V14H22.5835ZM35.1502 4.18182V5.97159H29.506V4.18182H35.1502ZM30.8995 1.82955H33.2134V11.0469C33.2134 11.358 33.2603 11.5966 33.354 11.7628C33.4521 11.9247 33.5799 12.0355 33.7376 12.0952C33.8952 12.1548 34.07 12.1847 34.2617 12.1847C34.4066 12.1847 34.5387 12.174 34.658 12.1527C34.7816 12.1314 34.8754 12.1122 34.9393 12.0952L35.3292 13.9041C35.2056 13.9467 35.0288 13.9936 34.7987 14.0447C34.5728 14.0959 34.2958 14.1257 33.9677 14.1342C33.3881 14.1513 32.8661 14.0639 32.4016 13.8722C31.9371 13.6761 31.5685 13.3736 31.2958 12.9645C31.0273 12.5554 30.8952 12.044 30.8995 11.4304V1.82955ZM39.9107 14.1982C39.2885 14.1982 38.7282 14.0874 38.2296 13.8658C37.7353 13.6399 37.3432 13.3075 37.0534 12.8686C36.7679 12.4297 36.6252 11.8885 36.6252 11.245C36.6252 10.6911 36.7275 10.233 36.932 9.87074C37.1365 9.50852 37.4157 9.21875 37.7694 9.00142C38.123 8.78409 38.5215 8.62003 38.9647 8.50923C39.4121 8.39418 39.8745 8.31108 40.3517 8.25994C40.927 8.20028 41.3936 8.14702 41.7516 8.10014C42.1096 8.04901 42.3695 7.9723 42.5314 7.87003C42.6976 7.76349 42.7807 7.59943 42.7807 7.37784V7.33949C42.7807 6.85795 42.638 6.48509 42.3525 6.22088C42.0669 5.95668 41.6557 5.82457 41.1188 5.82457C40.552 5.82457 40.1025 5.94815 39.7701 6.19531C39.4419 6.44247 39.2203 6.73437 39.1053 7.07102L36.9448 6.7642C37.1152 6.16761 37.3965 5.66903 37.7885 5.26847C38.1806 4.86364 38.66 4.56108 39.2267 4.3608C39.7935 4.15625 40.4199 4.05398 41.106 4.05398C41.579 4.05398 42.0499 4.10938 42.5186 4.22017C42.9874 4.33097 43.4157 4.5142 43.8034 4.76989C44.1912 5.02131 44.5023 5.36435 44.7367 5.79901C44.9753 6.23366 45.0946 6.77699 45.0946 7.42898V14H42.8702V12.6513H42.7935C42.6529 12.924 42.4547 13.1797 42.199 13.4183C41.9476 13.6527 41.6301 13.8423 41.2466 13.9872C40.8674 14.1278 40.4221 14.1982 39.9107 14.1982ZM40.5115 12.4979C40.976 12.4979 41.3787 12.4062 41.7196 12.223C42.0605 12.0355 42.3226 11.7884 42.5059 11.4815C42.6934 11.1747 42.7871 10.8402 42.7871 10.478V9.32102C42.7147 9.38068 42.5911 9.43608 42.4164 9.48722C42.2459 9.53835 42.0542 9.5831 41.8411 9.62145C41.628 9.6598 41.4171 9.69389 41.2083 9.72372C40.9995 9.75355 40.8184 9.77912 40.665 9.80043C40.3198 9.8473 40.0108 9.92401 39.7381 10.0305C39.4654 10.1371 39.2502 10.2862 39.0925 10.478C38.9348 10.6655 38.856 10.9084 38.856 11.2067C38.856 11.6328 39.0115 11.9545 39.3226 12.1719C39.6337 12.3892 40.03 12.4979 40.5115 12.4979ZM49.7353 0.909091V14H47.4213V0.909091H49.7353ZM54.94 14.1982C54.3178 14.1982 53.7575 14.0874 53.2589 13.8658C52.7646 13.6399 52.3725 13.3075 52.0827 12.8686C51.7972 12.4297 51.6545 11.8885 51.6545 11.245C51.6545 10.6911 51.7567 10.233 51.9613 9.87074C52.1658 9.50852 52.445 9.21875 52.7987 9.00142C53.1523 8.78409 53.5508 8.62003 53.994 8.50923C54.4414 8.39418 54.9038 8.31108 55.381 8.25994C55.9563 8.20028 56.4229 8.14702 56.7809 8.10014C57.1388 8.04901 57.3988 7.9723 57.5607 7.87003C57.7269 7.76349 57.81 7.59943 57.81 7.37784V7.33949C57.81 6.85795 57.6673 6.48509 57.3817 6.22088C57.0962 5.95668 56.685 5.82457 56.1481 5.82457C55.5813 5.82457 55.1317 5.94815 54.7994 6.19531C54.4712 6.44247 54.2496 6.73437 54.1346 7.07102L51.9741 6.7642C52.1445 6.16761 52.4258 5.66903 52.8178 5.26847C53.2099 4.86364 53.6893 4.56108 54.256 4.3608C54.8228 4.15625 55.4492 4.05398 56.1353 4.05398C56.6083 4.05398 57.0792 4.10938 57.5479 4.22017C58.0167 4.33097 58.445 4.5142 58.8327 4.76989C59.2205 5.02131 59.5316 5.36435 59.766 5.79901C60.0046 6.23366 60.1239 6.77699 60.1239 7.42898V14H57.8995V12.6513H57.8228C57.6822 12.924 57.484 13.1797 57.2283 13.4183C56.9769 13.6527 56.6594 13.8423 56.2759 13.9872C55.8967 14.1278 55.4513 14.1982 54.94 14.1982ZM55.5408 12.4979C56.0053 12.4979 56.408 12.4062 56.7489 12.223C57.0898 12.0355 57.3519 11.7884 57.5352 11.4815C57.7227 11.1747 57.8164 10.8402 57.8164 10.478V9.32102C57.744 9.38068 57.6204 9.43608 57.4457 9.48722C57.2752 9.53835 57.0835 9.5831 56.8704 9.62145C56.6573 9.6598 56.4464 9.69389 56.2376 9.72372C56.0288 9.75355 55.8477 9.77912 55.6942 9.80043C55.3491 9.8473 55.0401 9.92401 54.7674 10.0305C54.4947 10.1371 54.2795 10.2862 54.1218 10.478C53.9641 10.6655 53.8853 10.9084 53.8853 11.2067C53.8853 11.6328 54.0408 11.9545 54.3519 12.1719C54.663 12.3892 55.0593 12.4979 55.5408 12.4979ZM71.1854 17.8864C70.3544 17.8864 69.6406 17.7734 69.044 17.5476C68.4474 17.326 67.968 17.0277 67.6058 16.6527C67.2436 16.2777 66.9922 15.8622 66.8516 15.4062L68.9354 14.9013C69.0291 15.093 69.1655 15.2827 69.3445 15.4702C69.5234 15.6619 69.7642 15.8196 70.0668 15.9432C70.3736 16.071 70.7592 16.1349 71.2237 16.1349C71.88 16.1349 72.4233 15.9751 72.8537 15.6555C73.2841 15.3402 73.4993 14.8203 73.4993 14.0959V12.2358H73.3842C73.2649 12.4744 73.0902 12.7195 72.8601 12.9709C72.6342 13.2223 72.3338 13.4332 71.9588 13.6037C71.5881 13.7741 71.1214 13.8594 70.5589 13.8594C69.8047 13.8594 69.1207 13.6825 68.5071 13.3288C67.8977 12.9709 67.4119 12.4382 67.0497 11.7308C66.6918 11.0192 66.5128 10.1286 66.5128 9.05895C66.5128 7.98082 66.6918 7.07102 67.0497 6.32955C67.4119 5.58381 67.8999 5.01918 68.5135 4.63565C69.1271 4.24787 69.8111 4.05398 70.5653 4.05398C71.1406 4.05398 71.6136 4.15199 71.9844 4.34801C72.3594 4.53977 72.6577 4.77202 72.8793 5.04474C73.1009 5.31321 73.2692 5.56676 73.3842 5.8054H73.5121V4.18182H75.794V14.1598C75.794 14.9993 75.5938 15.6939 75.1932 16.2436C74.7926 16.7933 74.245 17.2045 73.5504 17.4773C72.8558 17.75 72.0675 17.8864 71.1854 17.8864ZM71.2045 12.044C71.6946 12.044 72.1122 11.9247 72.4574 11.6861C72.8026 11.4474 73.0646 11.1044 73.2436 10.657C73.4226 10.2095 73.5121 9.67259 73.5121 9.04616C73.5121 8.42827 73.4226 7.88707 73.2436 7.42259C73.0689 6.9581 72.8089 6.59801 72.4638 6.34233C72.1229 6.08239 71.7031 5.95241 71.2045 5.95241C70.6889 5.95241 70.2585 6.08665 69.9134 6.35511C69.5682 6.62358 69.3082 6.99219 69.1335 7.46094C68.9588 7.92543 68.8714 8.45384 68.8714 9.04616C68.8714 9.64702 68.9588 10.1733 69.1335 10.625C69.3125 11.0724 69.5746 11.4219 69.9197 11.6733C70.2692 11.9205 70.6974 12.044 71.2045 12.044ZM78.1655 14V4.18182H80.4794V14H78.1655ZM79.3288 2.78835C78.9624 2.78835 78.647 2.6669 78.3828 2.42401C78.1186 2.17685 77.9865 1.88068 77.9865 1.53551C77.9865 1.18608 78.1186 0.889914 78.3828 0.647016C78.647 0.399857 78.9624 0.276278 79.3288 0.276278C79.6996 0.276278 80.0149 0.399857 80.2749 0.647016C80.5391 0.889914 80.6712 1.18608 80.6712 1.53551C80.6712 1.88068 80.5391 2.17685 80.2749 2.42401C80.0149 2.6669 79.6996 2.78835 79.3288 2.78835ZM82.8588 14V4.18182H85.1025V5.81818H85.2047C85.3837 5.25142 85.6905 4.81463 86.1252 4.50781C86.5641 4.19673 87.0648 4.04119 87.6273 4.04119C87.7551 4.04119 87.8979 4.04758 88.0556 4.06037C88.2175 4.06889 88.3517 4.08381 88.4583 4.10511V6.23366C88.3603 6.19957 88.2047 6.16974 87.9917 6.14418C87.7828 6.11435 87.5804 6.09943 87.3844 6.09943C86.9625 6.09943 86.5833 6.19105 86.2466 6.37429C85.9142 6.55327 85.6522 6.80256 85.4604 7.12216C85.2686 7.44176 85.1728 7.81037 85.1728 8.22798V14H82.8588ZM89.9956 14V4.18182H92.3095V14H89.9956ZM91.1589 2.78835C90.7924 2.78835 90.4771 2.6669 90.2129 2.42401C89.9487 2.17685 89.8166 1.88068 89.8166 1.53551C89.8166 1.18608 89.9487 0.889914 90.2129 0.647016C90.4771 0.399857 90.7924 0.276278 91.1589 0.276278C91.5297 0.276278 91.845 0.399857 92.1049 0.647016C92.3691 0.889914 92.5012 1.18608 92.5012 1.53551C92.5012 1.88068 92.3691 2.17685 92.1049 2.42401C91.845 2.6669 91.5297 2.78835 91.1589 2.78835ZM102.449 6.77699L100.339 7.0071C100.28 6.79403 100.175 6.59375 100.026 6.40625C99.8814 6.21875 99.6854 6.06747 99.4382 5.95241C99.1911 5.83736 98.8885 5.77983 98.5305 5.77983C98.049 5.77983 97.6442 5.88423 97.3161 6.09304C96.9922 6.30185 96.8324 6.57244 96.8366 6.90483C96.8324 7.19034 96.9368 7.42259 97.1499 7.60156C97.3672 7.78054 97.7251 7.92756 98.2237 8.04261L99.8984 8.40057C100.827 8.60085 101.518 8.91832 101.969 9.35298C102.425 9.78764 102.656 10.3565 102.66 11.0597C102.656 11.6776 102.474 12.223 102.116 12.696C101.763 13.1648 101.271 13.5312 100.64 13.7955C100.009 14.0597 99.2848 14.1918 98.4666 14.1918C97.2649 14.1918 96.2976 13.9403 95.5646 13.4375C94.8317 12.9304 94.3949 12.2251 94.2543 11.3217L96.5107 11.1044C96.6129 11.5476 96.8303 11.8821 97.1626 12.108C97.495 12.3338 97.9276 12.4467 98.4602 12.4467C99.0099 12.4467 99.451 12.3338 99.7834 12.108C100.12 11.8821 100.288 11.603 100.288 11.2706C100.288 10.9893 100.18 10.7571 99.9624 10.5739C99.7493 10.3906 99.4169 10.25 98.9652 10.152L97.2905 9.80043C96.3487 9.6044 95.652 9.27415 95.2003 8.80966C94.7486 8.34091 94.5249 7.74858 94.5291 7.03267C94.5249 6.42756 94.6889 5.90341 95.0213 5.46023C95.358 5.01278 95.8246 4.66761 96.4212 4.42472C97.022 4.17756 97.7145 4.05398 98.4986 4.05398C99.6491 4.05398 100.555 4.29901 101.215 4.78906C101.88 5.27912 102.291 5.94176 102.449 6.77699ZM97.8849 13.9489H99.1378L99.0355 14.4922C99.4361 14.5518 99.7749 14.7053 100.052 14.9524C100.333 15.2038 100.474 15.5639 100.474 16.0327C100.478 16.6378 100.207 17.1236 99.6619 17.4901C99.1165 17.8565 98.3388 18.0398 97.3288 18.0398L97.3033 16.902C97.7933 16.902 98.1832 16.8359 98.473 16.7038C98.7628 16.576 98.9098 16.3714 98.9141 16.0902C98.9226 15.8175 98.8203 15.6172 98.6072 15.4893C98.3984 15.3658 98.0661 15.2805 97.6101 15.2337L97.8849 13.9489Z" fill="#0F52BA"/>
</svg>
