<svg width="40" height="40" viewBox="0 0 40 40" fill="none" xmlns="http://www.w3.org/2000/svg">
<rect opacity="0.01" width="40" height="40" fill="#EAEDEA"/>
<path d="M26.25 1.25C19.585 1.25 12.5 3.44 12.5 7.5V12.5C12.5 13.19 13.06 13.75 13.75 13.75C14.44 13.75 15 13.19 15 12.5V11.1975C17.6525 12.87 22.0325 13.75 26.25 13.75C30.4675 13.75 34.8475 12.87 37.5 11.1975V12.5C37.5 13.7225 34.425 15.6725 28.645 16.155C27.96 16.21 27.4475 16.8175 27.505 17.505C27.5575 18.1575 28.105 18.65 28.7475 18.65C28.785 18.65 28.8175 18.6475 28.855 18.645C32.11 18.3725 35.3525 17.53 37.5 16.1625V17.5C37.5 18.5675 35.235 20.1025 31.0325 20.845C30.355 20.965 29.9 21.615 30.02 22.2925C30.1275 22.8975 30.655 23.325 31.2475 23.325C31.32 23.325 31.395 23.32 31.4675 23.305C34.01 22.8575 36.045 22.125 37.5 21.195V22.5C37.5 23.5675 35.235 25.1025 31.0325 25.845C30.355 25.965 29.9 26.615 30.02 27.2925C30.1275 27.8975 30.655 28.325 31.2475 28.325C31.32 28.325 31.395 28.32 31.4675 28.305C34.01 27.8575 36.045 27.1225 37.5 26.195V27.5C37.5 28.5675 35.235 30.1025 31.0325 30.845C30.355 30.965 29.9 31.615 30.02 32.2925C30.1275 32.8975 30.655 33.325 31.2475 33.325C31.32 33.325 31.395 33.32 31.4675 33.305C34.01 32.8575 36.045 32.1225 37.5 31.195V32.5C37.5 33.7225 34.425 35.6725 28.645 36.155C27.96 36.21 27.4475 36.8175 27.505 37.505C27.5575 38.1575 28.105 38.65 28.7475 38.65C28.785 38.65 28.8175 38.6475 28.855 38.645C34.4025 38.18 40 36.1025 40 32.5V7.5C40 3.44 32.915 1.25 26.25 1.25ZM26.25 11.25C19.3825 11.25 15 9.0275 15 7.5C15 5.9725 19.3825 3.75 26.25 3.75C33.1175 3.75 37.5 5.9725 37.5 7.5C37.5 9.0275 33.1175 11.25 26.25 11.25Z" fill="#959595"/>
<path d="M13.75 16.25C7.085 16.25 0 18.44 0 22.5V32.5C0 36.56 7.085 38.75 13.75 38.75C20.415 38.75 27.5 36.56 27.5 32.5V22.5C27.5 18.44 20.415 16.25 13.75 16.25ZM25 32.5C25 34.0275 20.6175 36.25 13.75 36.25C6.8825 36.25 2.5 34.0275 2.5 32.5V31.1975C5.1525 32.87 9.5325 33.75 13.75 33.75C17.9675 33.75 22.3475 32.87 25 31.1975V32.5ZM25 27.5C25 29.0275 20.6175 31.25 13.75 31.25C6.8825 31.25 2.5 29.0275 2.5 27.5V26.1975C5.1525 27.87 9.5325 28.75 13.75 28.75C17.9675 28.75 22.3475 27.87 25 26.1975V27.5ZM13.75 26.25C6.8825 26.25 2.5 24.0275 2.5 22.5C2.5 20.9725 6.8825 18.75 13.75 18.75C20.6175 18.75 25 20.9725 25 22.5C25 24.0275 20.6175 26.25 13.75 26.25Z" fill="#959595"/>
</svg>
