<svg width="40" height="40" viewBox="0 0 40 40" fill="none" xmlns="http://www.w3.org/2000/svg">
<rect x="1.5" y="1.5" width="37" height="37" rx="8.5" fill="white" stroke="#959595" stroke-width="3"/>
<path d="M20.9164 17.5735H19.9138V16.5933C19.9138 16.1748 19.5782 15.8336 19.1647 15.8336C18.752 15.8336 18.4155 16.1748 18.4155 16.5933V17.5735H17.4147C17.0011 17.5735 16.6655 17.9147 16.6655 18.3332C16.6655 18.7517 17.0011 19.0929 17.4147 19.0929H18.4155V20.0739C18.4155 20.4924 18.752 20.8336 19.1647 20.8336C19.5782 20.8336 19.9138 20.4924 19.9138 20.0739V19.0929H20.9164C21.3291 19.0929 21.6655 18.7517 21.6655 18.3332C21.6655 17.9147 21.3291 17.5735 20.9164 17.5735" fill="#959595"/>
<path d="M11.25 22.0959C7.87852 22.0959 5 22.635 5 24.7885C5 26.9412 7.861 27.4997 11.25 27.4997C14.6206 27.4997 17.5 26.9607 17.5 24.8071C17.5 22.6536 14.639 22.0959 11.25 22.0959" fill="#959595"/>
<path d="M11.2493 20.0449C13.5448 20.0449 15.3848 18.1811 15.3848 15.8561C15.3848 13.531 13.5448 11.6664 11.2493 11.6664C8.95382 11.6664 7.11377 13.531 7.11377 15.8561C7.11377 18.1811 8.95382 20.0449 11.2493 20.0449" fill="#959595"/>
<rect x="25" y="13.75" width="10" height="2.5" rx="1.25" fill="#959595"/>
<rect x="25" y="18.75" width="10" height="2.5" rx="1.25" fill="#959595"/>
<rect x="25" y="23.75" width="10" height="2.5" rx="1.25" fill="#959595"/>
</svg>
