<svg width="144" height="137" viewBox="0 0 144 137" fill="none" xmlns="http://www.w3.org/2000/svg">
<path d="M23.6001 28.9999C23.6001 25.9234 24.8222 22.9729 26.9977 20.7975C29.1731 18.622 32.1236 17.3999 35.2001 17.3999H104.8C107.877 17.3999 110.827 18.622 113.003 20.7975C115.178 22.9729 116.4 25.9234 116.4 28.9999V47.2467C114.652 45.6816 112.701 44.3589 110.6 43.3143V28.9999C110.6 27.4616 109.989 25.9864 108.901 24.8987C107.814 23.811 106.338 23.1999 104.8 23.1999H35.2001C33.6618 23.1999 32.1866 23.811 31.0989 24.8987C30.0112 25.9864 29.4001 27.4616 29.4001 28.9999V75.3999C29.4001 76.9382 30.0112 78.4134 31.0989 79.5011C32.1866 80.5888 33.6618 81.1999 35.2001 81.1999H77.2965C77.7373 81.8553 78.2071 82.4933 78.7001 83.1081V86.9999H35.2001C32.1236 86.9999 29.1731 85.7778 26.9977 83.6023C24.8222 81.4269 23.6001 78.4764 23.6001 75.3999V28.9999ZM119.3 66.6999C119.3 72.2331 117.09 77.2443 113.5 80.9099V104.4C113.5 104.938 113.35 105.466 113.067 105.925C112.784 106.383 112.379 106.753 111.897 106.994C111.415 107.235 110.876 107.337 110.34 107.288C109.803 107.24 109.291 107.043 108.86 106.72L100.74 100.63C100.238 100.253 99.6276 100.05 99.0001 100.05C98.3726 100.05 97.7621 100.253 97.2601 100.63L89.1401 106.72C88.7092 107.043 88.1969 107.24 87.6605 107.288C87.1241 107.337 86.5849 107.235 86.1032 106.994C85.6215 106.753 85.2163 106.383 84.9332 105.925C84.6501 105.466 84.5001 104.938 84.5001 104.4V80.9099C82.17 78.5317 80.4605 75.6169 79.5225 72.4223C78.5844 69.2277 78.4465 65.8514 79.1209 62.591C79.7953 59.3305 81.2613 56.286 83.3897 53.7257C85.5182 51.1654 88.2437 49.1679 91.326 47.9093C94.4084 46.6506 97.7531 46.1695 101.065 46.5082C104.377 46.8469 107.556 47.9951 110.319 49.8516C113.083 51.7081 115.348 54.2159 116.914 57.1541C118.48 60.0922 119.3 63.3704 119.3 66.6999ZM99.0001 86.9999C95.8855 86.9999 92.9391 86.3039 90.3001 85.0453V97.1499L97.5095 92.8231C97.9599 92.5532 98.4751 92.4107 99.0001 92.4107C99.5251 92.4107 100.04 92.5532 100.491 92.8231L107.7 97.1499V85.0453C104.982 86.3362 102.009 87.0039 99.0001 86.9999ZM99.0001 81.1999C102.846 81.1999 106.534 79.6722 109.253 76.953C111.972 74.2337 113.5 70.5455 113.5 66.6999C113.5 62.8543 111.972 59.1661 109.253 56.4469C106.534 53.7276 102.846 52.1999 99.0001 52.1999C95.1545 52.1999 91.4663 53.7276 88.747 56.4469C86.0278 59.1661 84.5001 62.8543 84.5001 66.6999C84.5001 70.5455 86.0278 74.2337 88.747 76.953C91.4663 79.6722 95.1545 81.1999 99.0001 81.1999Z" fill="#0F52BA"/>
<path opacity="0.3" d="M41.8494 60.449C42.3932 59.9051 43.1309 59.5996 43.9 59.5996H67.1C67.8691 59.5996 68.6068 59.9051 69.1506 60.449C69.6945 60.9929 70 61.7305 70 62.4996C70 63.2687 69.6945 64.0064 69.1506 64.5502C68.6068 65.0941 67.8691 65.3996 67.1 65.3996H43.9C43.1309 65.3996 42.3932 65.0941 41.8494 64.5502C41.3055 64.0064 41 63.2687 41 62.4996C41 61.7305 41.3055 60.9929 41.8494 60.449Z" fill="#0F52BA"/>
<path opacity="0.3" d="M41.8494 36.6492C41.3055 37.1931 41 37.9307 41 38.6998C41 39.4689 41.3055 40.2066 41.8494 40.7504C42.3932 41.2943 43.1309 41.5998 43.9 41.5998H96.1C96.8691 41.5998 97.6068 41.2943 98.1506 40.7504C98.6945 40.2066 99 39.4689 99 38.6998C99 37.9307 98.6945 37.1931 98.1506 36.6492C97.6068 36.1053 96.8691 35.7998 96.1 35.7998H43.9C43.1309 35.7998 42.3932 36.1053 41.8494 36.6492Z" fill="#0F52BA"/>
<path opacity="0.03" d="M72 137C111.765 137 144 132.971 144 128C144 123.029 111.765 119 72 119C32.2355 119 0 123.029 0 128C0 132.971 32.2355 137 72 137Z" fill="#0F52BA"/>
</svg>
