<svg width="24" height="23" viewBox="0 0 24 23" fill="none" xmlns="http://www.w3.org/2000/svg">
<g clip-path="url(#clip0_4410_20142)">
<path d="M7.9602 10.607H0.895522C0.778393 10.6057 0.662166 10.6276 0.553572 10.6715C0.444978 10.7154 0.346176 10.7805 0.262886 10.8628C0.179596 10.9452 0.113474 11.0433 0.0683492 11.1514C0.0232241 11.2594 -7.39255e-06 11.3754 1.76459e-09 11.4926C0.00261993 11.7283 0.0981247 11.9536 0.265785 12.1194C0.433444 12.2852 0.659729 12.3781 0.895522 12.3781H7.9602V10.607Z" fill="#304B82"/>
<path d="M18.8256 -3.44493e-05H13.1142C11.7549 0.00252162 10.4514 0.540927 9.48646 1.49838C8.52155 2.45584 7.97305 3.75513 7.95996 5.11439V10.6069H12.7162L10.8356 8.77608C10.7535 8.69468 10.6883 8.59781 10.6438 8.49107C10.5993 8.38433 10.5764 8.26983 10.5764 8.15419C10.5764 8.03855 10.5993 7.92406 10.6438 7.81732C10.6883 7.71058 10.7535 7.61371 10.8356 7.5323C10.9178 7.44987 11.0155 7.38447 11.1231 7.33985C11.2307 7.29522 11.346 7.27225 11.4624 7.27225C11.5789 7.27225 11.6942 7.29522 11.8018 7.33985C11.9093 7.38447 12.0071 7.44987 12.0893 7.5323L15.4425 10.8756C15.611 11.0452 15.7073 11.2734 15.7112 11.5124C15.7104 11.6281 15.6862 11.7423 15.6401 11.8484C15.5939 11.9544 15.5267 12.05 15.4425 12.1293L12.0893 15.4726C11.924 15.6413 11.6987 15.7379 11.4624 15.7413C11.3451 15.7418 11.2289 15.7183 11.1211 15.6721C11.0133 15.6259 10.9161 15.558 10.8356 15.4726C10.7535 15.3912 10.6883 15.2943 10.6438 15.1876C10.5993 15.0808 10.5764 14.9664 10.5764 14.8507C10.5764 14.7351 10.5993 14.6206 10.6438 14.5138C10.6883 14.4071 10.7535 14.3102 10.8356 14.2288L12.6764 12.398H7.95996V17.9104C7.96517 18.586 8.10339 19.2539 8.36674 19.876C8.63008 20.4982 9.01339 21.0624 9.49478 21.5364C9.97617 22.0104 10.5462 22.3849 11.1724 22.6386C11.7985 22.8923 12.4685 23.0201 13.144 23.0149H18.8057C20.171 23.0255 21.4847 22.494 22.4585 21.537C23.4323 20.58 23.9866 19.2757 23.9998 17.9104V5.10444C23.9892 3.74182 23.4385 2.43904 22.4685 1.48204C21.4984 0.525038 20.1883 -0.0079822 18.8256 -3.44493e-05Z" fill="#304B82"/>
</g>
<defs>
<clipPath id="clip0_4410_20142">
<rect width="24" height="22.9851" fill="white"/>
</clipPath>
</defs>
</svg>
