<svg width="336" height="61" viewBox="0 0 336 61" fill="none" xmlns="http://www.w3.org/2000/svg">
<path d="M50.6225 36.7663C49.7058 36.3735 48.7164 36.7663 48.1925 37.552L43.9147 35.7769V35.7041C43.9147 35.3695 43.7838 35.0494 43.5219 34.8457C44.7005 31.3536 44.5113 27.6723 43.26 24.4567L48.1925 22.4196C48.7164 23.2054 49.7058 23.54 50.6225 23.2054C51.6119 22.8125 52.1357 21.6194 51.6701 20.5717C51.2772 19.5823 50.0841 19.0585 49.0365 19.5241C48.1198 19.917 47.6542 20.8336 47.8579 21.7649L42.9253 23.8019C42.0668 21.8231 40.7573 19.9897 39.1131 18.5347C39.1859 18.4037 39.1859 18.331 39.1859 18.2C39.1859 17.6035 38.7202 17.1524 38.1382 17.1524C37.9345 17.1524 37.7454 17.2251 37.5417 17.3561C36.7559 16.8323 35.9557 16.3667 35.1117 15.9738L37.1488 11.0994C38.0655 11.3031 39.0549 10.8375 39.3896 9.92084C39.7824 8.93141 39.3168 7.75283 38.3419 7.28722C37.3525 6.89436 36.1739 7.35998 35.7083 8.33485C35.3154 9.25153 35.7083 10.241 36.494 10.7648L34.457 15.6392C31.2268 14.3878 27.7492 14.2569 24.5191 15.2463C24.2571 14.8534 23.7915 14.5188 23.2095 14.5188C23.1368 14.5188 23.0058 14.5188 22.9476 14.5188L21.3616 10.7066C22.1473 10.1828 22.482 9.19332 22.1473 8.27665C21.7545 7.28722 20.5613 6.7634 19.5137 7.22902C18.5243 7.62188 18.0005 8.81502 18.4661 9.86264C18.859 10.7793 19.7756 11.2449 20.7069 11.0412L22.2928 14.8534C21.9 15.1153 21.6381 15.5809 21.6381 16.1048C21.6381 16.2357 21.6381 16.3085 21.7108 16.4394C18.6843 18.0254 16.3126 20.5863 14.9303 23.7437L10.056 21.7067C10.2597 20.79 9.79406 19.8006 8.87738 19.4659C7.88796 19.073 6.70937 19.5387 6.24376 20.5135C5.8509 21.503 6.31651 22.6815 7.29139 23.1472C8.20807 23.54 9.19749 23.1471 9.72131 22.3614L14.5957 24.3985C13.9409 26.1154 13.6063 27.8178 13.5481 29.5348C13.2134 29.6657 13.0242 29.9276 13.0242 30.3205C13.0242 30.6552 13.228 30.9753 13.5481 31.1062C13.679 32.6195 14.0137 34.0599 14.5375 35.515L9.6631 37.552C9.13929 36.7663 8.14986 36.4317 7.23319 36.7663C6.24376 37.1592 5.71995 38.3523 6.18556 39.3999C6.57842 40.3894 7.77155 40.9132 8.81918 40.4476C9.73586 40.0547 10.2015 39.138 9.99776 38.2068L14.8721 36.1698C15.396 37.4211 16.1235 38.5415 16.982 39.5891C16.9092 39.7201 16.851 39.9238 16.851 40.1129C16.851 40.7095 17.3166 41.1605 17.8986 41.1605C18.0296 41.1605 18.2333 41.0878 18.3642 41.0296C19.6156 42.2082 21.0561 43.1976 22.773 43.9251L20.736 48.7995C19.8193 48.5958 18.8299 49.0614 18.4952 49.9781C18.1023 50.9675 18.5679 52.1461 19.5428 52.6117C20.5323 53.0046 21.7108 52.539 22.1764 51.5641C22.5693 50.6474 22.1764 49.658 21.3907 49.1342L23.4278 44.2598C25.2029 44.9873 27.109 45.3074 28.9569 45.3074C30.863 45.3074 32.7691 44.9145 34.4861 44.2598L36.5231 49.1924C35.7374 49.7162 35.4028 50.7056 35.7374 51.6223C36.1303 52.6117 37.3234 53.1355 38.371 52.6699C39.3605 52.277 39.8843 51.0839 39.4187 50.0363C39.0258 49.1196 38.1091 48.654 37.1779 48.8577L35.1408 43.9251C38.2983 42.5428 41.0629 40.0402 42.7071 36.7518C42.7798 36.7518 42.7798 36.7518 42.838 36.7518C43.1727 36.7518 43.4346 36.6208 43.6237 36.3589L47.9015 38.1341C47.6978 39.0507 48.1634 40.0402 49.0801 40.3748C50.0696 40.7677 51.2481 40.3021 51.7137 39.3272C52.1357 38.3378 51.6119 37.2174 50.6225 36.7663ZM23.4423 17.6762C23.5151 17.6762 23.5151 17.6762 23.4423 17.6762L26.3379 24.5149L23.3841 26.1591C23.1804 25.9554 22.9913 25.8244 22.7294 25.6935L23.4423 17.6762ZM28.3167 30.6406L27.7929 31.9501L27.0072 31.1644L28.3167 30.6406ZM26.4106 30.6406L23.8497 28.2107L28.0548 29.9858L26.4106 30.6406ZM28.9715 30.9025L30.4847 34.5256L28.3167 32.4885L28.9715 30.9025ZM30.0919 35.1221C29.9609 35.384 29.8881 35.6459 29.8881 35.9078C29.8881 35.9806 29.8881 36.1116 29.8881 36.1698L26.1341 37.814L28.0402 33.1433L30.0919 35.1221ZM31.4741 34.3219C31.4014 34.3219 31.2704 34.3219 31.2122 34.3219L29.699 30.6406L33.0601 32.0229L31.8816 34.3946C31.6633 34.3219 31.6051 34.3219 31.4741 34.3219ZM29.8881 29.9858L35.0826 27.8178L33.2347 31.3681L29.8881 29.9858ZM35.2864 29.0692L34.8935 32.0956L33.9041 31.7028L35.2864 29.0692ZM36.1448 28.1379C36.2176 28.1379 36.2176 28.1379 36.2758 28.0652L41.7322 34.8457L35.6792 32.343L36.1448 28.1379ZM34.8353 27.1631L29.6408 29.3311L32.2017 23.1472C32.2744 23.1472 32.4054 23.1472 32.5363 23.1472C32.74 23.1472 32.9292 23.0744 33.0601 23.0162L35.0972 26.3773C34.9662 26.6247 34.8353 26.8866 34.8353 27.1631ZM31.5323 22.8852L28.9715 29.0692L27.1963 24.8641L31.2122 22.6961C31.3432 22.7543 31.4014 22.8125 31.5323 22.8852ZM28.3167 29.3311L23.777 27.425C23.777 27.3522 23.777 27.2213 23.777 27.1631C23.777 27.0321 23.777 26.9012 23.7042 26.7702L26.5998 25.1842L28.3167 29.3311ZM22.2637 28.7345H22.3365L23.2532 31.9647L20.6923 33.0123L22.1328 28.7345C22.1328 28.7345 22.191 28.7345 22.2637 28.7345ZM22.9913 28.5453C23.064 28.5453 23.064 28.4726 23.1222 28.4726L25.7558 30.9753L23.9079 31.7028L22.9913 28.5453ZM26.2797 31.4991L27.531 32.6777L25.5521 37.4211L24.1116 32.4157L26.2797 31.4991ZM30.1501 36.8245C30.412 37.2174 30.8776 37.4793 31.4014 37.4793C31.4741 37.4793 31.6051 37.4793 31.6633 37.4793L33.3802 41.5534L26.3379 38.5269L30.1501 36.8245ZM32.3326 37.1592C32.6673 36.9555 32.8564 36.5626 32.9874 36.1698H34.4279L33.8313 40.7822L32.3326 37.1592ZM32.9874 35.515C32.9146 35.1803 32.7255 34.9184 32.4636 34.6565L33.6421 32.2848L34.8207 32.7504L34.4861 35.4422L32.9874 35.515ZM35.5483 33.0851L41.1356 35.384L35.2136 35.4568L35.5483 33.0851ZM36.7996 27.6869C36.9305 27.5559 36.9305 27.3522 36.9305 27.1631V27.0903L39.8261 25.9117L41.9941 34.2637L36.7996 27.6869ZM36.6686 26.4355C36.5959 26.3628 36.5377 26.3046 36.4649 26.2318L38.1819 19.5823L39.6224 25.1697L36.6686 26.4355ZM37.5271 18.9275C37.5853 19.0003 37.5853 19.0003 37.5271 18.9275L35.752 26.0281C35.6792 26.0281 35.6792 26.0281 35.621 26.0281L33.584 22.667C33.9186 22.3323 34.1078 21.9395 34.1078 21.4884C34.1078 21.2847 34.035 21.1537 34.035 20.9646L37.5271 18.9275ZM30.8776 22.0268L26.9344 24.1948L24.1116 17.4143C24.1844 17.3415 24.2426 17.2833 24.3154 17.2106L30.8339 21.0228C30.7612 21.1538 30.7612 21.3575 30.7612 21.5466C30.8194 21.6921 30.8776 21.8231 30.8776 22.0268ZM22.7148 17.618C22.7148 17.618 22.7876 17.618 22.7148 17.618L21.9873 25.6498C21.5217 25.7226 21.2016 25.9117 20.9397 26.3046L17.9132 25.0533L22.7148 17.618ZM20.6778 26.8866C20.6778 26.9594 20.6778 27.0903 20.6778 27.1485C20.6778 27.2213 20.6778 27.2795 20.6778 27.3522L14.8867 29.593L17.5203 25.5189L20.6778 26.8866ZM14.8285 30.4514L20.8815 28.0797C21.0124 28.2834 21.1434 28.4144 21.3471 28.5453L19.7611 33.4197L19.1063 33.6816L14.6975 30.5824C14.8285 30.5096 14.8285 30.4514 14.8285 30.4514ZM20.4158 33.929L23.4423 32.6777L24.8828 37.6102L20.2703 34.38L20.4158 33.929ZM24.6355 38.2796L18.9172 39.5309C18.8444 39.3999 18.7862 39.3272 18.6552 39.269L20.0375 35.0639L24.6355 38.2796ZM24.8246 39.0071L24.228 40.5931L20.023 40.0693L24.8246 39.0071ZM25.4794 39.3272C25.6831 39.3272 25.8722 39.2544 26.0032 39.1235L31.5905 41.5534L24.941 40.6367L25.4794 39.3272ZM34.5006 41.3642L35.1554 36.1698L41.7322 36.0388L34.5006 41.3642ZM42.8526 34.5256L40.4808 25.5771L42.5906 24.7186C43.7838 27.7451 43.9729 31.2372 42.8526 34.5256ZM42.3287 24.0638L40.2917 24.9223L38.7784 19.204C40.3499 20.5135 41.543 22.2159 42.3287 24.0638ZM37.1924 17.8799C37.1924 17.9527 37.1197 18.0836 37.1197 18.1418C37.1197 18.2 37.1197 18.2728 37.1197 18.3455L33.6276 20.3826C33.5549 20.3098 33.4239 20.1789 33.3657 20.1207L34.8062 16.5704C35.752 16.9632 36.4795 17.4143 37.1924 17.8799ZM28.9715 15.319C30.7466 15.319 32.5218 15.6537 34.2387 16.3085L32.7982 19.8588C32.7255 19.8588 32.5945 19.8588 32.4636 19.8588C31.998 19.8588 31.5469 20.0625 31.2122 20.3826L24.6937 16.5704C24.7664 16.4394 24.7664 16.3085 24.7664 16.1048C24.7664 16.032 24.7664 15.9738 24.7664 15.9011C26.1487 15.5809 27.5892 15.319 28.9715 15.319ZM22.06 17.0942C22.06 17.1669 22.1328 17.1669 22.1328 17.2251L17.2584 24.7331L15.6142 24.0784C16.9383 21.0373 19.1645 18.6656 22.06 17.0942ZM16.8655 25.3152L14.4356 29.1274C14.5084 27.6141 14.8285 26.1736 15.4251 24.7186L16.8655 25.3152ZM14.4356 31.1644L18.4515 33.9872L15.3523 35.2385C14.8285 33.929 14.4938 32.5467 14.4356 31.1644ZM19.1063 34.4528L19.441 34.6565L18.0005 39.0653C17.8695 39.0653 17.7386 39.0653 17.6658 39.138C16.8801 38.1486 16.2253 37.101 15.687 35.9078L19.1063 34.4528ZM18.9754 40.5785L23.9807 41.2333L23.1222 43.3431C21.5362 42.6883 20.1539 41.7571 18.9754 40.5785ZM23.7042 43.605L24.6209 41.3061L33.1038 42.3537C33.2347 42.7465 33.5694 43.0084 33.9623 43.0084L34.166 43.5323C30.9503 44.8563 27.2691 44.9873 23.7042 43.605ZM34.8935 43.3431L34.6898 42.8193C34.8207 42.6883 34.9517 42.4264 34.9517 42.1645C34.9517 42.0918 34.9517 42.0336 34.9517 41.9608L41.9213 36.8245C40.3499 39.7928 37.8618 42.0336 34.8935 43.3431Z" fill="#00557E"/>
<path d="M23.3839 7.21469C23.5148 7.41839 23.5876 7.54934 23.6458 7.7385C23.7185 7.9422 23.7767 8.07316 23.7767 8.26232L27.7926 5.30859C28.5201 4.78477 29.4368 4.78477 30.1643 5.30859L34.1802 8.26232C34.253 8.05861 34.253 7.92765 34.3112 7.7385C34.384 7.53479 34.5149 7.34564 34.5731 7.21469C34.9078 6.69087 35.3006 6.29801 35.8244 6.03611L31.7503 3.00962C29.9024 1.62733 27.9381 1.70008 26.163 3.00962L22.0889 6.03611C22.6563 6.29801 23.0492 6.69087 23.3839 7.21469Z" fill="#00557E"/>
<path d="M34.632 52.7573C34.501 52.5536 34.4283 52.4227 34.3701 52.2335C34.2973 52.0298 34.2391 51.8989 34.2391 51.7097L30.2232 54.6634C29.4957 55.1873 28.579 55.1873 27.8515 54.6634L23.8356 51.7097C23.7629 51.9134 23.7628 52.0444 23.7046 52.2335C23.6319 52.4372 23.5009 52.6264 23.4427 52.7573C23.1081 53.2812 22.7152 53.674 22.1914 53.9359L26.2655 56.9624C28.1134 58.3447 30.0777 58.2719 31.8529 56.9624L35.927 53.9359C35.3595 53.674 34.8939 53.2812 34.632 52.7573Z" fill="#00557E"/>
<path d="M8.9065 17.8073C9.11021 17.88 9.29936 17.9382 9.50307 18.011C9.70677 18.0837 9.83772 18.1419 9.96868 18.2729L10.6962 13.3403C10.8271 12.4818 11.4819 11.827 12.3404 11.6961L17.273 10.9686C17.2002 10.8376 17.0693 10.6339 17.0111 10.503C16.9383 10.2993 16.8801 10.1101 16.8074 9.9064C16.6764 9.30983 16.6764 8.72782 16.8801 8.18945L11.8748 8.91697C9.63402 9.25163 8.25173 10.6921 7.93162 12.8601L7.2041 17.8655C7.71337 17.7491 8.30993 17.6763 8.9065 17.8073Z" fill="#00557E"/>
<path d="M49.0364 42.0921C48.8327 42.0193 48.6435 41.9611 48.4398 41.8884C48.2361 41.8156 48.1052 41.7574 47.9742 41.6265L47.2467 46.5591C47.1157 47.4175 46.461 48.0723 45.6025 48.2032L40.6699 48.9308C40.7427 49.0617 40.8736 49.2654 40.9318 49.3964C41.0046 49.6001 41.0628 49.7892 41.1355 49.9929C41.2665 50.5895 41.2665 51.1715 41.0628 51.7099L46.0681 50.9824C48.3089 50.6477 49.6912 49.2072 50.0113 47.0392L50.7388 42.0339C50.2295 42.223 49.633 42.223 49.0364 42.0921Z" fill="#00557E"/>
<path d="M6.7385 35.3115C6.9422 35.2387 7.07315 35.1805 7.26231 35.1805L4.30858 31.1646C3.78476 30.4371 3.78476 29.5204 4.30858 28.7929L7.26231 24.777C7.0586 24.7043 6.92765 24.7042 6.7385 24.646C6.53479 24.5733 6.34563 24.4423 6.21468 24.3841C5.69087 24.0495 5.29801 23.6566 5.0361 23.1328L2.00962 27.2069C0.62733 29.0548 0.700082 31.0191 2.00962 32.7943L5.0361 36.8684C5.29801 36.3446 5.76362 35.9517 6.21468 35.617C6.40384 35.4424 6.53479 35.3842 6.7385 35.3115Z" fill="#00557E"/>
<path d="M55.948 27.1635L52.9215 23.0894C52.6596 23.6132 52.194 24.006 51.7429 24.3407C51.5392 24.4716 51.4083 24.5444 51.2191 24.6026C51.0154 24.6754 50.8845 24.7336 50.6953 24.7336L53.649 28.7495C54.1729 29.477 54.1729 30.3937 53.649 31.1212L50.6953 35.1371C50.899 35.2098 51.03 35.2098 51.2191 35.268C51.4228 35.3408 51.612 35.4717 51.7429 35.5299C52.2668 35.8646 52.6596 36.2575 52.9215 36.7813L55.948 32.7072C57.3303 30.9029 57.2721 28.9386 55.948 27.1635Z" fill="#00557E"/>
<path d="M10.74 46.5735L10.0125 41.6409C9.88157 41.7136 9.67786 41.8446 9.54691 41.9028C9.3432 41.9755 9.15405 42.0337 8.95034 42.1065C8.35378 42.2374 7.77176 42.2374 7.2334 42.0337L7.96092 47.0391C8.29558 49.2798 9.73607 50.6621 11.9041 50.9822L16.9094 51.7098C16.7785 51.1132 16.7057 50.5312 16.8367 49.9928C16.9094 49.7891 16.9676 49.5999 17.0404 49.3962C17.1131 49.1925 17.1713 49.0616 17.3023 48.9306L12.3697 48.2031C11.5403 48.1449 10.8128 47.4174 10.74 46.5735Z" fill="#00557E"/>
<path d="M47.2624 13.3404L47.9899 18.273C48.1209 18.2002 48.3246 18.0693 48.4556 18.0111C48.6593 17.9383 48.8484 17.8801 49.0521 17.8074C49.6487 17.6764 50.2307 17.6764 50.7691 17.8801L50.0416 12.8748C49.7069 10.634 48.2664 9.25173 46.0984 8.93162L41.0931 8.2041C41.224 8.80067 41.2968 9.38268 41.1658 9.92105C41.0931 10.1248 41.0349 10.3139 40.9621 10.5176C40.8894 10.7213 40.8311 10.8523 40.7002 10.9832L45.6328 11.7108C46.4767 11.8272 47.1315 12.4819 47.2624 13.3404Z" fill="#00557E"/>
<path d="M74.0187 20.4265H72.7237L72.0835 18.6077H69.2752L68.6641 20.4265H67.3691L70.0464 13.2822H71.385L74.0187 20.4265ZM71.7634 17.6473L70.7739 14.7955C70.7448 14.7082 70.7157 14.5481 70.6866 14.3444H70.6721C70.643 14.5336 70.6139 14.6791 70.5702 14.7955L69.5953 17.6473H71.7634Z" fill="#00557E"/>
<path d="M80.0865 13.8064L76.1724 19.4228H80.0428V20.4268H74.5137V19.8884L78.4423 14.3011H74.8192V13.2971H80.0865V13.8064V13.8064Z" fill="#00557E"/>
<path d="M80.7266 16.3525H86.1539C86.0957 15.6832 85.8483 15.1594 85.4118 14.7666C84.9753 14.3737 84.4078 14.1845 83.7385 14.1845C82.9528 14.1845 82.2835 14.3882 81.716 14.7811V13.6898C82.3126 13.3406 83.0255 13.166 83.8694 13.166C84.9753 13.166 85.8483 13.4861 86.474 14.1409C87.0996 14.7811 87.4197 15.6832 87.4197 16.8182C87.4197 17.8949 87.0996 18.7825 86.474 19.4954C85.8483 20.1939 85.0044 20.5576 83.9568 20.5576C82.9237 20.5576 82.1234 20.2084 81.5559 19.4954C81.0176 18.7679 80.7266 17.7348 80.7266 16.3525ZM86.1539 17.342H82.007C82.0215 18.0113 82.2107 18.5497 82.5599 18.9425C82.9091 19.3354 83.3893 19.5391 84.0004 19.5391C84.6115 19.5391 85.1062 19.3354 85.4991 18.9425C85.8774 18.5497 86.0957 18.0113 86.1539 17.342Z" fill="#00557E"/>
<path d="M94.244 20.4265H92.8617L91.7268 18.5204C91.6249 18.3458 91.5231 18.2003 91.4212 18.0693C91.3194 17.9383 91.2175 17.8365 91.1157 17.7637C91.0138 17.691 90.8974 17.6328 90.781 17.5891C90.6646 17.5455 90.5336 17.5309 90.3736 17.5309H89.8934V20.4265H88.7148V13.2822H91.0575C91.3921 13.2822 91.6977 13.3259 91.9887 13.3986C92.2651 13.4714 92.5125 13.6023 92.7308 13.7624C92.9345 13.9224 93.1091 14.1261 93.2255 14.359C93.3419 14.6063 93.4001 14.8828 93.4001 15.2029C93.4001 15.4502 93.3564 15.683 93.2837 15.9013C93.2109 16.105 93.1091 16.2942 92.9636 16.4688C92.8326 16.6288 92.658 16.7743 92.4689 16.8907C92.2797 17.0071 92.0614 17.0944 91.8141 17.1526V17.1672C91.945 17.2399 92.0614 17.3272 92.1487 17.4145C92.2506 17.5018 92.3379 17.5891 92.4252 17.691C92.5125 17.7783 92.5998 17.8947 92.6871 18.0111C92.7744 18.1275 92.8617 18.273 92.9636 18.4185L94.244 20.4265ZM89.908 14.2571V16.5706H90.8974C91.0866 16.5706 91.2466 16.5415 91.4067 16.4833C91.5667 16.4251 91.6977 16.3524 91.8141 16.236C91.9305 16.1341 92.0178 16.0031 92.076 15.8431C92.1342 15.6976 92.1778 15.523 92.1778 15.3338C92.1778 14.9992 92.076 14.7227 91.8577 14.5336C91.6395 14.3444 91.3339 14.2425 90.9265 14.2425H89.908V14.2571Z" fill="#00557E"/>
<path d="M95.0723 20.4265V13.2822H97.3421C98.026 13.2822 98.5789 13.4277 98.9863 13.7333C99.3937 14.0388 99.5974 14.4317 99.5974 14.9119C99.5974 15.3193 99.481 15.6685 99.2482 15.974C99.0154 16.2796 98.6953 16.4833 98.3025 16.6143V16.6288C98.7972 16.687 99.19 16.8616 99.481 17.1672C99.772 17.4727 99.9175 17.8801 99.9175 18.3603C99.9175 18.9714 99.6702 19.4661 99.19 19.8445C98.7099 20.2228 98.0987 20.4119 97.3712 20.4119H95.0723V20.4265ZM96.2509 14.2425V16.2796H97.022C97.4294 16.2796 97.7495 16.1778 97.9969 15.9886C98.2297 15.7994 98.3461 15.523 98.3461 15.1592C98.3461 14.5481 97.9387 14.2425 97.1239 14.2425H96.2509ZM96.2509 17.2254V19.4807H97.2548C97.6913 19.4807 98.0405 19.3788 98.2734 19.1751C98.5207 18.9714 98.6371 18.695 98.6371 18.3312C98.6371 17.5891 98.1279 17.2254 97.0948 17.2254H96.2509Z" fill="#00557E"/>
<path d="M107.092 20.4265H105.797L105.157 18.6077H102.348L101.737 20.4265H100.442L103.12 13.2822H104.458L107.092 20.4265ZM104.851 17.6473L103.862 14.7955C103.833 14.7082 103.804 14.5481 103.774 14.3444H103.76C103.731 14.5336 103.702 14.6791 103.658 14.7955L102.683 17.6473H104.851Z" fill="#00557E"/>
<path d="M112.286 13.2968L109.943 17.8365V20.4265H108.765V17.851L106.48 13.2822H107.834L109.23 16.3378C109.245 16.3815 109.303 16.5124 109.376 16.7452H109.391C109.42 16.6434 109.478 16.4979 109.551 16.3378L111.02 13.2822H112.286V13.2968Z" fill="#00557E"/>
<path d="M117.932 20.1355C117.394 20.412 116.724 20.5575 115.924 20.5575C114.891 20.5575 114.062 20.2374 113.436 19.5826C112.81 18.9278 112.505 18.0694 112.505 17.0072C112.505 15.8722 112.854 14.941 113.553 14.2426C114.251 13.5442 115.139 13.1804 116.215 13.1804C116.899 13.1804 117.481 13.2823 117.932 13.4714V14.65C117.452 14.359 116.914 14.2281 116.346 14.2281C115.575 14.2281 114.949 14.4754 114.469 14.9701C113.989 15.4648 113.756 16.1196 113.756 16.949C113.756 17.7347 113.974 18.3604 114.426 18.826C114.877 19.2916 115.459 19.5244 116.186 19.5244C116.855 19.5244 117.437 19.3643 117.932 19.0442V20.1355V20.1355Z" fill="#00557E"/>
<path d="M125.15 20.4265H123.855L123.214 18.6077H120.406L119.795 20.4265H118.5L121.177 13.2822H122.516L125.15 20.4265ZM122.894 17.6473L121.905 14.7955C121.876 14.7082 121.847 14.5481 121.817 14.3444H121.803C121.774 14.5336 121.745 14.6791 121.701 14.7955L120.726 17.6473H122.894Z" fill="#00557E"/>
<path d="M132.177 20.4265H130.882L127.477 15.1738C127.39 15.0428 127.317 14.8973 127.259 14.7664H127.23C127.259 14.9119 127.274 15.2465 127.274 15.7412V20.4265H126.124V13.2822H127.506L130.795 18.404C130.94 18.6222 131.028 18.7677 131.057 18.8405H131.071C131.042 18.6513 131.028 18.3312 131.028 17.8801V13.2822H132.162V20.4265H132.177Z" fill="#00557E"/>
<path d="M142.274 20.4265H140.892L139.757 18.5204C139.655 18.3458 139.553 18.2003 139.452 18.0693C139.35 17.9383 139.248 17.8365 139.146 17.7637C139.044 17.691 138.928 17.6328 138.811 17.5891C138.695 17.5455 138.564 17.5309 138.404 17.5309H137.924V20.4265H136.745V13.2822H139.088C139.422 13.2822 139.728 13.3259 140.019 13.3986C140.295 13.4714 140.543 13.6023 140.761 13.7624C140.965 13.9224 141.139 14.1261 141.256 14.359C141.372 14.6063 141.43 14.8828 141.43 15.2029C141.43 15.4502 141.387 15.683 141.314 15.9013C141.241 16.105 141.139 16.2942 140.994 16.4688C140.863 16.6288 140.688 16.7743 140.499 16.8907C140.31 17.0071 140.092 17.0944 139.844 17.1526V17.1672C139.975 17.2399 140.092 17.3272 140.179 17.4145C140.281 17.5018 140.368 17.5891 140.455 17.691C140.543 17.7783 140.63 17.8947 140.717 18.0111C140.805 18.1275 140.892 18.273 140.994 18.4185L142.274 20.4265ZM137.938 14.2571V16.5706H138.928C139.117 16.5706 139.277 16.5415 139.437 16.4833C139.597 16.4251 139.728 16.3524 139.844 16.236C139.961 16.1341 140.048 16.0031 140.106 15.8431C140.164 15.6976 140.208 15.523 140.208 15.3338C140.208 14.9992 140.106 14.7227 139.888 14.5336C139.67 14.3444 139.364 14.2425 138.957 14.2425H137.938V14.2571Z" fill="#00557E"/>
<path d="M147.106 20.4265H143.104V13.2822H146.946V14.2862H144.283V16.3087H146.742V17.3127H144.283V19.4225H147.106V20.4265V20.4265Z" fill="#00557E"/>
<path d="M148.051 20.1502V18.9279C148.167 19.0298 148.284 19.1171 148.444 19.1898C148.589 19.2626 148.749 19.3353 148.924 19.3935C149.098 19.4517 149.258 19.4954 149.433 19.5245C149.608 19.5536 149.753 19.5681 149.899 19.5681C150.393 19.5681 150.772 19.4808 151.005 19.3208C151.252 19.1607 151.368 18.9134 151.368 18.5933C151.368 18.4187 151.325 18.2732 151.252 18.1568C151.165 18.0258 151.063 17.924 150.917 17.8221C150.772 17.7202 150.597 17.6184 150.408 17.5311C150.204 17.4438 150.001 17.3419 149.768 17.2401C149.52 17.1091 149.302 16.9782 149.084 16.8472C148.88 16.7163 148.691 16.5708 148.545 16.4107C148.385 16.2507 148.269 16.0615 148.182 15.8723C148.094 15.6686 148.051 15.4358 148.051 15.1594C148.051 14.8247 148.124 14.5337 148.284 14.2863C148.429 14.039 148.633 13.8353 148.88 13.6752C149.128 13.5152 149.404 13.3988 149.724 13.3115C150.044 13.2387 150.364 13.1951 150.684 13.1951C151.426 13.1951 151.979 13.2824 152.314 13.4424V14.6065C151.907 14.3155 151.383 14.1699 150.757 14.1699C150.583 14.1699 150.408 14.1845 150.233 14.2136C150.059 14.2427 149.899 14.3009 149.768 14.3737C149.637 14.4464 149.52 14.5483 149.433 14.6647C149.346 14.7811 149.302 14.9266 149.302 15.1012C149.302 15.2612 149.331 15.3922 149.404 15.5086C149.477 15.625 149.564 15.7268 149.695 15.8287C149.826 15.9305 149.986 16.0178 150.161 16.1051C150.35 16.1924 150.553 16.2943 150.801 16.3962C151.048 16.5271 151.281 16.6581 151.499 16.8036C151.717 16.9491 151.921 17.1091 152.081 17.2837C152.256 17.4583 152.387 17.6475 152.474 17.8658C152.576 18.0695 152.62 18.3168 152.62 18.5787C152.62 18.9425 152.547 19.248 152.401 19.4954C152.256 19.7428 152.052 19.9465 151.805 20.1065C151.557 20.2666 151.266 20.3684 150.946 20.4412C150.626 20.5139 150.292 20.543 149.928 20.543C149.811 20.543 149.666 20.5285 149.491 20.5139C149.317 20.4994 149.142 20.4703 148.953 20.4412C148.764 20.4121 148.604 20.3684 148.429 20.3102C148.284 20.2666 148.153 20.2084 148.051 20.1502Z" fill="#00557E"/>
<path d="M155.108 17.8365V20.4265H153.93V13.2822H156.098C156.913 13.2822 157.553 13.4714 158.004 13.8497C158.455 14.228 158.688 14.7664 158.688 15.4648C158.688 16.1632 158.455 16.7307 157.975 17.1672C157.509 17.6037 156.869 17.822 156.069 17.822H155.108V17.8365ZM155.108 14.2717V16.8762H155.879C156.389 16.8762 156.767 16.7598 157.043 16.527C157.305 16.2942 157.436 15.9595 157.436 15.5375C157.436 14.6936 156.942 14.2717 155.967 14.2717H155.108Z" fill="#00557E"/>
<path d="M165.38 17.5458C165.38 19.5538 164.435 20.5578 162.529 20.5578C160.71 20.5578 159.808 19.5974 159.808 17.6622V13.2971H160.986V17.4149C160.986 18.8117 161.525 19.5101 162.616 19.5101C163.663 19.5101 164.187 18.8408 164.187 17.4876V13.2971H165.366V17.5458H165.38Z" fill="#00557E"/>
<path d="M167.055 20.4265V13.2822H169.325C170.008 13.2822 170.561 13.4277 170.969 13.7333C171.376 14.0388 171.58 14.4317 171.58 14.9119C171.58 15.3193 171.463 15.6685 171.231 15.974C170.998 16.2796 170.678 16.4833 170.285 16.6143V16.6288C170.78 16.687 171.172 16.8616 171.463 17.1672C171.754 17.4727 171.9 17.8801 171.9 18.3603C171.9 18.9714 171.653 19.4661 171.172 19.8445C170.692 20.2228 170.081 20.4119 169.354 20.4119H167.055V20.4265ZM168.233 14.2425V16.2796H169.004C169.412 16.2796 169.732 16.1778 169.979 15.9886C170.212 15.7994 170.329 15.523 170.329 15.1592C170.329 14.5481 169.921 14.2425 169.106 14.2425H168.233ZM168.233 17.2254V19.4807H169.237C169.674 19.4807 170.023 19.3788 170.256 19.1751C170.503 18.9714 170.62 18.695 170.62 18.3312C170.62 17.5891 170.11 17.2254 169.077 17.2254H168.233Z" fill="#00557E"/>
<path d="M177.167 20.4265H173.209V13.2822H174.388V19.4225H177.152V20.4265H177.167Z" fill="#00557E"/>
<path d="M178.781 12.6276C178.621 12.6276 178.475 12.5694 178.345 12.4675C178.228 12.3511 178.17 12.2202 178.17 12.0601C178.17 11.9001 178.228 11.7691 178.345 11.6527C178.461 11.5363 178.606 11.4927 178.781 11.4927C178.956 11.4927 179.101 11.5509 179.218 11.6527C179.334 11.7546 179.392 11.9001 179.392 12.0601C179.392 12.2202 179.334 12.3511 179.218 12.4675C179.101 12.5839 178.956 12.6276 178.781 12.6276ZM179.407 20.4266H178.184V13.2824H179.407V20.4266Z" fill="#00557E"/>
<path d="M186.566 20.4268H185.024L182.536 17.1675C182.448 17.0511 182.39 16.9638 182.361 16.9202H182.347V20.4414H181.168V13.2971H182.347V16.6583H182.361C182.405 16.5855 182.463 16.4982 182.536 16.4109L184.937 13.2971H186.362L183.554 16.7165L186.566 20.4268Z" fill="#00557E"/>
<path d="M193.259 20.4265H191.964L191.324 18.6077H188.515L187.904 20.4265H186.609L189.287 13.2822H190.625L193.259 20.4265ZM191.004 17.6473L190.014 14.7955C189.985 14.7082 189.956 14.5481 189.927 14.3444H189.912C189.883 14.5336 189.854 14.6791 189.81 14.7955L188.836 17.6473H191.004Z" fill="#00557E"/>
<path d="M193.914 20.1502V18.9279C194.03 19.0298 194.147 19.1171 194.307 19.1898C194.452 19.2626 194.612 19.3353 194.787 19.3935C194.962 19.4517 195.122 19.4954 195.296 19.5245C195.471 19.5536 195.616 19.5681 195.762 19.5681C196.257 19.5681 196.635 19.4808 196.868 19.3208C197.115 19.1607 197.232 18.9134 197.232 18.5933C197.232 18.4187 197.188 18.2732 197.115 18.1568C197.028 18.0258 196.926 17.924 196.781 17.8221C196.635 17.7202 196.46 17.6184 196.271 17.5311C196.068 17.4438 195.864 17.3419 195.631 17.2401C195.384 17.1091 195.165 16.9782 194.947 16.8472C194.743 16.7163 194.554 16.5708 194.409 16.4107C194.249 16.2507 194.132 16.0615 194.045 15.8723C193.958 15.6686 193.914 15.4358 193.914 15.1594C193.914 14.8247 193.987 14.5337 194.147 14.2863C194.292 14.039 194.496 13.8353 194.743 13.6752C194.991 13.5152 195.267 13.3988 195.587 13.3115C195.907 13.2387 196.228 13.1951 196.548 13.1951C197.29 13.1951 197.843 13.2824 198.177 13.4424V14.6065C197.77 14.3155 197.246 14.1699 196.62 14.1699C196.446 14.1699 196.271 14.1845 196.097 14.2136C195.922 14.2427 195.762 14.3009 195.631 14.3737C195.5 14.4464 195.384 14.5483 195.296 14.6647C195.209 14.7811 195.165 14.9266 195.165 15.1012C195.165 15.2612 195.195 15.3922 195.267 15.5086C195.34 15.625 195.427 15.7268 195.558 15.8287C195.689 15.9305 195.849 16.0178 196.024 16.1051C196.213 16.1924 196.417 16.2943 196.664 16.3962C196.911 16.5271 197.144 16.6581 197.363 16.8036C197.581 16.9491 197.784 17.1091 197.945 17.2837C198.119 17.4583 198.25 17.6475 198.337 17.8658C198.439 18.0695 198.483 18.3168 198.483 18.5787C198.483 18.9425 198.41 19.248 198.265 19.4954C198.119 19.7428 197.915 19.9465 197.668 20.1065C197.421 20.2666 197.13 20.3684 196.81 20.4412C196.489 20.5139 196.155 20.543 195.791 20.543C195.675 20.543 195.529 20.5285 195.355 20.5139C195.18 20.4994 195.005 20.4703 194.816 20.4412C194.627 20.4121 194.467 20.3684 194.292 20.3102C194.147 20.2666 194.016 20.2084 193.914 20.1502Z" fill="#00557E"/>
<path d="M201 20.4265H199.777V13.2822H201V20.4265Z" fill="#00557E"/>
<path d="M73.6698 33.5219H72.2875L71.1526 31.6158C71.0507 31.4412 70.9488 31.2957 70.847 31.1648C70.7451 31.0338 70.6433 30.932 70.5414 30.8592C70.4396 30.7865 70.3232 30.7283 70.2068 30.6846C70.0904 30.641 69.9594 30.6264 69.7994 30.6264H69.3192V33.5219H68.1406V26.3777H70.4832C70.8179 26.3777 71.1235 26.4213 71.4145 26.4941C71.6909 26.5668 71.9383 26.6978 72.1565 26.8578C72.3602 27.0179 72.5348 27.2216 72.6512 27.4544C72.7677 27.7018 72.8259 27.9782 72.8259 28.2983C72.8259 28.5457 72.7822 28.7785 72.7094 28.9968C72.6367 29.2005 72.5348 29.3896 72.3893 29.5642C72.2584 29.7243 72.0838 29.8698 71.8946 29.9862C71.7055 30.1026 71.4872 30.1899 71.2399 30.2481V30.2626C71.3708 30.3354 71.4872 30.4227 71.5745 30.51C71.6764 30.5973 71.7637 30.6846 71.851 30.7865C71.9383 30.8738 72.0256 30.9902 72.1129 31.1066C72.2002 31.223 72.2875 31.3685 72.3893 31.514L73.6698 33.5219ZM69.3338 27.3526V29.6661H70.3232C70.5123 29.6661 70.6724 29.637 70.8324 29.5788C70.9925 29.5206 71.1235 29.4478 71.2399 29.3314C71.3563 29.2296 71.4436 29.0986 71.5018 28.9386C71.56 28.793 71.6036 28.6184 71.6036 28.4293C71.6036 28.0946 71.5018 27.8182 71.2835 27.629C71.0653 27.4399 70.7597 27.338 70.3523 27.338H69.3338V27.3526Z" fill="#00557E"/>
<path d="M74.0342 29.4478H79.4615C79.4033 28.7784 79.1559 28.2546 78.7194 27.8618C78.2829 27.4689 77.7154 27.2798 77.0461 27.2798C76.2604 27.2798 75.5911 27.4835 75.0236 27.8763V26.785C75.6202 26.4358 76.3331 26.2612 77.1771 26.2612C78.2829 26.2612 79.1559 26.5813 79.7816 27.2361C80.4073 27.8763 80.7274 28.7784 80.7274 29.9134C80.7274 30.9901 80.4073 31.8777 79.7816 32.5907C79.1559 33.2891 78.312 33.6528 77.2644 33.6528C76.2313 33.6528 75.431 33.3036 74.8636 32.5907C74.2961 31.8777 74.0342 30.83 74.0342 29.4478ZM79.4615 30.4372H75.3146C75.3292 31.1065 75.5183 31.6449 75.8675 32.0377C76.2167 32.4306 76.6969 32.6343 77.308 32.6343C77.9191 32.6343 78.4138 32.4306 78.8067 32.0377C79.1996 31.6449 79.4033 31.1065 79.4615 30.4372Z" fill="#00557E"/>
<path d="M84.9751 33.6383C84.4658 33.6383 84.0002 33.551 83.5783 33.3764C83.1563 33.2018 82.8071 32.9544 82.5015 32.6343C82.2105 32.3142 81.9777 31.9359 81.8177 31.4994C81.6576 31.0629 81.5703 30.5682 81.5703 30.0298C81.5703 29.4623 81.6576 28.9385 81.8177 28.4729C81.9777 28.0073 82.2105 27.6144 82.5161 27.2798C82.8216 26.9451 83.1854 26.6977 83.6219 26.5231C84.0584 26.3485 84.5386 26.2612 85.077 26.2612C85.5717 26.2612 86.0227 26.3485 86.4447 26.5231C86.8667 26.6977 87.2013 26.9451 87.5069 27.2652C87.8124 27.5853 88.0307 27.9636 88.1907 28.4001C88.3508 28.8366 88.4381 29.3314 88.4381 29.8552C88.4381 30.5536 88.3217 31.1793 88.0889 31.7031C87.8561 32.2269 87.5214 32.6634 87.0995 32.9835L89.1656 34.4822H87.3614L86.0809 33.4928C85.9063 33.5364 85.7317 33.5801 85.5571 33.6092C85.368 33.6383 85.1788 33.6383 84.9751 33.6383ZM85.0333 27.3089C84.7132 27.3089 84.4076 27.3671 84.1457 27.498C83.8693 27.629 83.6365 27.8036 83.4473 28.0364C83.2582 28.2692 83.0981 28.5456 82.9962 28.8803C82.8944 29.2004 82.8362 29.5642 82.8362 29.9716C82.8362 30.3644 82.8944 30.7282 82.9962 31.0483C83.0981 31.3684 83.2436 31.6449 83.4328 31.8777C83.6219 32.1105 83.8547 32.2851 84.1166 32.416C84.3785 32.547 84.6695 32.6052 85.0042 32.6052C85.3389 32.6052 85.659 32.547 85.9209 32.4306C86.1973 32.3142 86.4301 32.1396 86.6193 31.9213C86.8085 31.7031 86.954 31.4266 87.0558 31.092C87.1577 30.7573 87.2159 30.3935 87.2159 29.9861C87.2159 29.5642 87.1722 29.1859 87.0704 28.8512C86.9685 28.5165 86.823 28.2401 86.6484 28.0073C86.4592 27.7745 86.241 27.5999 85.9645 27.4835C85.6735 27.3671 85.368 27.3089 85.0333 27.3089Z" fill="#00557E"/>
<path d="M89.2676 29.4478H94.6949C94.6367 28.7784 94.3893 28.2546 93.9528 27.8618C93.5163 27.4689 92.9488 27.2798 92.2795 27.2798C91.4938 27.2798 90.8245 27.4835 90.257 27.8763V26.785C90.8536 26.4358 91.5665 26.2612 92.4105 26.2612C93.5163 26.2612 94.3893 26.5813 95.015 27.2361C95.6407 27.8763 95.9608 28.7784 95.9608 29.9134C95.9608 30.9901 95.6407 31.8777 95.015 32.5907C94.3893 33.2891 93.5454 33.6528 92.4978 33.6528C91.4647 33.6528 90.6644 33.3036 90.0969 32.5907C89.5295 31.8777 89.2676 30.83 89.2676 29.4478ZM94.6949 30.4372H90.548C90.5626 31.1065 90.7517 31.6449 91.1009 32.0377C91.4501 32.4306 91.9303 32.6343 92.5414 32.6343C93.1525 32.6343 93.6472 32.4306 94.0401 32.0377C94.433 31.6449 94.6367 31.1065 94.6949 30.4372Z" fill="#00557E"/>
<path d="M104.939 33.522H103.76V28.9096C103.76 28.5312 103.789 28.0656 103.833 27.5273H103.818C103.746 27.8328 103.687 28.0656 103.629 28.1966L101.505 33.5366H100.69L98.5511 28.2402C98.4929 28.0802 98.4347 27.8474 98.362 27.5273H98.3474C98.3765 27.8183 98.3911 28.2839 98.3911 28.9241V33.5366H97.2998V26.3923H98.9731L100.85 31.1503C100.996 31.5141 101.083 31.7905 101.127 31.9651H101.156C101.272 31.5868 101.374 31.3104 101.461 31.1358L103.367 26.4069H104.982V33.522H104.939Z" fill="#00557E"/>
<path d="M106.364 33.2454V32.0231C106.481 32.125 106.597 32.2123 106.757 32.2851C106.903 32.3578 107.063 32.4305 107.237 32.4887C107.412 32.5469 107.572 32.5906 107.747 32.6197C107.921 32.6488 108.067 32.6634 108.212 32.6634C108.707 32.6634 109.085 32.576 109.318 32.416C109.551 32.2559 109.682 32.0086 109.682 31.6885C109.682 31.5139 109.638 31.3684 109.565 31.252C109.478 31.121 109.376 31.0192 109.231 30.9173C109.085 30.8155 108.911 30.7136 108.721 30.6263C108.518 30.5245 108.314 30.4372 108.081 30.3353C107.834 30.2043 107.616 30.0734 107.397 29.9424C107.194 29.8115 107.004 29.666 106.859 29.5059C106.699 29.3459 106.583 29.1567 106.495 28.9676C106.408 28.7639 106.364 28.531 106.364 28.2546C106.364 27.9199 106.437 27.6289 106.597 27.3816C106.743 27.1342 106.946 26.9305 107.194 26.7705C107.441 26.6104 107.717 26.494 108.038 26.4067C108.358 26.3339 108.678 26.2903 108.998 26.2903C109.74 26.2903 110.293 26.3776 110.628 26.5376V27.7017C110.22 27.4107 109.696 27.2652 109.071 27.2652C108.896 27.2652 108.721 27.2797 108.547 27.3088C108.372 27.3379 108.212 27.3961 108.081 27.4689C107.95 27.5416 107.834 27.6435 107.747 27.7599C107.659 27.8763 107.616 28.0218 107.616 28.1964C107.616 28.3564 107.645 28.4874 107.717 28.6038C107.79 28.7202 107.877 28.8221 108.008 28.9239C108.139 29.0258 108.299 29.1131 108.474 29.2004C108.663 29.2877 108.867 29.3895 109.114 29.4914C109.362 29.6223 109.594 29.7533 109.813 29.8988C110.031 30.0443 110.235 30.2043 110.395 30.3789C110.569 30.5535 110.7 30.7427 110.788 30.961C110.889 31.1647 110.933 31.412 110.933 31.6739C110.933 32.0377 110.86 32.3433 110.715 32.5906C110.569 32.838 110.366 33.0417 110.118 33.2017C109.871 33.3618 109.58 33.4636 109.26 33.5364C108.94 33.6091 108.605 33.6382 108.241 33.6382C108.125 33.6382 107.979 33.6237 107.805 33.6091C107.63 33.5946 107.456 33.5655 107.266 33.5364C107.077 33.5073 106.917 33.4636 106.743 33.4054C106.597 33.3618 106.466 33.3036 106.364 33.2454Z" fill="#00557E"/>
<path d="M118.107 33.5219H116.812L116.171 31.7031H113.363L112.752 33.5219H111.457L114.134 26.3777H115.473L118.107 33.5219ZM115.851 30.7428L114.862 27.8909C114.833 27.8036 114.804 27.6436 114.775 27.4399H114.76C114.731 27.629 114.702 27.7745 114.658 27.8909L113.683 30.7428H115.851Z" fill="#00557E"/>
<path d="M123.039 33.5219H119.081V26.3777H120.26V32.518H123.024V33.5219H123.039Z" fill="#00557E"/>
<path d="M127.463 25.7228C127.303 25.7228 127.157 25.6646 127.026 25.5628C126.91 25.4464 126.852 25.3154 126.852 25.1554C126.852 24.9953 126.91 24.8643 127.026 24.7479C127.143 24.6315 127.288 24.5879 127.463 24.5879C127.637 24.5879 127.783 24.6461 127.899 24.7479C128.016 24.8498 128.074 24.9953 128.074 25.1554C128.074 25.3154 128.016 25.4464 127.899 25.5628C127.768 25.6792 127.623 25.7228 127.463 25.7228ZM128.088 33.5218H126.866V26.3776H128.088V33.5218Z" fill="#00557E"/>
<path d="M135.902 33.5219H134.607L131.202 28.2692C131.115 28.1383 131.042 27.9928 130.984 27.8618H130.954C130.984 28.0073 130.998 28.342 130.998 28.8367V33.5219H129.849V26.3777H131.231L134.519 31.4994C134.665 31.7177 134.752 31.8632 134.781 31.9359H134.796C134.767 31.7468 134.752 31.4267 134.752 30.9756V26.3777H135.887V33.5219H135.902Z" fill="#00557E"/>
<path d="M143.06 33.522H141.518L139.03 30.2627C138.943 30.1463 138.884 30.059 138.855 30.0154H138.841V33.5366H137.662V26.3923H138.841V29.7535H138.855C138.899 29.6807 138.957 29.5934 139.03 29.5061L141.431 26.3923H142.857L140.048 29.8117L143.06 33.522Z" fill="#00557E"/>
<path d="M144.471 25.7228C144.311 25.7228 144.166 25.6646 144.035 25.5628C143.919 25.4464 143.86 25.3154 143.86 25.1554C143.86 24.9953 143.919 24.8643 144.035 24.7479C144.151 24.6315 144.297 24.5879 144.471 24.5879C144.646 24.5879 144.792 24.6461 144.908 24.7479C145.024 24.8498 145.083 24.9953 145.083 25.1554C145.083 25.3154 145.024 25.4464 144.908 25.5628C144.792 25.6792 144.646 25.7228 144.471 25.7228ZM145.112 33.5218H143.889V26.3776H145.112V33.5218Z" fill="#00557E"/>
<path d="M146.537 33.2454V32.0231C146.654 32.125 146.77 32.2123 146.93 32.2851C147.075 32.3578 147.236 32.4305 147.41 32.4887C147.585 32.5469 147.745 32.5906 147.919 32.6197C148.094 32.6488 148.239 32.6634 148.385 32.6634C148.88 32.6634 149.258 32.576 149.491 32.416C149.724 32.2559 149.855 32.0086 149.855 31.6885C149.855 31.5139 149.811 31.3684 149.738 31.252C149.651 31.121 149.549 31.0192 149.404 30.9173C149.258 30.8155 149.083 30.7136 148.894 30.6263C148.691 30.5245 148.487 30.4372 148.254 30.3353C148.007 30.2043 147.788 30.0734 147.57 29.9424C147.366 29.8115 147.177 29.666 147.032 29.5059C146.872 29.3459 146.755 29.1567 146.668 28.9676C146.581 28.7639 146.537 28.531 146.537 28.2546C146.537 27.9199 146.61 27.6289 146.77 27.3816C146.915 27.1342 147.119 26.9305 147.366 26.7705C147.614 26.6104 147.89 26.494 148.21 26.4067C148.531 26.3339 148.851 26.2903 149.171 26.2903C149.913 26.2903 150.466 26.3776 150.8 26.5376V27.7017C150.393 27.4107 149.869 27.2652 149.243 27.2652C149.069 27.2652 148.894 27.2797 148.72 27.3088C148.545 27.3379 148.385 27.3961 148.254 27.4689C148.123 27.5416 148.007 27.6435 147.919 27.7599C147.832 27.8763 147.788 28.0218 147.788 28.1964C147.788 28.3564 147.818 28.4874 147.89 28.6038C147.963 28.7202 148.05 28.8221 148.181 28.9239C148.312 29.0258 148.472 29.1131 148.647 29.2004C148.836 29.2877 149.04 29.3895 149.287 29.4914C149.534 29.6223 149.767 29.7533 149.986 29.8988C150.204 30.0443 150.408 30.2043 150.568 30.3789C150.742 30.5535 150.873 30.7427 150.96 30.961C151.062 31.1647 151.106 31.412 151.106 31.6739C151.106 32.0377 151.033 32.3433 150.888 32.5906C150.742 32.838 150.538 33.0417 150.291 33.2017C150.044 33.3618 149.753 33.4636 149.433 33.5364C149.113 33.6091 148.778 33.6382 148.414 33.6382C148.298 33.6382 148.152 33.6237 147.978 33.6091C147.803 33.5946 147.628 33.5655 147.439 33.5364C147.25 33.5073 147.09 33.4636 146.915 33.4054C146.77 33.3618 146.639 33.3036 146.537 33.2454ZM149.913 34.7586C149.913 35.3988 149.433 35.7189 148.472 35.7189C148.312 35.7189 148.181 35.7189 148.065 35.7044V35.1515C148.21 35.166 148.327 35.1806 148.414 35.1806C148.851 35.1806 149.083 35.0496 149.083 34.7732C149.083 34.5258 148.88 34.4094 148.487 34.4094C148.458 34.4094 148.385 34.4094 148.298 34.424V33.5218H148.982V33.9874C149.273 33.9874 149.505 34.0602 149.665 34.1912C149.825 34.3221 149.913 34.5113 149.913 34.7586Z" fill="#00557E"/>
<path d="M158.279 33.5219H156.984L156.344 31.7031H153.521L152.91 33.5219H151.615L154.293 26.3777H155.631L158.279 33.5219ZM156.024 30.7428L155.035 27.8909C155.005 27.8036 154.976 27.6436 154.947 27.4399H154.933C154.904 27.629 154.875 27.7745 154.831 27.8909L153.856 30.7428H156.024Z" fill="#00557E"/>
<path d="M163.111 27.3962H160.448V29.5351H162.907V30.5391H160.448V33.5219H159.27V26.3777H163.125V27.3962H163.111Z" fill="#00557E"/>
<path d="M172.772 26.3922L170.211 33.5365H168.887L166.37 26.3922H167.665L169.426 31.805C169.484 31.9796 169.528 32.1833 169.557 32.4015H169.571C169.6 32.2124 169.644 32.0087 169.717 31.7904L171.521 26.3777H172.772V26.3922Z" fill="#00557E"/>
<path d="M173.252 29.4478H178.679C178.621 28.7784 178.374 28.2546 177.937 27.8618C177.501 27.4689 176.933 27.2798 176.264 27.2798C175.478 27.2798 174.809 27.4835 174.241 27.8763V26.785C174.838 26.4358 175.551 26.2612 176.395 26.2612C177.501 26.2612 178.374 26.5813 178.999 27.2361C179.625 27.8763 179.945 28.7784 179.945 29.9134C179.945 30.9901 179.625 31.8777 178.999 32.5907C178.374 33.2891 177.53 33.6528 176.482 33.6528C175.449 33.6528 174.649 33.3036 174.081 32.5907C173.514 31.8777 173.252 30.83 173.252 29.4478ZM178.679 30.4372H174.532C174.547 31.1065 174.736 31.6449 175.085 32.0377C175.435 32.4306 175.915 32.6343 176.526 32.6343C177.137 32.6343 177.632 32.4306 178.024 32.0377C178.417 31.6449 178.621 31.1065 178.679 30.4372Z" fill="#00557E"/>
<path d="M74.2073 46.6174H72.9123L69.5075 41.3647C69.4202 41.2337 69.3474 41.0882 69.2892 40.9573H69.2601C69.2892 41.1028 69.3038 41.4375 69.3038 41.9322V46.6174H68.1543V39.4731H69.5366L72.825 44.5949C72.9705 44.8131 73.0578 44.9587 73.0869 45.0314H73.1014C73.0723 44.8423 73.0578 44.5221 73.0578 44.0711V39.4731H74.1927V46.6174H74.2073Z" fill="#00557E"/>
<path d="M75.5029 42.5432H80.9302C80.872 41.8739 80.6247 41.3501 80.1882 40.9572C79.7516 40.5644 79.1842 40.3752 78.5149 40.3752C77.7291 40.3752 77.0598 40.5789 76.4924 40.9718V39.8805C77.0889 39.5313 77.8019 39.3567 78.6458 39.3567C79.7517 39.3567 80.6247 39.6768 81.2503 40.3316C81.876 40.9718 82.1961 41.8739 82.1961 43.0088C82.1961 44.0856 81.876 44.9731 81.2503 45.6861C80.6247 46.3845 79.7807 46.7483 78.7331 46.7483C77.7 46.7483 76.8998 46.3991 76.3323 45.6861C75.7648 44.9731 75.5029 43.9255 75.5029 42.5432ZM80.9302 43.5326H76.7834C76.7979 44.202 76.9871 44.7403 77.3363 45.1332C77.6855 45.526 78.1657 45.7298 78.7768 45.7298C79.3879 45.7298 79.8826 45.526 80.2755 45.1332C80.6683 44.7403 80.872 44.202 80.9302 43.5326Z" fill="#00557E"/>
<path d="M86.4448 46.7337C85.9356 46.7337 85.47 46.6464 85.048 46.4718C84.626 46.2972 84.2768 46.0499 83.9713 45.7298C83.6803 45.4096 83.4475 45.0313 83.2874 44.5948C83.1273 44.1583 83.04 43.6636 83.04 43.1252C83.04 42.5578 83.1273 42.034 83.2874 41.5683C83.4475 41.1027 83.6803 40.7099 83.9858 40.3752C84.2914 40.0406 84.6551 39.7932 85.0916 39.6186C85.5282 39.444 86.0083 39.3567 86.5467 39.3567C87.0414 39.3567 87.4925 39.444 87.9144 39.6186C88.3218 39.7932 88.671 40.0406 88.9766 40.3607C89.2822 40.6808 89.5004 41.0591 89.6605 41.4956C89.8205 41.9321 89.9078 42.4268 89.9078 42.9506C89.9078 43.649 89.7914 44.2747 89.5586 44.7985C89.3258 45.3224 88.9911 45.7589 88.5692 46.079L90.6353 47.5777H88.8311L87.5507 46.5882C87.3761 46.6319 87.2015 46.6755 87.0269 46.7046C86.8377 46.7337 86.6485 46.7337 86.4448 46.7337ZM86.503 40.4043C86.1829 40.4043 85.8774 40.4625 85.6155 40.5935C85.339 40.7244 85.1062 40.899 84.917 41.1318C84.7279 41.3646 84.5678 41.6411 84.466 41.9758C84.3641 42.2959 84.3059 42.6596 84.3059 43.067C84.3059 43.4599 84.3641 43.8237 84.466 44.1438C84.5678 44.4639 84.7133 44.7403 84.9025 44.9731C85.0917 45.2059 85.3245 45.3805 85.5864 45.5115C85.8483 45.6424 86.1393 45.7007 86.4739 45.7007C86.8086 45.7007 87.1287 45.6425 87.3906 45.5261C87.6671 45.4097 87.8999 45.2351 88.089 45.0168C88.2782 44.7985 88.4237 44.5221 88.5255 44.1874C88.6274 43.8528 88.6856 43.489 88.6856 43.0816C88.6856 42.6596 88.6419 42.2813 88.5401 41.9466C88.4382 41.612 88.2927 41.3355 88.1181 41.1027C87.9435 40.8699 87.7107 40.6953 87.4343 40.5789C87.1578 40.4625 86.8377 40.4043 86.503 40.4043Z" fill="#00557E"/>
<path d="M95.1608 46.6174H91.2031V39.4731H92.3817V45.6134H95.1463V46.6174H95.1608Z" fill="#00557E"/>
<path d="M96.7898 38.8183C96.6298 38.8183 96.4843 38.7601 96.3533 38.6582C96.2369 38.5418 96.1787 38.4109 96.1787 38.2508C96.1787 38.0908 96.2369 37.9598 96.3533 37.8434C96.4697 37.727 96.6152 37.6833 96.7898 37.6833C96.9644 37.6833 97.1099 37.7415 97.2263 37.8434C97.3427 37.9453 97.4009 38.0908 97.4009 38.2508C97.4009 38.4109 97.3427 38.5418 97.2263 38.6582C97.0954 38.7746 96.9499 38.8183 96.7898 38.8183ZM97.4155 46.6173H96.1933V39.473H97.4155V46.6173Z" fill="#00557E"/>
<path d="M104.138 39.4877L101.795 44.0274V46.6174H100.616V44.042L98.332 39.4731H99.6852L101.082 42.5287C101.097 42.5724 101.155 42.7033 101.228 42.9361H101.242C101.271 42.8343 101.329 42.6888 101.402 42.5287L102.872 39.4731H104.138V39.4877Z" fill="#00557E"/>
<path d="M110.03 39.4877L107.688 44.0274V46.6174H106.509V44.042L104.225 39.4731H105.578L106.975 42.5287C106.989 42.5724 107.047 42.7033 107.12 42.9361H107.135C107.164 42.8343 107.222 42.6888 107.295 42.5287L108.764 39.4731H110.03V39.4877Z" fill="#00557E"/>
<path d="M116.026 46.6174H114.731L114.09 44.7986H111.282L110.671 46.6174H109.376L112.053 39.4731H113.392L116.026 46.6174ZM113.77 43.8383L112.781 40.9864C112.752 40.8991 112.723 40.739 112.693 40.5353H112.679C112.65 40.7245 112.621 40.87 112.577 40.9864L111.602 43.8383H113.77Z" fill="#00557E"/>
<path d="M120.857 40.4915H118.805V46.6172H117.627V40.4915H115.575V39.4875H120.857V40.4915V40.4915Z" fill="#00557E"/>
<path d="M130.765 46.6174H129.47L126.065 41.3647C125.978 41.2337 125.905 41.0882 125.847 40.9573H125.818C125.847 41.1028 125.861 41.4375 125.861 41.9322V46.6174H124.712V39.4731H126.094L129.383 44.5949C129.528 44.8131 129.615 44.9587 129.645 45.0314H129.659C129.63 44.8423 129.615 44.5221 129.615 44.0711V39.4731H130.75V46.6174H130.765Z" fill="#00557E"/>
<path d="M138.389 46.6174H137.094L136.454 44.7986H133.645L133.034 46.6174H131.739L134.417 39.4731H135.755L138.389 46.6174ZM136.133 43.8383L135.144 40.9864C135.115 40.8991 135.086 40.739 135.057 40.5353H135.042C135.013 40.7245 134.984 40.87 134.94 40.9864L133.965 43.8383H136.133Z" fill="#00557E"/>
<path d="M144.458 39.9968L140.544 45.6133H144.399V46.6172H138.885V46.0789L142.813 40.4915H139.19V39.4875H144.458V39.9968V39.9968Z" fill="#00557E"/>
<path d="M146.159 38.8183C145.999 38.8183 145.853 38.7601 145.722 38.6582C145.606 38.5418 145.548 38.4109 145.548 38.2508C145.548 38.0908 145.606 37.9598 145.722 37.8434C145.839 37.727 145.984 37.6833 146.159 37.6833C146.334 37.6833 146.479 37.7415 146.595 37.8434C146.712 37.9453 146.77 38.0908 146.77 38.2508C146.77 38.4109 146.712 38.5418 146.595 38.6582C146.479 38.7746 146.334 38.8183 146.159 38.8183ZM146.785 46.6173H145.562V39.473H146.785V46.6173Z" fill="#00557E"/>
<path d="M154.061 46.6174H152.679L151.544 44.7113C151.442 44.5367 151.34 44.3912 151.239 44.2602C151.137 44.1293 151.035 44.0274 150.933 43.9547C150.831 43.8819 150.715 43.8237 150.598 43.7801C150.482 43.7364 150.351 43.7219 150.191 43.7219H149.711V46.6174H148.532V39.4731H150.875C151.21 39.4731 151.515 39.5168 151.806 39.5896C152.083 39.6623 152.33 39.7933 152.548 39.9533C152.752 40.1134 152.926 40.3171 153.043 40.5499C153.159 40.7972 153.217 41.0737 153.217 41.3938C153.217 41.6412 153.174 41.874 153.101 42.0922C153.028 42.2959 152.926 42.4851 152.781 42.6597C152.65 42.8197 152.475 42.9652 152.286 43.0816C152.097 43.1981 151.879 43.2854 151.631 43.3436V43.3581C151.762 43.4309 151.879 43.5182 151.966 43.6055C152.068 43.6928 152.155 43.7801 152.243 43.8819C152.33 43.9692 152.417 44.0856 152.504 44.202C152.592 44.3184 152.679 44.4639 152.781 44.6094L154.061 46.6174ZM149.725 40.448V42.7615H150.715C150.904 42.7615 151.064 42.7324 151.224 42.6742C151.384 42.616 151.515 42.5433 151.631 42.4269C151.748 42.325 151.835 42.1941 151.893 42.034C151.952 41.8885 151.995 41.7139 151.995 41.5248C151.995 41.1901 151.893 40.9136 151.675 40.7245C151.457 40.5353 151.151 40.4335 150.744 40.4335H149.725V40.448Z" fill="#00557E"/>
<path d="M158.848 46.6174H154.891V39.4731H156.069V45.6134H158.834V46.6174H158.848Z" fill="#00557E"/>
<path d="M160.463 38.8183C160.303 38.8183 160.157 38.7601 160.026 38.6582C159.91 38.5418 159.852 38.4109 159.852 38.2508C159.852 38.0908 159.91 37.9598 160.026 37.8434C160.143 37.727 160.288 37.6833 160.463 37.6833C160.637 37.6833 160.783 37.7415 160.899 37.8434C161.016 37.9453 161.074 38.0908 161.074 38.2508C161.074 38.4109 161.016 38.5418 160.899 38.6582C160.783 38.7746 160.637 38.8183 160.463 38.8183ZM161.088 46.6173H159.866V39.473H161.088V46.6173Z" fill="#00557E"/>
<path d="M167.825 39.4877L165.483 44.0274V46.6174H164.304V44.042L162.02 39.4731H163.373L164.77 42.5287C164.784 42.5724 164.842 42.7033 164.915 42.9361H164.93C164.959 42.8343 165.017 42.6888 165.09 42.5287L166.559 39.4731H167.825V39.4877Z" fill="#00557E"/>
<path d="M169.323 38.8183C169.163 38.8183 169.017 38.7601 168.887 38.6582C168.77 38.5418 168.712 38.4109 168.712 38.2508C168.712 38.0908 168.77 37.9598 168.887 37.8434C169.003 37.727 169.148 37.6833 169.323 37.6833C169.498 37.6833 169.643 37.7415 169.76 37.8434C169.876 37.9453 169.934 38.0908 169.934 38.2508C169.934 38.4109 169.876 38.5418 169.76 38.6582C169.629 38.7746 169.483 38.8183 169.323 38.8183ZM169.949 46.6173H168.726V39.473H169.949V46.6173Z" fill="#00557E"/>
<line x1="224.25" y1="4" x2="224.25" y2="59" stroke="#00557E" stroke-width="0.5"/>
<path d="M252.988 14.2979L250.222 22H248.793L246.075 14.2979H247.472L249.373 20.1416C249.434 20.3278 249.48 20.5444 249.513 20.7915H249.534C249.559 20.5874 249.611 20.3672 249.69 20.1309L251.634 14.2979H252.988ZM259.734 22H258.332L257.639 20.0396H254.61L253.944 22H252.547L255.432 14.2979H256.871L259.734 22ZM257.301 18.9976L256.232 15.9253C256.2 15.825 256.166 15.6639 256.13 15.4419H256.108C256.076 15.646 256.04 15.8071 256.001 15.9253L254.943 18.9976H257.301ZM266.985 22H265.701V18.6592H262.076V22H260.797V14.2979H262.076V17.5366H265.701V14.2979H266.985V22ZM270.197 22H268.881V14.2979H270.197V22ZM269.52 13.5889C269.341 13.5889 269.185 13.5298 269.053 13.4116C268.924 13.2899 268.859 13.1413 268.859 12.9658C268.859 12.7939 268.924 12.6489 269.053 12.5308C269.182 12.4126 269.337 12.3535 269.52 12.3535C269.703 12.3535 269.858 12.4126 269.987 12.5308C270.116 12.6453 270.181 12.7904 270.181 12.9658C270.181 13.1377 270.116 13.2845 269.987 13.4062C269.858 13.528 269.703 13.5889 269.52 13.5889ZM272.098 22V14.2979H274.322C277.161 14.2979 278.581 15.5493 278.581 18.0522C278.581 19.241 278.187 20.1971 277.399 20.9204C276.612 21.6401 275.555 22 274.23 22H272.098ZM273.371 15.3828V20.9204H274.392C275.29 20.9204 275.989 20.6733 276.486 20.1792C276.988 19.6851 277.238 18.9868 277.238 18.0845C277.238 16.2834 276.306 15.3828 274.44 15.3828H273.371ZM287.347 22H283.023V14.2979H287.175V15.3828H284.301V17.5635H286.949V18.6431H284.301V20.9204H287.347V22ZM292.981 22H288.716V14.2979H289.995V20.9204H292.981V22ZM298.422 22H294.098V14.2979H298.25V15.3828H295.376V17.5635H298.024V18.6431H295.376V20.9204H298.422V22ZM305.619 22H303.954L301.274 18.4766C301.174 18.3441 301.113 18.2546 301.091 18.208H301.07V22H299.792V14.2979H301.07V17.918H301.091C301.134 17.8392 301.195 17.7515 301.274 17.6548L303.857 14.2979H305.388L302.364 17.9932L305.619 22ZM311.458 15.3828H309.245V22H307.966V15.3828H305.759V14.2979H311.458V15.3828ZM318.537 22H317.043L315.813 19.9375C315.702 19.7477 315.593 19.5866 315.486 19.4541C315.382 19.318 315.275 19.207 315.164 19.1211C315.056 19.0352 314.938 18.9725 314.809 18.9331C314.68 18.8937 314.535 18.874 314.374 18.874H313.858V22H312.585V14.2979H315.121C315.482 14.2979 315.815 14.3408 316.12 14.4268C316.424 14.5127 316.689 14.6434 316.915 14.8188C317.14 14.9907 317.316 15.2074 317.441 15.4688C317.57 15.7266 317.634 16.0291 317.634 16.3765C317.634 16.6486 317.593 16.8993 317.511 17.1284C317.432 17.354 317.317 17.5563 317.167 17.7354C317.02 17.9108 316.841 18.0612 316.63 18.1865C316.422 18.3118 316.188 18.4085 315.926 18.4766V18.498C316.066 18.5768 316.188 18.6646 316.292 18.7612C316.395 18.8543 316.494 18.951 316.587 19.0513C316.68 19.1515 316.771 19.2661 316.861 19.395C316.954 19.5203 317.056 19.6672 317.167 19.8354L318.537 22ZM313.858 15.3345V17.8374H314.922C315.119 17.8374 315.3 17.807 315.464 17.7461C315.633 17.6852 315.778 17.5975 315.899 17.4829C316.021 17.3683 316.116 17.2287 316.184 17.064C316.252 16.8993 316.286 16.7148 316.286 16.5107C316.286 16.1419 316.17 15.8537 315.937 15.646C315.704 15.4383 315.369 15.3345 314.933 15.3345H313.858ZM322.506 22.1289C321.396 22.1289 320.506 21.769 319.836 21.0493C319.17 20.3296 318.837 19.3932 318.837 18.2402C318.837 17.0013 319.178 16.013 319.858 15.2754C320.538 14.5378 321.462 14.1689 322.629 14.1689C323.711 14.1689 324.581 14.527 325.24 15.2432C325.902 15.9593 326.233 16.8957 326.233 18.0522C326.233 19.3091 325.895 20.3027 325.218 21.0332C324.542 21.7637 323.637 22.1289 322.506 22.1289ZM322.565 15.2915C321.86 15.2915 321.285 15.5547 320.841 16.0811C320.4 16.6074 320.18 17.3003 320.18 18.1597C320.18 19.0155 320.395 19.7048 320.825 20.2275C321.254 20.7503 321.817 21.0117 322.511 21.0117C323.249 21.0117 323.831 20.7629 324.257 20.2651C324.683 19.7674 324.896 19.071 324.896 18.1758C324.896 17.2555 324.688 16.5448 324.273 16.0435C323.861 15.5422 323.292 15.2915 322.565 15.2915ZM334.177 22H332.781L329.102 16.3389C329.008 16.1956 328.931 16.047 328.871 15.8931H328.838C328.867 16.0578 328.881 16.4105 328.881 16.9512V22H327.646V14.2979H329.134L332.689 19.8247C332.84 20.0539 332.937 20.2114 332.979 20.2974H333.001C332.965 20.0933 332.947 19.7477 332.947 19.2607V14.2979H334.177V22ZM252.708 35H251.178L249.599 32.1748C249.552 32.0889 249.5 31.9671 249.443 31.8096H249.421C249.389 31.8883 249.335 32.0101 249.26 32.1748L247.633 35H246.091L248.616 31.1274L246.295 27.2979H247.858L249.25 29.8975C249.339 30.0693 249.42 30.2412 249.491 30.4131H249.507C249.611 30.1875 249.701 30.0085 249.776 29.876L251.221 27.2979H252.66L250.286 31.1167L252.708 35ZM255.072 35H253.756V27.2979H255.072V35ZM254.395 26.5889C254.216 26.5889 254.06 26.5298 253.928 26.4116C253.799 26.2899 253.734 26.1413 253.734 25.9658C253.734 25.7939 253.799 25.6489 253.928 25.5308C254.057 25.4126 254.212 25.3535 254.395 25.3535C254.578 25.3535 254.733 25.4126 254.862 25.5308C254.991 25.6453 255.056 25.7904 255.056 25.9658C255.056 26.1377 254.991 26.2845 254.862 26.4062C254.733 26.528 254.578 26.5889 254.395 26.5889ZM256.973 35V27.2979H259.197C262.036 27.2979 263.456 28.5493 263.456 31.0522C263.456 32.241 263.062 33.1971 262.274 33.9204C261.487 34.6401 260.43 35 259.105 35H256.973ZM258.246 28.3828V33.9204H259.267C260.165 33.9204 260.864 33.6733 261.361 33.1792C261.863 32.6851 262.113 31.9868 262.113 31.0845C262.113 29.2834 261.181 28.3828 259.315 28.3828H258.246ZM273.14 35H271.873V30.0156C271.873 29.6074 271.898 29.1079 271.948 28.5171H271.926C271.847 28.8537 271.778 29.0954 271.717 29.2422L269.418 35H268.537L266.233 29.2852C266.168 29.1169 266.1 28.8608 266.029 28.5171H266.007C266.036 28.825 266.05 29.3281 266.05 30.0264V35H264.869V27.2979H266.668L268.693 32.4272C268.847 32.8211 268.947 33.1147 268.994 33.3081H269.021C269.153 32.9035 269.26 32.6027 269.343 32.4058L271.405 27.2979H273.14V35ZM274.531 30.6011H280.386C280.328 29.8778 280.062 29.3066 279.585 28.8877C279.113 28.4688 278.509 28.2593 277.775 28.2593C276.934 28.2593 276.209 28.4759 275.6 28.9092V27.7329C276.237 27.3569 277.011 27.1689 277.92 27.1689C279.113 27.1689 280.049 27.5181 280.729 28.2163C281.413 28.9146 281.755 29.8778 281.755 31.106C281.755 32.2697 281.415 33.2311 280.735 33.9902C280.055 34.7493 279.15 35.1289 278.022 35.1289C276.905 35.1289 276.044 34.7458 275.439 33.9795C274.834 33.2132 274.531 32.0871 274.531 30.6011ZM280.386 31.6699H275.906C275.921 32.3932 276.118 32.9715 276.497 33.4048C276.88 33.8345 277.399 34.0493 278.055 34.0493C278.717 34.0493 279.254 33.8345 279.666 33.4048C280.081 32.9751 280.321 32.3968 280.386 31.6699ZM288.104 28.3828H285.891V35H284.613V28.3828H282.405V27.2979H288.104V28.3828ZM293.497 35H289.232V27.2979H290.51V33.9204H293.497V35ZM294.104 30.6011H299.958C299.901 29.8778 299.634 29.3066 299.158 28.8877C298.685 28.4688 298.082 28.2593 297.348 28.2593C296.506 28.2593 295.781 28.4759 295.172 28.9092V27.7329C295.81 27.3569 296.583 27.1689 297.493 27.1689C298.685 27.1689 299.621 27.5181 300.302 28.2163C300.986 28.9146 301.328 29.8778 301.328 31.106C301.328 32.2697 300.987 33.2311 300.307 33.9902C299.627 34.7493 298.723 35.1289 297.595 35.1289C296.478 35.1289 295.616 34.7458 295.011 33.9795C294.406 33.2132 294.104 32.0871 294.104 30.6011ZM299.958 31.6699H295.479C295.493 32.3932 295.69 32.9715 296.069 33.4048C296.452 33.8345 296.972 34.0493 297.627 34.0493C298.289 34.0493 298.826 33.8345 299.238 33.4048C299.654 32.9751 299.894 32.3968 299.958 31.6699ZM308.686 35H307.193L305.963 32.9375C305.852 32.7477 305.743 32.5866 305.635 32.4541C305.531 32.318 305.424 32.207 305.313 32.1211C305.206 32.0352 305.087 31.9725 304.958 31.9331C304.83 31.8937 304.685 31.874 304.523 31.874H304.008V35H302.735V27.2979H305.27C305.632 27.2979 305.965 27.3408 306.269 27.4268C306.573 27.5127 306.838 27.6434 307.064 27.8188C307.29 27.9907 307.465 28.2074 307.59 28.4688C307.719 28.7266 307.784 29.0291 307.784 29.3765C307.784 29.6486 307.743 29.8993 307.66 30.1284C307.581 30.354 307.467 30.5563 307.316 30.7354C307.17 30.9108 306.991 31.0612 306.779 31.1865C306.572 31.3118 306.337 31.4085 306.076 31.4766V31.498C306.215 31.5768 306.337 31.6646 306.441 31.7612C306.545 31.8543 306.643 31.951 306.736 32.0513C306.829 32.1515 306.921 32.2661 307.01 32.395C307.103 32.5203 307.205 32.6672 307.316 32.8354L308.686 35ZM304.008 28.3345V30.8374H305.071C305.268 30.8374 305.449 30.807 305.614 30.7461C305.782 30.6852 305.927 30.5975 306.049 30.4829C306.171 30.3683 306.265 30.2287 306.333 30.064C306.402 29.8993 306.436 29.7148 306.436 29.5107C306.436 29.1419 306.319 28.8537 306.086 28.646C305.854 28.4383 305.519 28.3345 305.082 28.3345H304.008ZM248.224 45.207V48H246.951V40.2979H249.287C250.172 40.2979 250.857 40.5037 251.344 40.9155C251.831 41.3273 252.075 41.9074 252.075 42.6558C252.075 43.4041 251.82 44.0164 251.312 44.4927C250.804 44.9689 250.116 45.207 249.25 45.207H248.224ZM248.224 41.3506V44.165H249.051C249.599 44.165 250.016 44.0379 250.302 43.7837C250.589 43.5295 250.732 43.1714 250.732 42.7095C250.732 41.8035 250.206 41.3506 249.153 41.3506H248.224ZM256.56 48.1289C255.45 48.1289 254.56 47.769 253.89 47.0493C253.224 46.3296 252.891 45.3932 252.891 44.2402C252.891 43.0013 253.231 42.013 253.912 41.2754C254.592 40.5378 255.516 40.1689 256.683 40.1689C257.764 40.1689 258.635 40.527 259.293 41.2432C259.956 41.9593 260.287 42.8957 260.287 44.0522C260.287 45.3091 259.949 46.3027 259.272 47.0332C258.595 47.7637 257.691 48.1289 256.56 48.1289ZM256.619 41.2915C255.913 41.2915 255.339 41.5547 254.895 42.0811C254.454 42.6074 254.234 43.3003 254.234 44.1597C254.234 45.0155 254.449 45.7048 254.878 46.2275C255.308 46.7503 255.87 47.0117 256.565 47.0117C257.303 47.0117 257.884 46.7629 258.311 46.2651C258.737 45.7674 258.95 45.071 258.95 44.1758C258.95 43.2555 258.742 42.5448 258.327 42.0435C257.915 41.5422 257.346 41.2915 256.619 41.2915ZM267.651 48H266.158L264.928 45.9375C264.817 45.7477 264.708 45.5866 264.6 45.4541C264.496 45.318 264.389 45.207 264.278 45.1211C264.17 45.0352 264.052 44.9725 263.923 44.9331C263.794 44.8937 263.649 44.874 263.488 44.874H262.973V48H261.7V40.2979H264.235C264.597 40.2979 264.93 40.3408 265.234 40.4268C265.538 40.5127 265.803 40.6434 266.029 40.8188C266.254 40.9907 266.43 41.2074 266.555 41.4688C266.684 41.7266 266.749 42.0291 266.749 42.3765C266.749 42.6486 266.707 42.8993 266.625 43.1284C266.546 43.354 266.432 43.5563 266.281 43.7354C266.134 43.9108 265.955 44.0612 265.744 44.1865C265.536 44.3118 265.302 44.4085 265.041 44.4766V44.498C265.18 44.5768 265.302 44.6646 265.406 44.7612C265.51 44.8543 265.608 44.951 265.701 45.0513C265.794 45.1515 265.886 45.2661 265.975 45.395C266.068 45.5203 266.17 45.6672 266.281 45.8354L267.651 48ZM262.973 41.3345V43.8374H264.036C264.233 43.8374 264.414 43.807 264.579 43.7461C264.747 43.6852 264.892 43.5975 265.014 43.4829C265.135 43.3683 265.23 43.2287 265.298 43.064C265.366 42.8993 265.4 42.7148 265.4 42.5107C265.4 42.1419 265.284 41.8537 265.051 41.646C264.819 41.4383 264.484 41.3345 264.047 41.3345H262.973ZM273.237 41.3828H271.024V48H269.746V41.3828H267.538V40.2979H273.237V41.3828ZM279.886 48H278.484L277.792 46.0396H274.762L274.096 48H272.7L275.584 40.2979H277.023L279.886 48ZM277.453 44.9976L276.384 41.9253C276.352 41.825 276.318 41.6639 276.282 41.4419H276.261C276.229 41.646 276.193 41.8071 276.153 41.9253L275.095 44.9976H277.453ZM285.214 48H280.95V40.2979H282.228V46.9204H285.214V48ZM287.642 48H286.326V40.2979H287.642V48Z" fill="#00557E"/>
</svg>
