<svg width="60" height="60" viewBox="0 0 60 60" fill="none" xmlns="http://www.w3.org/2000/svg">
<rect width="60" height="60" fill="white"/>
<path d="M52 37.7773C52 31.3639 47.6786 25.7605 41.5848 24.072C41.2018 15.1449 33.8205 8 24.8008 8C15.5367 8 8 15.5367 8 24.8008C8 27.82 8.80365 30.7597 10.3297 33.3405L8.06177 41.5395L16.2611 39.2719C18.6334 40.6747 21.3096 41.4649 24.0717 41.5841C25.7599 47.6783 31.3636 52 37.7773 52C40.3373 52 42.8268 51.3182 45.0142 50.0228L51.9379 51.9379L50.0228 45.0142C51.3182 42.8268 52 40.3373 52 37.7773ZM16.6679 36.4843L11.7594 37.8421L13.1173 32.9336L12.8078 32.4496C11.3492 30.1675 10.5781 27.5226 10.5781 24.8008C10.5781 16.9583 16.9583 10.5781 24.8008 10.5781C32.6432 10.5781 39.0234 16.9583 39.0234 24.8008C39.0234 32.6432 32.6432 39.0234 24.8008 39.0234C22.079 39.0234 19.4344 38.2523 17.152 36.7938L16.6679 36.4843ZM48.2406 48.2406L44.5983 47.2328L44.1119 47.5494C42.2263 48.7743 40.0356 49.4219 37.7773 49.4219C32.7366 49.4219 28.3071 46.1626 26.7377 41.4891C34.4567 40.5992 40.5992 34.4567 41.4894 26.7374C46.1626 28.3071 49.4219 32.7366 49.4219 37.7773C49.4219 40.0356 48.7743 42.2263 47.5494 44.1119L47.2328 44.5983L48.2406 48.2406Z" fill="#0F52BA"/>
<path d="M23.5117 31.2891H26.0898V33.8672H23.5117V31.2891Z" fill="#0F52BA"/>
<path d="M27.3789 20.8906C27.3789 21.6228 27.0808 22.2985 26.5397 22.7937L23.5117 25.5652V28.7109H26.0898V26.7005L28.2802 24.6957C29.3457 23.7205 29.957 22.3338 29.957 20.8906C29.957 18.0473 27.6441 15.7344 24.8008 15.7344C21.9575 15.7344 19.6445 18.0473 19.6445 20.8906H22.2227C22.2227 19.469 23.3791 18.3125 24.8008 18.3125C26.2224 18.3125 27.3789 19.469 27.3789 20.8906Z" fill="#0F52BA"/>
</svg>
