<svg width="60" height="60" viewBox="0 0 60 60" fill="none" xmlns="http://www.w3.org/2000/svg">
<rect opacity="0.01" width="60" height="60" fill="#E9E9E9"/>
<path d="M41.472 26.9062C40.8731 23.9679 38.2688 21.75 35.1562 21.75H24.8438C21.7312 21.75 19.1269 23.9679 18.528 26.9062H8V52H52V26.9062H41.472ZM24.8438 24.3281H35.1562C36.8367 24.3281 38.2695 25.4057 38.8019 26.9062H21.1981C21.7305 25.4057 23.1633 24.3281 24.8438 24.3281ZM49.4219 29.4844V32.0625H10.5781V29.4844H49.4219ZM10.5781 49.4219V34.6406H49.4219V49.4219H10.5781Z" fill="#0F52BA"/>
<path d="M30 19.1719C33.08 19.1719 35.5859 16.6659 35.5859 13.5859C35.5859 10.506 33.08 8 30 8C26.92 8 24.4141 10.506 24.4141 13.5859C24.4141 16.6659 26.92 19.1719 30 19.1719ZM30 10.5781C31.6587 10.5781 33.0078 11.9273 33.0078 13.5859C33.0078 15.2446 31.6587 16.5938 30 16.5938C28.3413 16.5938 26.9922 15.2446 26.9922 13.5859C26.9922 11.9273 28.3413 10.5781 30 10.5781Z" fill="#0F52BA"/>
</svg>
