<svg width="24" height="27" viewBox="0 0 24 27" fill="none" xmlns="http://www.w3.org/2000/svg">
<path d="M11.1643 0C10.7301 0.0679969 10.2908 0.125533 9.85665 0.203991C7.65459 0.622433 5.75068 1.63193 4.12398 3.15924C2.08931 5.06838 0.813057 7.4012 0.33708 10.1577C0.269083 10.5395 0.258621 10.937 0.201086 11.3241C0.164471 11.5752 0.0964756 11.8262 0.0494003 12.0773C0.0232468 12.2028 0.00232506 12.3336 0.00232506 12.4644C-0.00290489 15.1372 0.00232506 17.81 0.00232506 20.4775C0.00232506 21.0424 0.263851 21.3144 0.823519 21.3144C2.08408 21.3196 3.34464 21.3196 4.60519 21.3144C5.1544 21.3144 5.42116 21.0372 5.42116 20.4932C5.42116 17.8047 5.42116 15.1162 5.42116 12.4277C5.42116 11.8681 5.14394 11.5961 4.5895 11.5909C3.89384 11.5909 3.19818 11.5909 2.42406 11.5909C2.54959 10.9057 2.63328 10.2466 2.79543 9.60325C3.24002 7.86672 4.11875 6.35509 5.38454 5.08931C6.84386 3.62999 8.5804 2.68326 10.6412 2.39035C13.4919 1.9876 15.9659 2.81926 18.0947 4.71271C19.8783 6.29233 20.9244 8.29039 21.3272 10.6337C21.3795 10.937 21.39 11.2509 21.4213 11.5909C20.8303 11.5909 20.2549 11.617 19.6848 11.5856C18.8479 11.5438 18.555 11.821 18.5655 12.6945C18.5916 15.2784 18.5759 17.8623 18.5759 20.4461C18.5759 21.0477 18.8322 21.3092 19.4285 21.3092C19.8783 21.3144 20.3282 21.3092 20.8094 21.3092C20.8408 22.1042 20.6891 22.826 20.1974 23.4485C19.5697 24.2435 18.6858 24.5835 17.7338 24.7979C16.7139 25.0281 15.6835 25.0281 14.6478 25.0019C14.5746 25.0019 14.47 24.913 14.4334 24.8398C14.2398 24.4632 13.9365 24.2854 13.4814 24.3377C12.4091 24.4527 11.3317 24.4161 10.2594 24.3324C9.67358 24.2906 9.29698 24.6306 9.28652 25.1902C9.28129 25.4361 9.28129 25.6767 9.28652 25.9225C9.30221 26.3828 9.64742 26.728 10.1077 26.728C11.2898 26.7332 12.4719 26.7437 13.654 26.7176C13.858 26.7123 14.0934 26.5972 14.2503 26.4665C14.3863 26.3514 14.5014 26.3148 14.6635 26.32C15.9136 26.3566 17.148 26.2677 18.3563 25.9487C19.2821 25.7028 20.1399 25.3315 20.8669 24.6776C21.7666 23.8721 22.1432 22.8417 22.1693 21.6596C22.1693 21.555 22.1693 21.4556 22.1693 21.3196C22.4831 21.3196 22.7761 21.304 23.069 21.3249C23.5136 21.3563 23.8274 21.1993 24 20.7861V12.7311C24 12.4173 23.9425 12.1034 23.8012 11.821C23.728 11.6745 23.6862 11.5124 23.6809 11.3346C23.6391 10.2361 23.3985 9.16912 23.0324 8.13348C22.2739 5.97327 20.9924 4.17396 19.2507 2.70941C17.7338 1.43317 16.0025 0.59105 14.0515 0.214452C13.6069 0.130763 13.1623 0.0732274 12.7177 0.00523053C12.2052 0 11.6873 0 11.1643 0Z" fill="white"/>
</svg>
