<svg width="60" height="60" viewBox="0 0 60 60" fill="none" xmlns="http://www.w3.org/2000/svg">
<rect opacity="0.01" width="60" height="60" fill="#E9E9E9"/>
<g clip-path="url(#clip0_479:8556)">
<path d="M8 50.1667V51.0834C8 51.5896 8.41044 52 8.9167 52H51.0834C51.5896 52 52.0001 51.5896 52.0001 51.0833V50.1666H8V50.1667Z" fill="#0F52BA"/>
<path d="M25.4164 24.5H10.7497C10.2434 24.5 9.83301 24.9104 9.83301 25.4167V51.0834C9.83301 51.5896 10.2434 52 10.7497 52H25.4164C25.9227 52 26.3331 51.5896 26.3331 51.0833V25.4167C26.333 24.9104 25.9227 24.5 25.4164 24.5ZM24.4997 50.1667H11.6664V26.3333H24.4997V50.1667Z" fill="#0F52BA"/>
<path d="M49.2504 13.5H34.5837C34.0774 13.5 33.667 13.9104 33.667 14.4167V51.0834C33.667 51.5896 34.0774 52.0001 34.5837 52.0001H49.2504C49.7566 52.0001 50.1671 51.5896 50.1671 51.0834V14.4167C50.1671 13.9104 49.7566 13.5 49.2504 13.5ZM48.3337 50.1667H35.5004V15.3333H48.3337V50.1667Z" fill="#0F52BA"/>
<path d="M42.8337 8H18.0837C17.5774 8 17.167 8.41044 17.167 8.9167V22.6667H19.0004V9.8333H41.9171V11.6666H43.7504V8.91661C43.7504 8.41044 43.3399 8 42.8337 8Z" fill="#0F52BA"/>
<path d="M15.3333 28.1667H13.5V44.6667H15.3333V28.1667Z" fill="#0F52BA"/>
<path d="M19.0003 28.1667H17.167V44.6667H19.0003V28.1667Z" fill="#0F52BA"/>
<path d="M22.6663 28.1667H20.833V44.6667H22.6663V28.1667Z" fill="#0F52BA"/>
<path d="M44.6663 18.0833H34.583V19.9165H44.6663V18.0833Z" fill="#0F52BA"/>
<path d="M44.6663 22.6667H34.583V24.5001H44.6663V22.6667Z" fill="#0F52BA"/>
<path d="M44.6663 27.25H34.583V29.0833H44.6663V27.25Z" fill="#0F52BA"/>
<path d="M44.6663 31.8333H34.583V33.6666H44.6663V31.8333Z" fill="#0F52BA"/>
<path d="M44.6663 36.4167H34.583V38.2501H44.6663V36.4167Z" fill="#0F52BA"/>
<path d="M44.6663 41H34.583V42.8333H44.6663V41Z" fill="#0F52BA"/>
<path d="M23.5833 12.5833H21.75V15.3333H23.5833V12.5833Z" fill="#0F52BA"/>
<path d="M23.5833 18.0833H21.75V20.8332H23.5833V18.0833Z" fill="#0F52BA"/>
<path d="M27.2503 18.0833H25.417V20.8332H27.2503V18.0833Z" fill="#0F52BA"/>
<path d="M27.2503 12.5833H25.417V15.3333H27.2503V12.5833Z" fill="#0F52BA"/>
<path d="M30.9163 12.5833H29.083V15.3333H30.9163V12.5833Z" fill="#0F52BA"/>
<path d="M30.9163 18.0833H29.083V20.8332H30.9163V18.0833Z" fill="#0F52BA"/>
<path d="M30.9163 23.5833H29.083V26.3333H30.9163V23.5833Z" fill="#0F52BA"/>
<path d="M30.9163 29.0833H29.083V31.8333H30.9163V29.0833Z" fill="#0F52BA"/>
<path d="M30.9163 34.5833H29.083V37.3333H30.9163V34.5833Z" fill="#0F52BA"/>
<path d="M30.9163 40.0833H29.083V42.8333H30.9163V40.0833Z" fill="#0F52BA"/>
<path d="M42.833 45.5833H38.2497C37.7434 45.5833 37.333 45.9937 37.333 46.4999V51.0833H39.1663V47.4166H41.9163V51.0833H43.7497V46.4999C43.7497 45.9937 43.3393 45.5833 42.833 45.5833Z" fill="#0F52BA"/>
<path d="M21.75 46.5H14.4167C13.9104 46.5 13.5 46.9104 13.5 47.4167V51.0834H15.3333V48.3334H20.8333V51.0834H22.6666V47.4167C22.6667 46.9104 22.2563 46.5 21.75 46.5Z" fill="#0F52BA"/>
</g>
<defs>
<clipPath id="clip0_479:8556">
<rect width="44" height="44" fill="white" transform="translate(8 8)"/>
</clipPath>
</defs>
</svg>
