<?xml version="1.0" encoding="UTF-8"?>
<svg width="16px" height="20px" viewBox="0 0 16 20" version="1.1" xmlns="http://www.w3.org/2000/svg" xmlns:xlink="http://www.w3.org/1999/xlink">
    <title>file-text-fill</title>
    <defs>
        <path d="M14.7139,8 C14.3199,8 13.9999,7.619 13.9999,7.15 L13.9999,3.978 L17.7419,8 L14.7139,8 Z M14.9999,18 L8.9999,18 C8.4479,18 7.9999,17.552 7.9999,17 C7.9999,16.448 8.4479,16 8.9999,16 L14.9999,16 C15.5529,16 15.9999,16.448 15.9999,17 C15.9999,17.552 15.5529,18 14.9999,18 L14.9999,18 Z M8.9999,12 L11.9999,12 C12.5519,12 12.9999,12.448 12.9999,13 C12.9999,13.552 12.5519,14 11.9999,14 L8.9999,14 C8.4479,14 7.9999,13.552 7.9999,13 C7.9999,12.448 8.4479,12 8.9999,12 L8.9999,12 Z M19.7399,7.328 L15.2959,2.328 C15.1069,2.119 14.8379,2 14.5559,2 L6.5559,2 C5.1469,2 3.9999,3.122 3.9999,4.5 L3.9999,19.5 C3.9999,20.878 5.1469,22 6.5559,22 L17.4439,22 C18.8539,22 19.9999,20.878 19.9999,19.5 L19.9999,8 C19.9999,7.751 19.9069,7.512 19.7399,7.328 L19.7399,7.328 Z" id="path-1"></path>
    </defs>
    <g id="Symbols" stroke="none" stroke-width="1" fill="none" fill-rule="evenodd">
        <g id="AsanLogin/UI/Footer" transform="translate(-588.000000, -25.000000)">
            <g id="Group-5" transform="translate(581.000000, 20.000000)">
                <g id="Group-4" transform="translate(3.000000, 0.000000)">
                    <g id="file-text-fill" transform="translate(0.000000, 3.000000)">
                        <mask id="mask-2" fill="white">
                            <use xlink:href="#path-1"></use>
                        </mask>
                        <use id="🎨-Icon-Сolor" fill="#0A44A5" xlink:href="#path-1"></use>
                    </g>
                </g>
            </g>
        </g>
    </g>
</svg>