<svg width="16" height="15" viewBox="0 0 16 15" fill="none" xmlns="http://www.w3.org/2000/svg">
<path fill-rule="evenodd" clip-rule="evenodd" d="M8 10.3333C4.95196 10.3333 3.12911 11.1746 2.45975 12.8333H13.5402C12.8709 11.1746 11.048 10.3333 8 10.3333ZM15.5 14.4999H0.5C0.5 10.5624 3.40444 8.66658 8 8.66658C12.5956 8.66658 15.5 10.5624 15.5 14.4999ZM8 5.33325C8.91286 5.33325 9.66667 4.57944 9.66667 3.66659C9.66667 2.75373 8.91286 1.99992 8 1.99992C7.08714 1.99992 6.33333 2.75373 6.33333 3.66659C6.33333 4.57944 7.08714 5.33325 8 5.33325ZM8 6.99992C6.16667 6.99992 4.66667 5.49992 4.66667 3.66659C4.66667 1.83325 6.16667 0.333252 8 0.333252C9.83333 0.333252 11.3333 1.83325 11.3333 3.66659C11.3333 5.49992 9.83333 6.99992 8 6.99992Z" fill="#4E5D78"/>
</svg>
