<svg width="52" height="52" viewBox="0 0 52 52" fill="none" xmlns="http://www.w3.org/2000/svg">
<path d="M37.2114 0.164612C45.9689 0.164612 51.8331 6.31295 51.8331 15.4579V36.5664C51.8331 45.6855 45.9689 51.8313 37.2114 51.8313H14.8139C6.05638 51.8313 0.166382 45.6855 0.166382 36.5664V15.4579C0.166382 6.31295 6.05638 0.164612 14.8139 0.164612H37.2114ZM25.9739 22.0739C24.7339 22.0739 23.7264 23.1046 23.7264 24.3472V35.7655C23.7264 37.0055 24.7339 38.013 25.9739 38.013C27.2397 38.013 28.2472 37.0055 28.2472 35.7655V24.3472C28.2472 23.1046 27.2397 22.0739 25.9739 22.0739ZM26.0256 13.8847C24.7597 13.8847 23.7522 14.8922 23.7522 16.158C23.7522 17.3954 24.7597 18.4055 25.9739 18.4055C27.2655 18.4055 28.2731 17.3954 28.2731 16.158C28.2731 14.8922 27.2656 13.8847 26.0256 13.8847Z" fill="#304B82"/>
</svg>
